<svg xmlns:xlink="http://www.w3.org/1999/xlink" xmlns="http://www.w3.org/2000/svg" version="1.1" fill="none" stroke="none" stroke-linecap="square" stroke-miterlimit="10" viewBox="18.83 26.69 804.36 356.63">
  <g clip-path="url(#p.0)">
    <path fill="#cfe2f3" d="M170.87 344.85c0 -20.97 68.92 -37.97 153.94 -37.97s153.94 17 153.94 37.97 -68.92 37.97 -153.94 37.97 -153.94 -17 -153.94 -37.97" fill-rule="evenodd"/>
    <path stroke="#000000" stroke-width="1" stroke-linejoin="round" stroke-linecap="butt" d="M170.87 344.85c0 -20.97 68.92 -37.97 153.94 -37.97s153.94 17 153.94 37.97 -68.92 37.97 -153.94 37.97 -153.94 -17 -153.94 -37.97z" fill-rule="evenodd"/>
    <path fill="#000000" d="m247.64 336.08 1.77 0.45q-0.56 2.17 -2 3.33 -1.44 1.14 -3.53 1.14 -2.16 0 -3.52 -0.87 -1.34 -0.89 -2.06 -2.55 -0.7 -1.67 -0.7 -3.59 0 -2.08 0.8 -3.63 0.8 -1.56 2.27 -2.36 1.48 -0.81 3.25 -0.81 2 0 3.36 1.02 1.37 1.02 1.91 2.88l-1.73 0.41q-0.47 -1.45 -1.36 -2.11 -0.87 -0.67 -2.2 -0.67 -1.55 0 -2.58 0.73t-1.45 1.99q-0.42 1.23 -0.42 2.56 0 1.7 0.5 2.97t1.55 1.91q1.05 0.63 2.27 0.63 1.48 0 2.52 -0.86 1.03 -0.86 1.39 -2.55m3.13 -0.16q0 -2.69 1.48 -3.97 1.25 -1.08 3.05 -1.08 2 0 3.27 1.31 1.27 1.3 1.27 3.61 0 1.86 -0.56 2.94 -0.56 1.06 -1.64 1.66 -1.06 0.59 -2.33 0.59 -2.03 0 -3.28 -1.3 -1.25 -1.31 -1.25 -3.77m1.69 0q0 1.86 0.8 2.8 0.81 0.92 2.05 0.92 1.22 0 2.03 -0.92 0.81 -0.94 0.81 -2.84 0 -1.8 -0.81 -2.72t-2.03 -0.92q-1.24 0 -2.05 0.92 -0.8 0.91 -0.8 2.77m9.3 4.84v-9.68h1.47v1.36q0.45 -0.72 1.2 -1.14 0.77 -0.44 1.72 -0.44 1.08 0 1.76 0.45 0.69 0.44 0.97 1.23 1.16 -1.69 2.98 -1.69 1.45 0 2.22 0.8t0.78 2.45v6.64h-1.64v-6.09q0 -0.99 -0.16 -1.41 -0.16 -0.44 -0.58 -0.7t-0.99 -0.27q-1.01 0 -1.69 0.69 -0.67 0.67 -0.67 2.16v5.63h-1.64v-6.28q0 -1.1 -0.41 -1.64t-1.31 -0.55q-0.69 0 -1.28 0.36t-0.86 1.06q-0.25 0.7 -0.25 2.03v5.02zm15.54 3.7V331.1h1.49v1.25q0.53 -0.73 1.19 -1.09 0.67 -0.38 1.63 -0.38 1.24 0 2.17 0.64 0.95 0.63 1.44 1.8t0.48 2.55q0 1.49 -0.53 2.67t-1.55 1.83q-1.02 0.63 -2.14 0.63 -0.81 0 -1.47 -0.34t-1.06 -0.88v4.7zm1.49 -8.49q0 1.86 0.75 2.77 0.77 0.89 1.83 0.89 1.09 0 1.88 -0.92 0.78 -0.94 0.78 -2.88 0 -1.84 -0.77 -2.77 -0.75 -0.92 -1.81 -0.92 -1.05 0 -1.86 0.98 -0.8 0.97 -0.8 2.84m15.22 4.78v-1.42q-1.13 1.64 -3.06 1.64 -0.86 0 -1.61 -0.33 -0.73 -0.33 -1.09 -0.83t-0.5 -1.22q-0.11 -0.47 -0.11 -1.53v-5.98h1.64v5.36q0 1.28 0.11 1.73 0.16 0.64 0.66 1.02t1.24 0.38 1.38 -0.38q0.66 -0.39 0.92 -1.03 0.27 -0.66 0.27 -1.89v-5.19h1.64v9.67zm7.63 -1.47 0.23 1.45q-0.69 0.14 -1.23 0.14 -0.89 0 -1.39 -0.28 -0.49 -0.28 -0.69 -0.73 -0.2 -0.47 -0.2 -1.94v-5.58h-1.2v-1.25h1.2v-2.39l1.63 -0.98v3.38h1.66v1.27h-1.66v5.67q0 0.69 0.08 0.89t0.28 0.33q0.2 0.11 0.58 0.11 0.27 0 0.72 -0.06m1.61 -10v-1.89h1.64v1.89zm0 11.47v-9.69h1.64v9.67zm4.14 0v-9.69h1.47v1.38q1.06 -1.59 3.08 -1.59 0.88 0 1.61 0.31t1.09 0.83q0.38 0.5 0.52 1.2 0.09 0.45 0.09 1.59v5.95h-1.64v-5.89q0 -1 -0.2 -1.49 -0.19 -0.5 -0.67 -0.8t-1.14 -0.3q-1.05 0 -1.81 0.67 -0.75 0.66 -0.75 2.52v5.28zm10.06 0.8 1.59 0.24q0.11 0.75 0.56 1.08 0.61 0.45 1.67 0.45 1.14 0 1.75 -0.45 0.63 -0.45 0.84 -1.27 0.13 -0.5 0.11 -2.11 -1.06 1.27 -2.67 1.27 -2 0 -3.09 -1.44t-1.09 -3.45q0 -1.39 0.5 -2.56 0.52 -1.17 1.45 -1.8 0.95 -0.64 2.25 -0.64 1.7 0 2.81 1.38v-1.16h1.51v8.36q0 2.27 -0.47 3.2 -0.45 0.94 -1.45 1.48 -0.98 0.55 -2.45 0.55 -1.72 0 -2.8 -0.78 -1.06 -0.77 -1.03 -2.34m1.36 -5.81q0 1.91 0.75 2.78 0.77 0.88 1.91 0.88 1.13 0 1.89 -0.86 0.77 -0.87 0.77 -2.73 0 -1.78 -0.8 -2.67 -0.78 -0.91 -1.89 -0.91 -1.09 0 -1.86 0.89 -0.77 0.88 -0.77 2.63m14.78 5.01v-13.36h1.77v5.48h6.94v-5.48h1.77v13.36h-1.77v-6.3h-6.94v6.3zm19.52 -1.19q-0.92 0.77 -1.77 1.09 -0.83 0.31 -1.8 0.31 -1.59 0 -2.45 -0.78t-0.86 -1.98q0 -0.72 0.33 -1.3t0.84 -0.94q0.53 -0.36 1.19 -0.55 0.47 -0.13 1.45 -0.25 1.98 -0.23 2.92 -0.56l0.02 -0.42q0 -1 -0.47 -1.42 -0.63 -0.55 -1.88 -0.55 -1.16 0 -1.7 0.41t-0.81 1.42l-1.61 -0.22q0.22 -1.02 0.72 -1.64 0.5 -0.64 1.45 -0.98t2.19 -0.34q1.25 0 2.02 0.3 0.78 0.28 1.14 0.73 0.38 0.44 0.52 1.11 0.08 0.42 0.08 1.51v2.19q0 2.28 0.11 2.89 0.11 0.59 0.41 1.16h-1.7q-0.27 -0.52 -0.33 -1.19m-0.14 -3.67q-0.89 0.38 -2.67 0.63 -1.02 0.14 -1.44 0.33t-0.66 0.53q-0.22 0.34 -0.22 0.78 0 0.66 0.5 1.09 0.5 0.44 1.45 0.44t1.67 -0.41q0.75 -0.42 1.09 -1.14 0.27 -0.56 0.27 -1.64zm4.19 4.86v-9.67h1.47v1.47q0.56 -1.03 1.03 -1.36 0.48 -0.33 1.06 -0.33 0.83 0 1.69 0.53l-0.56 1.52q-0.61 -0.36 -1.2 -0.36 -0.55 0 -0.97 0.33t-0.61 0.89q-0.28 0.88 -0.28 1.92v5.06zm12.49 0v-1.22q-0.91 1.44 -2.7 1.44 -1.16 0 -2.13 -0.64t-1.5 -1.78 -0.53 -2.63q0 -1.45 0.48 -2.63t1.44 -1.81q0.97 -0.63 2.17 -0.63 0.88 0 1.55 0.38 0.69 0.36 1.11 0.95v-4.8h1.64v13.36zm-5.17 -4.83q0 1.86 0.78 2.78t1.84 0.92q1.08 0 1.83 -0.88 0.75 -0.89 0.75 -2.69 0 -1.98 -0.77 -2.91 -0.77 -0.94 -1.89 -0.94 -1.08 0 -1.81 0.89t-0.73 2.81m11.06 4.83 -2.97 -9.67h1.7l1.53 5.58 0.58 2.08 0.5 -2 1.55 -5.66h1.69l1.44 5.61 0.48 1.84 0.56 -1.86 1.66 -5.59h1.59l-3.03 9.67h-1.7l-1.53 -5.8 -0.38 -1.64 -1.95 7.44zm18 -1.19q-0.92 0.77 -1.77 1.09 -0.83 0.31 -1.8 0.31 -1.59 0 -2.45 -0.78t-0.86 -1.98q0 -0.72 0.33 -1.3t0.84 -0.94q0.53 -0.36 1.19 -0.55 0.47 -0.13 1.45 -0.25 1.98 -0.23 2.92 -0.56l0.02 -0.42q0 -1 -0.47 -1.42 -0.63 -0.55 -1.88 -0.55 -1.16 0 -1.7 0.41t-0.81 1.42l-1.61 -0.22q0.22 -1.02 0.72 -1.64 0.5 -0.64 1.45 -0.98t2.19 -0.34q1.25 0 2.02 0.3 0.78 0.28 1.14 0.73 0.38 0.44 0.52 1.11 0.08 0.42 0.08 1.51v2.19q0 2.28 0.11 2.89 0.11 0.59 0.41 1.16h-1.7q-0.27 -0.52 -0.33 -1.19m-0.14 -3.67q-0.89 0.38 -2.67 0.63 -1.02 0.14 -1.44 0.33t-0.66 0.53q-0.22 0.34 -0.22 0.78 0 0.66 0.5 1.09 0.5 0.44 1.45 0.44t1.67 -0.41q0.75 -0.42 1.09 -1.14 0.27 -0.56 0.27 -1.64zm4.19 4.86v-9.67h1.47v1.47q0.56 -1.03 1.03 -1.36 0.48 -0.33 1.06 -0.33 0.83 0 1.69 0.53l-0.56 1.52q-0.61 -0.36 -1.2 -0.36 -0.55 0 -0.97 0.33t-0.61 0.89q-0.28 0.88 -0.28 1.92v5.06zm12.85 -3.11 1.69 0.2q-0.41 1.49 -1.48 2.31 -1.08 0.81 -2.77 0.81 -2.13 0 -3.38 -1.3 -1.23 -1.31 -1.23 -3.67 0 -2.45 1.25 -3.8 1.27 -1.34 3.27 -1.34 1.94 0 3.16 1.33 1.23 1.31 1.23 3.7v0.44h-7.22q0.09 1.59 0.91 2.45 0.81 0.84 2.02 0.84 0.91 0 1.55 -0.47 0.64 -0.49 1.02 -1.52m-5.39 -2.66h5.41q-0.11 -1.22 -0.63 -1.83 -0.78 -0.95 -2.03 -0.95 -1.13 0 -1.91 0.77 -0.77 0.75 -0.84 2.02" fill-rule="nonzero"/>
    <path fill="#000000" d="M249.51 356.27q0 -3.33 1.78 -5.2 1.78 -1.89 4.61 -1.89 1.84 0 3.33 0.89 1.49 0.88 2.27 2.47 0.78 1.58 0.78 3.58 0 2.03 -0.83 3.64 -0.81 1.6 -2.31 2.42t-3.25 0.83q-1.88 0 -3.36 -0.91 -1.48 -0.92 -2.25 -2.5t-0.77 -3.33m1.81 0.02q0 2.42 1.3 3.81t3.27 1.39q2 0 3.28 -1.41t1.28 -3.98q0 -1.63 -0.55 -2.84t-1.61 -1.88 -2.37 -0.67q-1.89 0 -3.25 1.3 -1.34 1.28 -1.34 4.28m14.81 6.48 -2.97 -9.67h1.7l1.53 5.58 0.58 2.08 0.5 -2 1.55 -5.66h1.69l1.44 5.61 0.48 1.84 0.56 -1.86 1.66 -5.59h1.59l-3.03 9.67h-1.7l-1.53 -5.8 -0.38 -1.64 -1.95 7.44zm11.69 0v-9.67h1.47v1.38q1.06 -1.59 3.08 -1.59 0.88 0 1.61 0.31t1.09 0.83q0.38 0.5 0.52 1.2 0.09 0.45 0.09 1.59v5.95h-1.64v-5.89q0 -1 -0.2 -1.49 -0.19 -0.5 -0.67 -0.8t-1.14 -0.3q-1.05 0 -1.81 0.67 -0.75 0.66 -0.75 2.52v5.28zm17 -3.11 1.69 0.2q-0.41 1.49 -1.48 2.31 -1.08 0.81 -2.77 0.81 -2.13 0 -3.38 -1.3 -1.23 -1.31 -1.23 -3.67 0 -2.45 1.25 -3.8 1.27 -1.34 3.27 -1.34 1.94 0 3.16 1.33 1.23 1.31 1.23 3.7v0.44h-7.22q0.09 1.59 0.91 2.45 0.81 0.84 2.02 0.84 0.91 0 1.55 -0.47 0.64 -0.49 1.02 -1.52m-5.39 -2.66h5.41q-0.11 -1.22 -0.63 -1.83 -0.78 -0.95 -2.03 -0.95 -1.13 0 -1.91 0.77 -0.77 0.75 -0.84 2.02m9.13 5.77v-9.66h1.47v1.47q0.56 -1.03 1.03 -1.36 0.49 -0.33 1.06 -0.33 0.83 0 1.69 0.53l-0.56 1.52q-0.61 -0.36 -1.2 -0.36 -0.55 0 -0.97 0.33t-0.61 0.89q-0.28 0.88 -0.28 1.92v5.06zm5.57 -2.89 1.63 -0.25q0.13 0.97 0.75 1.5 0.63 0.52 1.75 0.52t1.67 -0.45q0.55 -0.47 0.55 -1.09 0 -0.55 -0.49 -0.88 -0.33 -0.22 -1.67 -0.55 -1.81 -0.47 -2.52 -0.8 -0.69 -0.33 -1.05 -0.91 -0.36 -0.59 -0.36 -1.31 0 -0.64 0.3 -1.19 0.3 -0.56 0.81 -0.92 0.38 -0.28 1.03 -0.47 0.67 -0.2 1.42 -0.2 1.14 0 2 0.33t1.27 0.89q0.42 0.56 0.58 1.5l-1.61 0.22q-0.11 -0.75 -0.64 -1.17 -0.52 -0.42 -1.47 -0.42 -1.14 0 -1.63 0.38 -0.47 0.38 -0.47 0.88 0 0.31 0.19 0.58 0.2 0.27 0.64 0.44 0.24 0.09 1.44 0.42 1.75 0.45 2.44 0.75t1.08 0.86 0.39 1.41q0 0.83 -0.48 1.55 -0.47 0.72 -1.38 1.13 -0.91 0.39 -2.05 0.39 -1.88 0 -2.88 -0.78 -0.98 -0.78 -1.25 -2.33m8.75 3.13 3.88 -13.81h1.31l-3.86 13.81zm6.57 -0.24v-13.36h2.66l3.16 9.45q0.44 1.33 0.64 1.99l0.7 -2.14 3.2 -9.3h2.38v13.36h-1.7v-11.17l-3.88 11.17h-1.59l-3.86 -11.37v11.37zm21.7 -1.19q-0.92 0.77 -1.77 1.09 -0.83 0.31 -1.8 0.31 -1.59 0 -2.45 -0.78t-0.86 -1.98q0 -0.72 0.33 -1.3t0.84 -0.94q0.53 -0.36 1.19 -0.55 0.47 -0.13 1.45 -0.25 1.99 -0.23 2.92 -0.56l0.02 -0.42q0 -1 -0.47 -1.42 -0.63 -0.55 -1.88 -0.55 -1.16 0 -1.7 0.41t-0.81 1.42l-1.61 -0.22q0.22 -1.02 0.72 -1.64 0.5 -0.64 1.45 -0.98t2.19 -0.34q1.25 0 2.02 0.3 0.78 0.28 1.14 0.73 0.38 0.44 0.52 1.11 0.08 0.42 0.08 1.51v2.19q0 2.28 0.11 2.89 0.11 0.59 0.41 1.16h-1.7q-0.27 -0.52 -0.33 -1.19m-0.14 -3.67q-0.89 0.38 -2.67 0.63 -1.01 0.14 -1.44 0.33t-0.66 0.53q-0.22 0.34 -0.22 0.78 0 0.66 0.5 1.09 0.5 0.44 1.45 0.44t1.67 -0.41q0.75 -0.42 1.09 -1.14 0.27 -0.56 0.27 -1.64zm4.2 4.86v-9.67h1.47v1.38q1.06 -1.59 3.08 -1.59 0.88 0 1.61 0.31t1.09 0.83q0.38 0.5 0.52 1.2 0.09 0.45 0.09 1.59v5.95h-1.64v-5.89q0 -1 -0.2 -1.49 -0.19 -0.5 -0.67 -0.8t-1.14 -0.3q-1.05 0 -1.81 0.67 -0.75 0.66 -0.75 2.52v5.28zm16.69 -1.19q-0.92 0.77 -1.76 1.09 -0.83 0.31 -1.8 0.31 -1.59 0 -2.45 -0.78t-0.86 -1.98q0 -0.72 0.33 -1.3t0.84 -0.94q0.53 -0.36 1.19 -0.55 0.47 -0.13 1.45 -0.25 1.98 -0.23 2.92 -0.56l0.02 -0.42q0 -1 -0.47 -1.42 -0.63 -0.55 -1.88 -0.55 -1.16 0 -1.7 0.41t-0.81 1.42l-1.61 -0.22q0.22 -1.02 0.72 -1.64 0.5 -0.64 1.45 -0.98t2.19 -0.34q1.25 0 2.02 0.3 0.78 0.28 1.14 0.73 0.38 0.44 0.52 1.11 0.08 0.42 0.08 1.51v2.19q0 2.28 0.11 2.89 0.11 0.59 0.41 1.16h-1.7q-0.27 -0.52 -0.33 -1.19m-0.14 -3.67q-0.89 0.38 -2.67 0.63 -1.02 0.14 -1.44 0.33t-0.66 0.53q-0.22 0.34 -0.22 0.78 0 0.66 0.5 1.09 0.5 0.44 1.45 0.44t1.67 -0.41q0.75 -0.42 1.09 -1.14 0.27 -0.56 0.27 -1.64zm3.89 5.66 1.59 0.24q0.11 0.75 0.56 1.08 0.61 0.45 1.67 0.45 1.14 0 1.75 -0.45 0.63 -0.45 0.84 -1.27 0.13 -0.5 0.11 -2.11 -1.06 1.27 -2.67 1.27 -2 0 -3.09 -1.44t-1.09 -3.45q0 -1.39 0.5 -2.56 0.52 -1.17 1.45 -1.8 0.95 -0.64 2.25 -0.64 1.7 0 2.81 1.38v-1.16h1.51v8.36q0 2.27 -0.47 3.2 -0.45 0.94 -1.45 1.48 -0.98 0.55 -2.45 0.55 -1.72 0 -2.8 -0.78 -1.06 -0.77 -1.03 -2.34m1.36 -5.81q0 1.91 0.75 2.78 0.77 0.88 1.91 0.88 1.13 0 1.89 -0.86 0.77 -0.87 0.77 -2.73 0 -1.78 -0.8 -2.67 -0.78 -0.91 -1.89 -0.91 -1.09 0 -1.86 0.89 -0.77 0.88 -0.77 2.63m15.95 1.91 1.69 0.2q-0.41 1.49 -1.49 2.31 -1.08 0.81 -2.77 0.81 -2.13 0 -3.38 -1.3 -1.24 -1.31 -1.24 -3.67 0 -2.45 1.25 -3.8 1.27 -1.34 3.27 -1.34 1.94 0 3.16 1.33 1.24 1.31 1.24 3.7v0.44h-7.22q0.1 1.59 0.91 2.45 0.81 0.84 2.02 0.84 0.91 0 1.55 -0.47 0.64 -0.49 1.01 -1.52m-5.39 -2.66h5.41q-0.11 -1.22 -0.63 -1.83 -0.78 -0.95 -2.03 -0.95 -1.13 0 -1.91 0.77 -0.77 0.75 -0.84 2.02m9.13 5.77v-9.71h1.47v1.47q0.56 -1.03 1.03 -1.36 0.49 -0.33 1.06 -0.33 0.83 0 1.69 0.53l-0.56 1.52q-0.61 -0.36 -1.2 -0.36 -0.55 0 -0.97 0.33t-0.61 0.89q-0.28 0.88 -0.28 1.92v5.06zm5.57 -2.89 1.63 -0.25q0.13 0.97 0.75 1.5 0.63 0.52 1.75 0.52t1.67 -0.45q0.55 -0.47 0.55 -1.09 0 -0.55 -0.48 -0.88 -0.33 -0.22 -1.67 -0.55 -1.81 -0.47 -2.52 -0.8 -0.69 -0.33 -1.05 -0.91 -0.36 -0.59 -0.36 -1.31 0 -0.64 0.3 -1.19 0.3 -0.56 0.81 -0.92 0.38 -0.28 1.03 -0.47 0.67 -0.2 1.42 -0.2 1.14 0 2 0.33t1.27 0.89q0.42 0.56 0.58 1.5l-1.61 0.22q-0.11 -0.75 -0.64 -1.17 -0.52 -0.42 -1.47 -0.42 -1.14 0 -1.62 0.38 -0.47 0.38 -0.47 0.88 0 0.31 0.19 0.58 0.2 0.27 0.64 0.44 0.23 0.09 1.44 0.42 1.75 0.45 2.44 0.75t1.08 0.86 0.39 1.41q0 0.83 -0.48 1.55 -0.47 0.72 -1.38 1.13 -0.91 0.39 -2.05 0.39 -1.88 0 -2.88 -0.78 -0.98 -0.78 -1.25 -2.33" fill-rule="nonzero"/>
    <path fill="#cfe2f3" d="M19.33 205.01c0 -20.97 38.65 -37.97 86.33 -37.97s86.33 17 86.33 37.97 -38.65 37.97 -86.33 37.97 -86.33 -17 -86.33 -37.97" fill-rule="evenodd"/>
    <path stroke="#000000" stroke-width="1" stroke-linejoin="round" stroke-linecap="butt" d="M19.33 205.01c0 -20.97 38.65 -37.97 86.33 -37.97s86.33 17 86.33 37.97 -38.65 37.97 -86.33 37.97 -86.33 -17 -86.33 -37.97z" fill-rule="evenodd"/>
    <path fill="#000000" d="m68.41 196.24 1.77 0.45q-0.56 2.17 -2 3.33 -1.44 1.14 -3.53 1.14 -2.16 0 -3.52 -0.88 -1.34 -0.89 -2.06 -2.55 -0.7 -1.67 -0.7 -3.59 0 -2.08 0.8 -3.63 0.8 -1.56 2.27 -2.36 1.48 -0.81 3.25 -0.81 2 0 3.36 1.01 1.37 1.02 1.91 2.88l-1.73 0.41q-0.47 -1.45 -1.36 -2.11 -0.87 -0.67 -2.2 -0.67 -1.55 0 -2.58 0.73t-1.45 1.98q-0.42 1.23 -0.42 2.56 0 1.7 0.5 2.97t1.55 1.91q1.05 0.63 2.27 0.63 1.48 0 2.52 -0.86t1.39 -2.55m3.13 -0.16q0 -2.69 1.48 -3.97 1.25 -1.08 3.05 -1.08 2 0 3.27 1.31 1.27 1.3 1.27 3.61 0 1.86 -0.56 2.94 -0.56 1.06 -1.64 1.66 -1.06 0.59 -2.33 0.59 -2.03 0 -3.28 -1.3 -1.25 -1.31 -1.25 -3.77m1.69 0q0 1.86 0.8 2.8 0.81 0.92 2.05 0.92 1.22 0 2.03 -0.92 0.81 -0.94 0.81 -2.84 0 -1.8 -0.81 -2.72t-2.03 -0.92q-1.24 0 -2.05 0.92 -0.8 0.91 -0.8 2.77m9.3 4.84v-9.67h1.47v1.36q0.45 -0.72 1.2 -1.14 0.77 -0.44 1.72 -0.44 1.08 0 1.77 0.45 0.69 0.44 0.97 1.24 1.16 -1.69 2.98 -1.69 1.45 0 2.22 0.8t0.78 2.45v6.64h-1.64v-6.09q0 -0.98 -0.16 -1.41 -0.16 -0.44 -0.58 -0.7t-0.99 -0.27q-1.01 0 -1.69 0.69 -0.67 0.67 -0.67 2.16v5.63h-1.64v-6.28q0 -1.09 -0.41 -1.64t-1.31 -0.55q-0.69 0 -1.28 0.36t-0.86 1.06q-0.25 0.7 -0.25 2.03v5.02zm15.54 3.7v-13.38h1.49v1.25q0.53 -0.73 1.19 -1.09 0.67 -0.38 1.63 -0.38 1.23 0 2.17 0.64 0.95 0.63 1.44 1.8t0.49 2.55q0 1.48 -0.53 2.67t-1.55 1.83q-1.02 0.63 -2.14 0.63 -0.81 0 -1.47 -0.34t-1.06 -0.88v4.7zm1.49 -8.48q0 1.86 0.75 2.77 0.77 0.89 1.83 0.89 1.09 0 1.88 -0.92 0.78 -0.94 0.78 -2.88 0 -1.84 -0.77 -2.77 -0.75 -0.92 -1.81 -0.92 -1.05 0 -1.86 0.99 -0.8 0.97 -0.8 2.84m8.28 -0.06q0 -2.69 1.48 -3.97 1.25 -1.08 3.05 -1.08 2 0 3.27 1.31 1.27 1.3 1.27 3.61 0 1.86 -0.56 2.94 -0.56 1.06 -1.64 1.66 -1.06 0.59 -2.33 0.59 -2.03 0 -3.28 -1.3 -1.25 -1.31 -1.25 -3.77m1.69 0q0 1.86 0.8 2.8 0.81 0.92 2.05 0.92 1.22 0 2.03 -0.92 0.81 -0.94 0.81 -2.84 0 -1.8 -0.81 -2.72t-2.03 -0.92q-1.24 0 -2.05 0.92 -0.8 0.91 -0.8 2.77m9.3 4.84v-9.67h1.47v1.38q1.06 -1.59 3.08 -1.59 0.88 0 1.61 0.31t1.09 0.83q0.38 0.5 0.52 1.2 0.09 0.45 0.09 1.59v5.95h-1.64v-5.89q0 -1 -0.2 -1.49 -0.19 -0.5 -0.67 -0.8t-1.14 -0.3q-1.05 0 -1.81 0.67 -0.75 0.66 -0.75 2.52v5.28zm17 -3.11 1.69 0.2q-0.41 1.48 -1.49 2.31 -1.08 0.81 -2.77 0.81 -2.13 0 -3.38 -1.3 -1.24 -1.31 -1.24 -3.67 0 -2.45 1.25 -3.8 1.27 -1.34 3.27 -1.34 1.94 0 3.16 1.33 1.24 1.31 1.24 3.7v0.44h-7.22q0.09 1.59 0.91 2.45 0.81 0.84 2.02 0.84 0.91 0 1.55 -0.47 0.64 -0.48 1.01 -1.52m-5.39 -2.66h5.41q-0.11 -1.22 -0.63 -1.83 -0.78 -0.95 -2.03 -0.95 -1.13 0 -1.91 0.77 -0.77 0.75 -0.84 2.02m9.14 5.77v-9.67h1.47v1.38q1.06 -1.59 3.08 -1.59 0.88 0 1.61 0.31t1.09 0.83q0.38 0.5 0.52 1.2 0.09 0.45 0.09 1.59v5.95h-1.64v-5.89q0 -1 -0.2 -1.49 -0.19 -0.5 -0.67 -0.8t-1.14 -0.3q-1.05 0 -1.81 0.67 -0.75 0.66 -0.75 2.52v5.28zm13.95 -1.47 0.23 1.45q-0.69 0.14 -1.23 0.14 -0.89 0 -1.39 -0.28 -0.49 -0.28 -0.69 -0.73 -0.2 -0.47 -0.2 -1.94v-5.58h-1.2v-1.27h1.2v-2.39l1.63 -0.99v3.38h1.66v1.27h-1.66v5.67q0 0.69 0.08 0.89t0.28 0.33q0.2 0.11 0.58 0.11 0.27 0 0.72 -0.06" fill-rule="nonzero"/>
    <path fill="#000000" d="m76.69 222.93 -5.17 -13.36h1.92l3.47 9.7q0.42 1.17 0.7 2.19 0.31 -1.09 0.72 -2.19l3.61 -9.7h1.8l-5.23 13.36zm14.02 -3.11 1.69 0.2q-0.41 1.48 -1.48 2.31 -1.08 0.81 -2.77 0.81 -2.13 0 -3.38 -1.3 -1.23 -1.31 -1.23 -3.67 0 -2.45 1.25 -3.8 1.27 -1.34 3.27 -1.34 1.94 0 3.16 1.33 1.24 1.31 1.24 3.7v0.44h-7.22q0.09 1.59 0.91 2.45 0.81 0.84 2.02 0.84 0.91 0 1.55 -0.47 0.64 -0.48 1.01 -1.52m-5.39 -2.66h5.41q-0.11 -1.22 -0.63 -1.83 -0.78 -0.95 -2.03 -0.95 -1.13 0 -1.91 0.77 -0.77 0.75 -0.84 2.02m9.14 5.77v-9.67h1.47v1.38q1.06 -1.59 3.08 -1.59 0.88 0 1.61 0.31t1.09 0.83q0.38 0.5 0.52 1.2 0.09 0.45 0.09 1.59v5.95h-1.64v-5.89q0 -1 -0.2 -1.49 -0.19 -0.5 -0.67 -0.8t-1.14 -0.3q-1.05 0 -1.81 0.67 -0.75 0.66 -0.75 2.52v5.28zm16.64 0v-1.22q-0.91 1.44 -2.7 1.44 -1.16 0 -2.13 -0.64t-1.5 -1.78 -0.53 -2.63q0 -1.45 0.48 -2.63 0.49 -1.19 1.44 -1.81 0.97 -0.63 2.17 -0.63 0.88 0 1.55 0.38 0.69 0.36 1.11 0.95v-4.8h1.64v13.36zm-5.17 -4.83q0 1.86 0.78 2.78t1.84 0.92q1.08 0 1.83 -0.88 0.75 -0.89 0.75 -2.69 0 -1.98 -0.77 -2.91 -0.77 -0.94 -1.89 -0.94 -1.08 0 -1.81 0.89t-0.73 2.81m8.67 -0.02q0 -2.69 1.49 -3.97 1.25 -1.08 3.05 -1.08 2 0 3.27 1.31 1.27 1.3 1.27 3.61 0 1.86 -0.56 2.94 -0.56 1.06 -1.64 1.66 -1.06 0.59 -2.33 0.59 -2.03 0 -3.28 -1.3 -1.25 -1.31 -1.25 -3.77m1.69 0q0 1.86 0.8 2.8 0.81 0.92 2.05 0.92 1.22 0 2.03 -0.92 0.81 -0.94 0.81 -2.84 0 -1.8 -0.81 -2.72t-2.03 -0.92 -2.05 0.92q-0.8 0.91 -0.8 2.77m9.28 4.84v-9.67h1.47v1.47q0.56 -1.03 1.03 -1.36 0.48 -0.33 1.06 -0.33 0.83 0 1.69 0.53l-0.56 1.52q-0.61 -0.36 -1.2 -0.36 -0.55 0 -0.97 0.33t-0.61 0.89q-0.28 0.88 -0.28 1.92v5.06zm5.57 -2.89 1.63 -0.25q0.13 0.97 0.75 1.5 0.63 0.52 1.75 0.52t1.67 -0.45q0.55 -0.47 0.55 -1.09 0 -0.55 -0.48 -0.88 -0.33 -0.22 -1.67 -0.55 -1.81 -0.47 -2.52 -0.8 -0.69 -0.33 -1.05 -0.91 -0.36 -0.59 -0.36 -1.31 0 -0.64 0.3 -1.19 0.3 -0.56 0.81 -0.92 0.38 -0.28 1.03 -0.47 0.67 -0.2 1.42 -0.2 1.14 0 2 0.33t1.27 0.89 0.58 1.5l-1.61 0.22q-0.11 -0.75 -0.64 -1.17 -0.52 -0.42 -1.47 -0.42 -1.14 0 -1.62 0.38 -0.47 0.38 -0.47 0.88 0 0.31 0.19 0.58 0.2 0.27 0.64 0.44 0.24 0.09 1.44 0.42 1.75 0.45 2.44 0.75t1.08 0.86 0.39 1.41q0 0.83 -0.48 1.55 -0.47 0.72 -1.38 1.13 -0.91 0.39 -2.05 0.39 -1.88 0 -2.88 -0.78t-1.25 -2.33" fill-rule="nonzero"/>
    <path fill="#cfe2f3" d="M170.87 65.16c0 -20.97 68.92 -37.97 153.94 -37.97s153.94 17 153.94 37.97 -68.92 37.97 -153.94 37.97 -153.94 -17 -153.94 -37.97" fill-rule="evenodd"/>
    <path stroke="#000000" stroke-width="1" stroke-linejoin="round" stroke-linecap="butt" d="M170.87 65.16c0 -20.97 68.92 -37.97 153.94 -37.97s153.94 17 153.94 37.97 -68.92 37.97 -153.94 37.97 -153.94 -17 -153.94 -37.97z" fill-rule="evenodd"/>
    <path fill="#000000" d="m238.8 56.4 1.77 0.45q-0.56 2.17 -2 3.33 -1.44 1.14 -3.53 1.14 -2.16 0 -3.52 -0.88 -1.34 -0.89 -2.06 -2.55 -0.7 -1.67 -0.7 -3.59 0 -2.08 0.8 -3.63 0.8 -1.56 2.27 -2.36 1.48 -0.81 3.25 -0.81 2 0 3.36 1.01 1.37 1.02 1.91 2.88l-1.74 0.41q-0.47 -1.45 -1.36 -2.11 -0.87 -0.67 -2.2 -0.67 -1.55 0 -2.58 0.73t-1.45 1.98q-0.42 1.23 -0.42 2.56 0 1.7 0.5 2.97t1.55 1.91q1.05 0.63 2.27 0.63 1.48 0 2.52 -0.86 1.03 -0.86 1.39 -2.55m3.13 -0.16q0 -2.69 1.48 -3.97 1.25 -1.08 3.05 -1.08 2 0 3.27 1.31 1.27 1.3 1.27 3.61 0 1.86 -0.56 2.94 -0.56 1.06 -1.64 1.66 -1.06 0.59 -2.33 0.59 -2.03 0 -3.28 -1.3 -1.25 -1.31 -1.25 -3.77m1.69 0q0 1.86 0.8 2.8 0.81 0.92 2.05 0.92 1.22 0 2.03 -0.92 0.81 -0.94 0.81 -2.84 0 -1.8 -0.81 -2.72t-2.03 -0.92q-1.24 0 -2.05 0.92 -0.8 0.91 -0.8 2.77m9.3 4.84v-9.66h1.47v1.38q1.06 -1.59 3.08 -1.59 0.88 0 1.61 0.31t1.09 0.83q0.38 0.5 0.52 1.2 0.09 0.45 0.09 1.59v5.95h-1.64v-5.89q0 -1 -0.2 -1.49 -0.19 -0.5 -0.67 -0.8t-1.14 -0.3q-1.05 0 -1.81 0.67 -0.75 0.66 -0.75 2.52v5.28zm10.77 0v-8.41h-1.45v-1.27h1.45v-1.01q0 -0.97 0.17 -1.45 0.23 -0.64 0.83 -1.03 0.59 -0.39 1.67 -0.39 0.69 0 1.53 0.16l-0.25 1.44q-0.5 -0.09 -0.95 -0.09 -0.75 0 -1.06 0.33 -0.31 0.31 -0.31 1.19v0.89h1.89v1.27h-1.89v8.41zm4.79 -11.47v-1.89h1.64v1.89zm0 11.47v-9.66h1.64v9.67zm10.41 0v-1.22q-0.91 1.44 -2.7 1.44 -1.16 0 -2.13 -0.64t-1.5 -1.78 -0.53 -2.63q0 -1.45 0.48 -2.63t1.44 -1.81q0.97 -0.63 2.17 -0.63 0.88 0 1.55 0.38 0.69 0.36 1.11 0.95v-4.8h1.64v13.36zm-5.17 -4.83q0 1.86 0.78 2.78t1.84 0.92q1.08 0 1.83 -0.88 0.75 -0.89 0.75 -2.69 0 -1.98 -0.77 -2.91 -0.77 -0.94 -1.89 -0.94 -1.08 0 -1.81 0.89t-0.73 2.81m15.91 1.72 1.69 0.2q-0.41 1.49 -1.49 2.31 -1.08 0.81 -2.77 0.81 -2.13 0 -3.38 -1.3 -1.24 -1.31 -1.24 -3.67 0 -2.45 1.25 -3.8 1.27 -1.34 3.27 -1.34 1.94 0 3.16 1.33 1.23 1.31 1.23 3.7v0.44h-7.22q0.09 1.59 0.91 2.45 0.81 0.84 2.02 0.84 0.91 0 1.55 -0.47 0.64 -0.48 1.02 -1.52m-5.39 -2.66h5.41q-0.11 -1.22 -0.63 -1.83 -0.78 -0.95 -2.03 -0.95 -1.13 0 -1.91 0.77 -0.77 0.75 -0.84 2.02m9.14 5.77v-9.63h1.47v1.38q1.06 -1.59 3.08 -1.59 0.88 0 1.61 0.31t1.09 0.83q0.38 0.5 0.52 1.2 0.09 0.45 0.09 1.59v5.95h-1.64v-5.89q0 -1 -0.2 -1.49 -0.19 -0.5 -0.67 -0.8t-1.14 -0.3q-1.05 0 -1.81 0.67 -0.75 0.66 -0.75 2.52v5.28zm13.96 -1.47 0.23 1.45q-0.69 0.14 -1.23 0.14 -0.89 0 -1.39 -0.28 -0.49 -0.28 -0.69 -0.73 -0.2 -0.47 -0.2 -1.94v-5.58h-1.2v-1.27h1.2v-2.39l1.63 -0.99v3.38h1.66v1.27h-1.66v5.67q0 0.69 0.08 0.89t0.28 0.33q0.2 0.11 0.58 0.11 0.27 0 0.72 -0.06m1.61 -10v-1.89h1.64v1.89zm0 11.47v-9.63h1.64v9.67zm10.46 -1.19q-0.92 0.77 -1.76 1.09 -0.83 0.31 -1.8 0.31 -1.59 0 -2.45 -0.78t-0.86 -1.99q0 -0.72 0.33 -1.3t0.84 -0.94q0.53 -0.36 1.19 -0.55 0.47 -0.13 1.45 -0.25 1.98 -0.24 2.92 -0.56l0.02 -0.42q0 -1 -0.47 -1.42 -0.63 -0.55 -1.88 -0.55 -1.16 0 -1.7 0.41t-0.81 1.42l-1.61 -0.22q0.22 -1.01 0.72 -1.64 0.5 -0.64 1.45 -0.98t2.19 -0.34 2.02 0.3q0.78 0.28 1.14 0.73 0.38 0.44 0.52 1.11 0.08 0.42 0.08 1.51v2.19q0 2.28 0.11 2.89 0.11 0.59 0.41 1.16h-1.7q-0.27 -0.52 -0.33 -1.19m-0.14 -3.67q-0.89 0.38 -2.67 0.63 -1.02 0.14 -1.44 0.33t-0.66 0.53q-0.22 0.34 -0.22 0.78 0 0.66 0.5 1.09 0.5 0.44 1.45 0.44t1.67 -0.41q0.75 -0.42 1.09 -1.14 0.27 -0.56 0.27 -1.64zm4.16 4.86V47.67h1.64v13.36zm7.08 0 5.13 -13.36h1.91l5.47 13.36h-2.02l-1.55 -4.05h-5.59l-1.47 4.05zm3.86 -5.49h4.53l-1.41 -3.7q-0.63 -1.69 -0.94 -2.77 -0.27 1.28 -0.72 2.55zm9.85 9.19V51.41h1.48v1.25q0.53 -0.73 1.19 -1.09 0.67 -0.38 1.63 -0.38 1.23 0 2.17 0.64 0.95 0.63 1.44 1.8t0.49 2.55q0 1.49 -0.53 2.67t-1.55 1.83q-1.02 0.63 -2.14 0.63 -0.81 0 -1.47 -0.34t-1.06 -0.88v4.7zm1.48 -8.49q0 1.86 0.75 2.77 0.77 0.89 1.83 0.89 1.09 0 1.88 -0.92 0.78 -0.94 0.78 -2.88 0 -1.84 -0.77 -2.77 -0.75 -0.92 -1.81 -0.92 -1.05 0 -1.86 0.99 -0.8 0.97 -0.8 2.84m8.89 8.49V51.41h1.49v1.25q0.53 -0.73 1.19 -1.09 0.67 -0.38 1.63 -0.38 1.23 0 2.17 0.64 0.95 0.63 1.44 1.8t0.49 2.55q0 1.49 -0.53 2.67t-1.55 1.83q-1.01 0.63 -2.14 0.63 -0.81 0 -1.47 -0.34t-1.06 -0.88v4.7zm1.49 -8.49q0 1.86 0.75 2.77 0.77 0.89 1.83 0.89 1.09 0 1.88 -0.92 0.78 -0.94 0.78 -2.88 0 -1.84 -0.77 -2.77 -0.75 -0.92 -1.81 -0.92 -1.05 0 -1.86 0.99 -0.8 0.97 -0.8 2.84m8.85 4.78V47.66h1.64v13.36zm4.19 -11.47v-1.89h1.64v1.89zm0 11.47v-9.61h1.64v9.67zm10.46 -3.55 1.61 0.22q-0.27 1.66 -1.36 2.61 -1.08 0.94 -2.67 0.94 -1.99 0 -3.19 -1.3t-1.2 -3.72q0 -1.58 0.52 -2.75t1.58 -1.75q1.06 -0.59 2.31 -0.59 1.58 0 2.58 0.8t1.28 2.27l-1.59 0.23q-0.23 -0.97 -0.81 -1.45 -0.58 -0.5 -1.39 -0.5 -1.23 0 -2.02 0.89 -0.78 0.89 -0.78 2.81 0 1.95 0.75 2.84t1.95 0.88q0.97 0 1.61 -0.59 0.66 -0.59 0.83 -1.83m9.33 2.36q-0.92 0.77 -1.77 1.09 -0.83 0.31 -1.8 0.31 -1.59 0 -2.45 -0.78t-0.86 -1.99q0 -0.72 0.33 -1.3t0.84 -0.94q0.53 -0.36 1.19 -0.55 0.47 -0.13 1.45 -0.25 1.99 -0.24 2.92 -0.56l0.02 -0.42q0 -1 -0.47 -1.42 -0.63 -0.55 -1.88 -0.55 -1.16 0 -1.7 0.41t-0.81 1.42l-1.61 -0.22q0.22 -1.01 0.72 -1.64 0.5 -0.64 1.45 -0.98t2.19 -0.34q1.25 0 2.02 0.3 0.78 0.28 1.14 0.73 0.38 0.44 0.52 1.11 0.08 0.42 0.08 1.51v2.19q0 2.28 0.11 2.89 0.11 0.59 0.41 1.16h-1.7q-0.27 -0.52 -0.33 -1.19m-0.14 -3.67q-0.89 0.38 -2.67 0.63 -1.01 0.14 -1.44 0.33t-0.66 0.53q-0.22 0.34 -0.22 0.78 0 0.66 0.5 1.09 0.5 0.44 1.45 0.44t1.67 -0.41q0.75 -0.42 1.09 -1.14 0.27 -0.56 0.27 -1.64zm7.78 3.39 0.24 1.45q-0.69 0.14 -1.24 0.14 -0.89 0 -1.39 -0.28 -0.49 -0.28 -0.69 -0.73 -0.2 -0.47 -0.2 -1.94v-5.58h-1.2v-1.27h1.2v-2.39l1.63 -0.99v3.38h1.66v1.27h-1.66v5.67q0 0.69 0.08 0.89t0.28 0.33q0.2 0.11 0.58 0.11 0.27 0 0.72 -0.06m1.61 -10v-1.89h1.64v1.89zm0 11.47v-9.61h1.64v9.67zm3.54 -4.84q0 -2.69 1.48 -3.97 1.25 -1.08 3.05 -1.08 2 0 3.27 1.31 1.27 1.3 1.27 3.61 0 1.86 -0.56 2.94 -0.56 1.06 -1.64 1.66 -1.06 0.59 -2.33 0.59 -2.03 0 -3.28 -1.3 -1.25 -1.31 -1.25 -3.77m1.69 0q0 1.86 0.8 2.8 0.81 0.92 2.05 0.92 1.22 0 2.03 -0.92 0.81 -0.94 0.81 -2.84 0 -1.8 -0.81 -2.72t-2.03 -0.92q-1.24 0 -2.05 0.92 -0.8 0.91 -0.8 2.77m9.3 4.84v-9.61h1.47v1.38q1.06 -1.59 3.08 -1.59 0.88 0 1.61 0.31t1.09 0.83q0.38 0.5 0.52 1.2 0.09 0.45 0.09 1.59v5.95h-1.64v-5.89q0 -1 -0.2 -1.49 -0.19 -0.5 -0.67 -0.8t-1.14 -0.3q-1.05 0 -1.81 0.67 -0.75 0.66 -0.75 2.52v5.28z" fill-rule="nonzero"/>
    <path fill="#000000" d="M234.99 83.08V69.72h4.61q1.55 0 2.38 0.2 1.14 0.25 1.95 0.95 1.06 0.89 1.58 2.28t0.53 3.17q0 1.51 -0.36 2.7 -0.36 1.17 -0.92 1.94 -0.55 0.77 -1.2 1.22 -0.66 0.44 -1.59 0.67 -0.94 0.22 -2.14 0.22zm1.76 -1.58h2.86q1.31 0 2.06 -0.24 0.75 -0.25 1.2 -0.7 0.63 -0.63 0.97 -1.69 0.36 -1.06 0.36 -2.58 0 -2.09 -0.69 -3.22t-1.67 -1.5q-0.7 -0.28 -2.28 -0.28h-2.81zm18.13 -1.53 1.69 0.2q-0.41 1.49 -1.49 2.31 -1.08 0.81 -2.77 0.81 -2.13 0 -3.38 -1.3 -1.24 -1.31 -1.24 -3.67 0 -2.45 1.25 -3.8 1.27 -1.34 3.27 -1.34 1.94 0 3.16 1.33 1.24 1.31 1.24 3.7v0.44h-7.22q0.09 1.59 0.91 2.45 0.81 0.84 2.02 0.84 0.91 0 1.55 -0.47 0.64 -0.48 1.01 -1.52m-5.39 -2.66h5.41q-0.11 -1.22 -0.63 -1.83 -0.78 -0.95 -2.03 -0.95 -1.13 0 -1.91 0.77 -0.77 0.75 -0.84 2.02m11.83 5.77 -3.69 -9.67h1.73l2.08 5.8q0.33 0.94 0.63 1.94 0.2 -0.77 0.61 -1.83l2.14 -5.91h1.69l-3.66 9.67zm13.27 -3.11 1.69 0.2q-0.41 1.49 -1.49 2.31 -1.08 0.81 -2.77 0.81 -2.13 0 -3.38 -1.3 -1.24 -1.31 -1.24 -3.67 0 -2.45 1.25 -3.8 1.27 -1.34 3.27 -1.34 1.94 0 3.16 1.33 1.24 1.31 1.24 3.7v0.44h-7.22q0.1 1.59 0.91 2.45 0.81 0.84 2.02 0.84 0.91 0 1.55 -0.47 0.64 -0.48 1.01 -1.52m-5.39 -2.66h5.41q-0.11 -1.22 -0.63 -1.83 -0.78 -0.95 -2.03 -0.95 -1.13 0 -1.91 0.77 -0.77 0.75 -0.84 2.02m9.09 5.77V69.7h1.64v13.36zm3.58 -4.84q0 -2.69 1.49 -3.97 1.25 -1.08 3.05 -1.08 2 0 3.27 1.31 1.27 1.3 1.27 3.61 0 1.86 -0.56 2.94 -0.56 1.06 -1.64 1.66 -1.06 0.59 -2.33 0.59 -2.03 0 -3.28 -1.3 -1.25 -1.31 -1.25 -3.77m1.69 0q0 1.86 0.8 2.8 0.81 0.92 2.05 0.92 1.22 0 2.03 -0.92 0.81 -0.94 0.81 -2.84 0 -1.8 -0.81 -2.72t-2.03 -0.92q-1.24 0 -2.05 0.92 -0.8 0.91 -0.8 2.77m9.3 8.55V73.41h1.49v1.25q0.53 -0.73 1.19 -1.09 0.67 -0.38 1.63 -0.38 1.24 0 2.17 0.64 0.95 0.63 1.44 1.8t0.48 2.55q0 1.49 -0.53 2.67t-1.55 1.83q-1.02 0.63 -2.14 0.63 -0.81 0 -1.47 -0.34t-1.06 -0.88v4.7zm1.49 -8.49q0 1.86 0.75 2.77 0.77 0.89 1.83 0.89 1.09 0 1.88 -0.92 0.78 -0.94 0.78 -2.88 0 -1.84 -0.77 -2.77 -0.75 -0.92 -1.81 -0.92 -1.05 0 -1.86 0.99 -0.8 0.97 -0.8 2.84m15.52 1.67 1.69 0.2q-0.41 1.49 -1.49 2.31 -1.08 0.81 -2.77 0.81 -2.13 0 -3.38 -1.3 -1.24 -1.31 -1.24 -3.67 0 -2.45 1.25 -3.8 1.27 -1.34 3.27 -1.34 1.94 0 3.16 1.33 1.24 1.31 1.24 3.7v0.44h-7.22q0.1 1.59 0.91 2.45 0.81 0.84 2.02 0.84 0.91 0 1.55 -0.47 0.64 -0.48 1.01 -1.52m-5.39 -2.66h5.41q-0.11 -1.22 -0.63 -1.83 -0.78 -0.95 -2.03 -0.95 -1.13 0 -1.91 0.77 -0.77 0.75 -0.84 2.02m9.13 5.77v-9.64h1.47v1.47q0.56 -1.03 1.03 -1.36 0.49 -0.33 1.06 -0.33 0.83 0 1.69 0.53l-0.56 1.52q-0.61 -0.36 -1.2 -0.36 -0.55 0 -0.97 0.33t-0.61 0.89q-0.28 0.88 -0.28 1.92v5.06zm5.57 -2.89 1.63 -0.25q0.13 0.97 0.75 1.5 0.63 0.52 1.75 0.52t1.67 -0.45q0.55 -0.47 0.55 -1.09 0 -0.55 -0.48 -0.88 -0.33 -0.22 -1.67 -0.55 -1.81 -0.47 -2.52 -0.8 -0.69 -0.33 -1.05 -0.91 -0.36 -0.59 -0.36 -1.31 0 -0.64 0.3 -1.19 0.3 -0.56 0.81 -0.92 0.38 -0.28 1.03 -0.47 0.67 -0.2 1.42 -0.2 1.14 0 2 0.33t1.27 0.89q0.42 0.56 0.58 1.5l-1.61 0.22q-0.11 -0.75 -0.64 -1.17 -0.52 -0.42 -1.47 -0.42 -1.14 0 -1.63 0.38 -0.47 0.38 -0.47 0.88 0 0.31 0.19 0.58 0.2 0.27 0.64 0.44 0.24 0.09 1.44 0.42 1.75 0.45 2.44 0.75t1.08 0.86 0.39 1.41q0 0.83 -0.48 1.55 -0.47 0.72 -1.38 1.13 -0.91 0.39 -2.05 0.39 -1.88 0 -2.88 -0.78 -0.98 -0.78 -1.25 -2.33m8.75 3.12 3.88 -13.81h1.31l-3.86 13.81zm6.57 -0.23V69.72h2.66l3.16 9.45q0.44 1.33 0.64 1.99l0.7 -2.14 3.2 -9.3h2.38v13.36h-1.7V71.91l-3.88 11.17h-1.59l-3.86 -11.37v11.37zm21.7 -1.19q-0.92 0.77 -1.76 1.09 -0.83 0.31 -1.8 0.31 -1.59 0 -2.45 -0.78t-0.86 -1.99q0 -0.72 0.33 -1.3t0.84 -0.94q0.53 -0.36 1.19 -0.55 0.47 -0.13 1.45 -0.25 1.98 -0.24 2.92 -0.56l0.02 -0.42q0 -1 -0.47 -1.42 -0.63 -0.55 -1.88 -0.55 -1.16 0 -1.7 0.41t-0.81 1.42l-1.61 -0.22q0.22 -1.01 0.72 -1.64 0.5 -0.64 1.45 -0.98t2.19 -0.34q1.25 0 2.02 0.3 0.78 0.28 1.14 0.73 0.38 0.44 0.52 1.11 0.08 0.42 0.08 1.51v2.19q0 2.28 0.11 2.89 0.11 0.59 0.41 1.16h-1.7q-0.27 -0.52 -0.33 -1.19m-0.14 -3.67q-0.89 0.38 -2.67 0.63 -1.02 0.14 -1.44 0.33t-0.66 0.53q-0.22 0.34 -0.22 0.78 0 0.66 0.5 1.09 0.5 0.44 1.45 0.44t1.67 -0.41q0.75 -0.42 1.09 -1.14 0.27 -0.56 0.27 -1.64zm4.2 4.86v-9.66h1.47v1.38q1.06 -1.59 3.08 -1.59 0.88 0 1.61 0.31t1.09 0.83q0.38 0.5 0.52 1.2 0.09 0.45 0.09 1.59v5.95h-1.64v-5.89q0 -1 -0.2 -1.49 -0.19 -0.5 -0.67 -0.8t-1.14 -0.3q-1.05 0 -1.81 0.67 -0.75 0.66 -0.75 2.52v5.28zm16.69 -1.19q-0.92 0.77 -1.77 1.09 -0.83 0.31 -1.8 0.31 -1.59 0 -2.45 -0.78t-0.86 -1.99q0 -0.72 0.33 -1.3t0.84 -0.94q0.53 -0.36 1.19 -0.55 0.47 -0.13 1.45 -0.25 1.99 -0.24 2.92 -0.56l0.02 -0.42q0 -1 -0.47 -1.42 -0.63 -0.55 -1.88 -0.55 -1.16 0 -1.7 0.41t-0.81 1.42l-1.61 -0.22q0.22 -1.01 0.72 -1.64 0.5 -0.64 1.45 -0.98t2.19 -0.34q1.25 0 2.02 0.3 0.78 0.28 1.14 0.73 0.38 0.44 0.52 1.11 0.08 0.42 0.08 1.51v2.19q0 2.28 0.11 2.89 0.11 0.59 0.41 1.16h-1.7q-0.27 -0.52 -0.33 -1.19m-0.14 -3.67q-0.89 0.38 -2.67 0.63 -1.01 0.14 -1.44 0.33t-0.66 0.53q-0.22 0.34 -0.22 0.78 0 0.66 0.5 1.09 0.5 0.44 1.45 0.44t1.67 -0.41q0.75 -0.42 1.09 -1.14 0.27 -0.56 0.27 -1.64zm3.89 5.66 1.59 0.23q0.11 0.75 0.56 1.08 0.61 0.45 1.67 0.45 1.14 0 1.75 -0.45 0.63 -0.45 0.84 -1.27 0.13 -0.5 0.11 -2.11 -1.06 1.27 -2.67 1.27 -2 0 -3.09 -1.44t-1.09 -3.45q0 -1.39 0.5 -2.56 0.52 -1.17 1.45 -1.8 0.95 -0.64 2.25 -0.64 1.7 0 2.81 1.37v-1.16h1.52v8.36q0 2.27 -0.47 3.2 -0.45 0.94 -1.45 1.49t-2.45 0.55q-1.72 0 -2.8 -0.78 -1.06 -0.77 -1.03 -2.34m1.36 -5.81q0 1.91 0.75 2.78 0.77 0.88 1.91 0.88 1.13 0 1.89 -0.86 0.77 -0.88 0.77 -2.73 0 -1.78 -0.8 -2.67 -0.78 -0.91 -1.89 -0.91 -1.09 0 -1.86 0.89 -0.77 0.88 -0.77 2.63m15.95 1.91 1.69 0.2q-0.41 1.49 -1.48 2.31 -1.08 0.81 -2.77 0.81 -2.13 0 -3.38 -1.3 -1.23 -1.31 -1.23 -3.67 0 -2.45 1.25 -3.8 1.27 -1.34 3.27 -1.34 1.94 0 3.16 1.33 1.23 1.31 1.23 3.7v0.44h-7.22q0.09 1.59 0.91 2.45 0.81 0.84 2.02 0.84 0.91 0 1.55 -0.47 0.64 -0.48 1.02 -1.52m-5.39 -2.66h5.41q-0.11 -1.22 -0.63 -1.83 -0.78 -0.95 -2.03 -0.95 -1.13 0 -1.91 0.77 -0.77 0.75 -0.84 2.02m9.13 5.77v-9.66h1.47v1.47q0.56 -1.03 1.03 -1.36 0.48 -0.33 1.06 -0.33 0.83 0 1.69 0.53l-0.56 1.52q-0.61 -0.36 -1.2 -0.36 -0.55 0 -0.97 0.33t-0.61 0.89q-0.28 0.88 -0.28 1.92v5.06zm5.57 -2.89 1.63 -0.25q0.13 0.97 0.75 1.5 0.63 0.52 1.75 0.52t1.67 -0.45q0.55 -0.47 0.55 -1.09 0 -0.55 -0.49 -0.88 -0.33 -0.22 -1.67 -0.55 -1.81 -0.47 -2.52 -0.8 -0.69 -0.33 -1.05 -0.91 -0.36 -0.59 -0.36 -1.31 0 -0.64 0.3 -1.19 0.3 -0.56 0.81 -0.92 0.38 -0.28 1.03 -0.47 0.67 -0.2 1.42 -0.2 1.14 0 2 0.33t1.27 0.89q0.42 0.56 0.58 1.5l-1.61 0.22q-0.11 -0.75 -0.64 -1.17 -0.52 -0.42 -1.47 -0.42 -1.14 0 -1.62 0.38 -0.47 0.38 -0.47 0.88 0 0.31 0.19 0.58 0.2 0.27 0.64 0.44 0.24 0.09 1.44 0.42 1.75 0.45 2.44 0.75t1.08 0.86 0.39 1.41q0 0.83 -0.48 1.55 -0.47 0.72 -1.38 1.13 -0.91 0.39 -2.05 0.39 -1.88 0 -2.88 -0.78t-1.25 -2.33" fill-rule="nonzero"/>
    <path fill="#cfe2f3" d="M338.33 205.01c0 -20.97 38.65 -37.97 86.33 -37.97s86.33 17 86.33 37.97 -38.65 37.97 -86.33 37.97 -86.33 -17 -86.33 -37.97" fill-rule="evenodd"/>
    <path stroke="#000000" stroke-width="1" stroke-linejoin="round" stroke-linecap="butt" d="M338.33 205.01c0 -20.97 38.65 -37.97 86.33 -37.97s86.33 17 86.33 37.97 -38.65 37.97 -86.33 37.97 -86.33 -17 -86.33 -37.97z" fill-rule="evenodd"/>
    <path fill="#000000" d="m400.87 200.93 -5.17 -13.36h1.92l3.47 9.7q0.42 1.17 0.7 2.19 0.31 -1.09 0.72 -2.19l3.61 -9.7h1.8l-5.23 13.36zm14.02 -3.11 1.69 0.2q-0.41 1.49 -1.48 2.31 -1.08 0.81 -2.77 0.81 -2.13 0 -3.38 -1.3 -1.23 -1.31 -1.23 -3.67 0 -2.45 1.25 -3.8 1.27 -1.34 3.27 -1.34 1.94 0 3.16 1.33 1.24 1.31 1.24 3.7v0.44h-7.22q0.09 1.59 0.91 2.45 0.81 0.84 2.02 0.84 0.91 0 1.55 -0.47 0.64 -0.48 1.01 -1.51m-5.39 -2.66h5.41q-0.11 -1.22 -0.63 -1.83 -0.78 -0.95 -2.03 -0.95 -1.13 0 -1.91 0.77 -0.77 0.75 -0.84 2.02m9.13 5.77v-9.67h1.47v1.47q0.56 -1.03 1.03 -1.36 0.48 -0.33 1.06 -0.33 0.83 0 1.69 0.53l-0.56 1.52q-0.61 -0.36 -1.2 -0.36 -0.55 0 -0.97 0.33t-0.61 0.89q-0.28 0.88 -0.28 1.92v5.06zm6.23 -11.47v-1.89h1.64v1.89zm0 11.47v-9.67h1.64v9.67zm4.54 0v-8.41h-1.45v-1.27h1.45v-1.03q0 -0.97 0.17 -1.45 0.24 -0.64 0.83 -1.03t1.67 -0.39q0.69 0 1.53 0.16l-0.25 1.44q-0.5 -0.09 -0.95 -0.09 -0.75 0 -1.06 0.33 -0.31 0.31 -0.31 1.19v0.89h1.89v1.27h-1.89v8.41zm4.79 -11.47v-1.89h1.64v1.89zm0 11.47v-9.67h1.64v9.67zm10.77 -3.11 1.69 0.2q-0.41 1.49 -1.48 2.31 -1.08 0.81 -2.77 0.81 -2.13 0 -3.38 -1.3 -1.23 -1.31 -1.23 -3.67 0 -2.45 1.25 -3.8 1.27 -1.34 3.27 -1.34 1.94 0 3.16 1.33 1.23 1.31 1.23 3.7v0.44h-7.22q0.09 1.59 0.91 2.45 0.81 0.84 2.02 0.84 0.91 0 1.55 -0.47 0.64 -0.48 1.02 -1.51m-5.39 -2.66h5.41q-0.11 -1.22 -0.63 -1.83 -0.78 -0.95 -2.03 -0.95 -1.13 0 -1.91 0.77 -0.77 0.75 -0.84 2.02m9.13 5.77v-9.67h1.47v1.47q0.56 -1.03 1.03 -1.36 0.49 -0.33 1.06 -0.33 0.83 0 1.69 0.53l-0.56 1.52q-0.61 -0.36 -1.2 -0.36 -0.55 0 -0.97 0.33t-0.61 0.89q-0.28 0.88 -0.28 1.92v5.06z" fill-rule="nonzero"/>
    <path fill="#000000" d="M386.69 222.93v-13.36h5.05q1.33 0 2.03 0.13 0.97 0.17 1.64 0.64 0.67 0.45 1.08 1.28t0.41 1.83q0 1.7 -1.09 2.89 -1.08 1.17 -3.92 1.17h-3.42v5.42zm1.77 -7h3.45q1.72 0 2.44 -0.64t0.72 -1.8q0 -0.84 -0.42 -1.44t-1.13 -0.78q-0.44 -0.13 -1.64 -0.13h-3.42zm10.46 7v-9.67h1.47v1.47q0.56 -1.03 1.03 -1.36 0.49 -0.33 1.06 -0.33 0.83 0 1.69 0.53l-0.56 1.52q-0.61 -0.36 -1.2 -0.36 -0.55 0 -0.97 0.33t-0.61 0.89q-0.28 0.88 -0.28 1.92v5.06zm5.62 -4.84q0 -2.69 1.48 -3.97 1.25 -1.08 3.05 -1.08 2 0 3.27 1.31 1.27 1.3 1.27 3.61 0 1.86 -0.56 2.94 -0.56 1.06 -1.64 1.66 -1.06 0.59 -2.33 0.59 -2.03 0 -3.28 -1.3 -1.25 -1.31 -1.25 -3.77m1.69 0q0 1.86 0.8 2.8 0.81 0.92 2.05 0.92 1.22 0 2.03 -0.92 0.81 -0.94 0.81 -2.84 0 -1.8 -0.81 -2.72t-2.03 -0.92q-1.24 0 -2.05 0.92 -0.8 0.91 -0.8 2.77m11.98 4.84 -3.69 -9.67h1.73l2.08 5.8q0.33 0.94 0.63 1.94 0.2 -0.77 0.61 -1.83l2.14 -5.91h1.69l-3.66 9.67zm6.64 -11.47v-1.89h1.64v1.89zm0 11.47v-9.67h1.64v9.67zm10.41 0v-1.22q-0.91 1.44 -2.7 1.44 -1.16 0 -2.13 -0.64t-1.5 -1.78 -0.53 -2.63q0 -1.45 0.48 -2.63t1.44 -1.81q0.97 -0.63 2.17 -0.63 0.88 0 1.55 0.38 0.69 0.36 1.11 0.95v-4.8h1.64v13.36zm-5.17 -4.83q0 1.86 0.78 2.78t1.84 0.92q1.08 0 1.83 -0.88 0.75 -0.89 0.75 -2.69 0 -1.98 -0.77 -2.91 -0.77 -0.94 -1.89 -0.94 -1.08 0 -1.81 0.89t-0.73 2.81m15.91 1.72 1.69 0.2q-0.41 1.49 -1.48 2.31 -1.08 0.81 -2.77 0.81 -2.13 0 -3.38 -1.3 -1.23 -1.31 -1.23 -3.67 0 -2.45 1.25 -3.8 1.27 -1.34 3.27 -1.34 1.94 0 3.16 1.33 1.23 1.31 1.23 3.7v0.44h-7.22q0.09 1.59 0.91 2.45 0.81 0.84 2.02 0.84 0.91 0 1.55 -0.47 0.64 -0.48 1.02 -1.51m-5.39 -2.66h5.41q-0.11 -1.22 -0.63 -1.83 -0.78 -0.95 -2.03 -0.95 -1.13 0 -1.91 0.77 -0.77 0.75 -0.84 2.02m9.13 5.77v-9.67h1.47v1.47q0.56 -1.03 1.03 -1.36 0.48 -0.33 1.06 -0.33 0.83 0 1.69 0.53l-0.56 1.52q-0.61 -0.36 -1.2 -0.36 -0.55 0 -0.97 0.33t-0.61 0.89q-0.28 0.88 -0.28 1.92v5.06zm5.57 -2.89 1.63 -0.25q0.13 0.97 0.75 1.5 0.63 0.52 1.75 0.52t1.67 -0.45q0.55 -0.47 0.55 -1.09 0 -0.55 -0.48 -0.88 -0.33 -0.22 -1.67 -0.55 -1.81 -0.47 -2.52 -0.8 -0.69 -0.33 -1.05 -0.91 -0.36 -0.59 -0.36 -1.31 0 -0.64 0.3 -1.19 0.3 -0.56 0.81 -0.92 0.38 -0.28 1.03 -0.47 0.67 -0.2 1.42 -0.2 1.14 0 2 0.33t1.27 0.89q0.42 0.56 0.58 1.5l-1.61 0.22q-0.11 -0.75 -0.64 -1.17 -0.52 -0.42 -1.47 -0.42 -1.14 0 -1.62 0.38 -0.47 0.38 -0.47 0.88 0 0.31 0.19 0.58 0.2 0.27 0.64 0.44 0.24 0.09 1.44 0.42 1.75 0.45 2.44 0.75t1.08 0.86 0.39 1.41q0 0.83 -0.48 1.55 -0.47 0.72 -1.38 1.13 -0.91 0.39 -2.05 0.39 -1.88 0 -2.88 -0.78t-1.25 -2.33" fill-rule="nonzero"/>
    <path fill="#cfe2f3" d="M573.87 344.85c0 -20.97 55.7 -37.97 124.41 -37.97s124.41 17 124.41 37.97 -55.7 37.97 -124.41 37.97 -124.41 -17 -124.41 -37.97" fill-rule="evenodd"/>
    <path stroke="#000000" stroke-width="1" stroke-linejoin="round" stroke-linecap="butt" d="M573.87 344.85c0 -20.97 55.7 -37.97 124.41 -37.97s124.41 17 124.41 37.97 -55.7 37.97 -124.41 37.97 -124.41 -17 -124.41 -37.97z" fill-rule="evenodd"/>
    <path fill="#000000" d="m664.03 351.77 5.13 -13.36h1.91l5.47 13.36h-2.02l-1.55 -4.05h-5.59l-1.47 4.05zm3.86 -5.48h4.53l-1.41 -3.7q-0.63 -1.69 -0.94 -2.77 -0.27 1.28 -0.72 2.55zm16.18 5.48v-1.42q-1.13 1.64 -3.06 1.64 -0.86 0 -1.61 -0.33 -0.73 -0.33 -1.09 -0.83t-0.5 -1.22q-0.11 -0.47 -0.11 -1.53v-5.98h1.64v5.36q0 1.28 0.11 1.73 0.16 0.64 0.66 1.02t1.24 0.38q0.73 0 1.38 -0.38 0.66 -0.39 0.92 -1.03 0.27 -0.66 0.27 -1.89v-5.19h1.64v9.67zm10.31 0v-1.22q-0.91 1.44 -2.7 1.44 -1.16 0 -2.13 -0.64t-1.5 -1.78 -0.53 -2.63q0 -1.45 0.48 -2.63 0.49 -1.19 1.44 -1.81 0.97 -0.63 2.17 -0.63 0.88 0 1.55 0.38 0.69 0.36 1.11 0.95v-4.8h1.64v13.36zm-5.17 -4.83q0 1.86 0.78 2.78t1.84 0.92q1.08 0 1.83 -0.88 0.75 -0.89 0.75 -2.69 0 -1.98 -0.77 -2.91 -0.77 -0.94 -1.89 -0.94 -1.08 0 -1.81 0.89t-0.73 2.81m9.28 -6.64v-1.89h1.64v1.89zm0 11.47v-9.65h1.64v9.67zm7.72 -1.47 0.24 1.45q-0.69 0.14 -1.24 0.14 -0.89 0 -1.39 -0.28 -0.49 -0.28 -0.69 -0.73 -0.2 -0.47 -0.2 -1.94v-5.58h-1.2v-1.24h1.2v-2.39l1.63 -0.98v3.38h1.66v1.27h-1.66v5.67q0 0.69 0.08 0.89t0.28 0.33q0.2 0.11 0.58 0.11 0.27 0 0.72 -0.06m1 -3.38q0 -2.69 1.49 -3.97 1.25 -1.08 3.05 -1.08 2 0 3.27 1.31 1.27 1.3 1.27 3.61 0 1.86 -0.56 2.94 -0.56 1.06 -1.64 1.66 -1.06 0.59 -2.33 0.59 -2.03 0 -3.28 -1.3 -1.25 -1.31 -1.25 -3.77m1.69 0q0 1.86 0.8 2.8 0.81 0.92 2.05 0.92 1.22 0 2.03 -0.92 0.81 -0.94 0.81 -2.84 0 -1.8 -0.81 -2.72t-2.03 -0.92q-1.23 0 -2.05 0.92 -0.8 0.91 -0.8 2.77m9.28 4.84v-9.68h1.47v1.47q0.56 -1.03 1.03 -1.36 0.48 -0.33 1.06 -0.33 0.83 0 1.69 0.53l-0.56 1.52q-0.61 -0.36 -1.2 -0.36 -0.55 0 -0.97 0.33t-0.61 0.89q-0.28 0.88 -0.28 1.92v5.06zm5.57 -2.89 1.63 -0.25q0.13 0.97 0.75 1.5 0.63 0.52 1.75 0.52t1.67 -0.45q0.55 -0.47 0.55 -1.09 0 -0.55 -0.48 -0.88 -0.33 -0.22 -1.67 -0.55 -1.81 -0.47 -2.52 -0.8 -0.69 -0.33 -1.05 -0.91 -0.36 -0.59 -0.36 -1.31 0 -0.64 0.3 -1.19 0.3 -0.56 0.81 -0.92 0.38 -0.28 1.03 -0.47 0.67 -0.2 1.42 -0.2 1.14 0 2 0.33t1.27 0.89q0.42 0.56 0.58 1.5l-1.61 0.22q-0.11 -0.75 -0.64 -1.17 -0.52 -0.42 -1.47 -0.42 -1.14 0 -1.62 0.38 -0.47 0.38 -0.47 0.88 0 0.31 0.19 0.58 0.2 0.27 0.64 0.44 0.24 0.09 1.44 0.42 1.75 0.45 2.44 0.75t1.08 0.86 0.39 1.41q0 0.83 -0.48 1.55 -0.47 0.72 -1.38 1.13 -0.91 0.39 -2.05 0.39 -1.88 0 -2.88 -0.78t-1.25 -2.33" fill-rule="nonzero"/>
    <path fill="#cfe2f3" d="M573.87 65.16c0 -20.97 55.7 -37.97 124.41 -37.97s124.41 17 124.41 37.97 -55.7 37.97 -124.41 37.97 -124.41 -17 -124.41 -37.97" fill-rule="evenodd"/>
    <path stroke="#000000" stroke-width="1" stroke-linejoin="round" stroke-linecap="butt" d="M573.87 65.16c0 -20.97 55.7 -37.97 124.41 -37.97s124.41 17 124.41 37.97 -55.7 37.97 -124.41 37.97 -124.41 -17 -124.41 -37.97z" fill-rule="evenodd"/>
    <path fill="#000000" d="m638.98 56.79 1.66 -0.14q0.13 1 0.55 1.64 0.44 0.64 1.34 1.05 0.92 0.39 2.06 0.39 1 0 1.78 -0.3t1.16 -0.81q0.38 -0.53 0.38 -1.16t-0.38 -1.09q-0.36 -0.47 -1.19 -0.8 -0.55 -0.2 -2.39 -0.64 -1.83 -0.45 -2.56 -0.84 -0.97 -0.5 -1.44 -1.24 -0.47 -0.75 -0.47 -1.67 0 -1 0.58 -1.88 0.58 -0.89 1.67 -1.34 1.11 -0.45 2.45 -0.45 1.49 0 2.61 0.48 1.14 0.47 1.75 1.41 0.61 0.92 0.66 2.09l-1.69 0.13q-0.14 -1.27 -0.94 -1.91 -0.78 -0.66 -2.31 -0.66 -1.61 0 -2.34 0.59t-0.73 1.42q0 0.72 0.53 1.17 0.5 0.47 2.66 0.97 2.16 0.48 2.95 0.84 1.17 0.53 1.72 1.36 0.56 0.83 0.56 1.91 0 1.06 -0.61 2.02 -0.61 0.94 -1.75 1.47t-2.58 0.52q-1.81 0 -3.05 -0.53 -1.22 -0.53 -1.92 -1.59 -0.69 -1.06 -0.72 -2.41m19.46 1.19 1.69 0.2q-0.41 1.49 -1.49 2.31 -1.08 0.81 -2.77 0.81 -2.13 0 -3.38 -1.3 -1.24 -1.31 -1.24 -3.67 0 -2.45 1.25 -3.8 1.27 -1.34 3.27 -1.34 1.94 0 3.16 1.33 1.24 1.31 1.24 3.7v0.44h-7.22q0.09 1.59 0.91 2.45 0.81 0.84 2.02 0.84 0.91 0 1.55 -0.47 0.64 -0.48 1.01 -1.52m-5.39 -2.66h5.41q-0.11 -1.22 -0.63 -1.83 -0.78 -0.95 -2.03 -0.95 -1.13 0 -1.91 0.77 -0.77 0.75 -0.84 2.02m9.14 5.77v-9.67h1.47v1.38q1.06 -1.59 3.08 -1.59 0.88 0 1.61 0.31t1.09 0.83q0.38 0.5 0.52 1.2 0.09 0.45 0.09 1.59v5.95h-1.64v-5.89q0 -1 -0.2 -1.49 -0.19 -0.5 -0.67 -0.8t-1.14 -0.3q-1.05 0 -1.81 0.67 -0.75 0.66 -0.75 2.52v5.28zm9.72 -2.89 1.62 -0.25q0.13 0.97 0.75 1.5 0.63 0.52 1.75 0.52t1.67 -0.45q0.55 -0.47 0.55 -1.09 0 -0.55 -0.48 -0.88 -0.33 -0.22 -1.67 -0.55 -1.81 -0.47 -2.52 -0.8 -0.69 -0.33 -1.05 -0.91 -0.36 -0.59 -0.36 -1.31 0 -0.64 0.3 -1.19 0.3 -0.56 0.81 -0.92 0.38 -0.28 1.03 -0.47 0.67 -0.2 1.42 -0.2 1.14 0 2 0.33t1.27 0.89q0.42 0.56 0.58 1.5l-1.61 0.22q-0.11 -0.75 -0.64 -1.17 -0.52 -0.42 -1.47 -0.42 -1.14 0 -1.62 0.38 -0.47 0.38 -0.47 0.88 0 0.31 0.19 0.58 0.2 0.27 0.64 0.44 0.23 0.09 1.44 0.42 1.75 0.45 2.44 0.75t1.08 0.86 0.39 1.41q0 0.83 -0.48 1.55 -0.47 0.72 -1.38 1.13 -0.91 0.39 -2.05 0.39 -1.88 0 -2.88 -0.78 -0.98 -0.78 -1.25 -2.33m9.98 -8.58v-1.89h1.64v1.89zm0 11.47v-9.7h1.64v9.67zm7.72 -1.47 0.23 1.45q-0.69 0.14 -1.23 0.14 -0.89 0 -1.39 -0.28 -0.49 -0.28 -0.69 -0.73 -0.2 -0.47 -0.2 -1.94V52.7h-1.2v-1.27h1.2v-2.39l1.63 -0.99v3.38h1.66v1.27h-1.66v5.67q0 0.69 0.08 0.89t0.28 0.33q0.2 0.11 0.58 0.11 0.27 0 0.72 -0.06m1.61 -10v-1.89h1.64v1.89zm0 11.47v-9.7h1.64v9.67zm6.83 0 -3.69 -9.67h1.73l2.08 5.8q0.33 0.94 0.63 1.94 0.2 -0.77 0.61 -1.83l2.14 -5.91h1.69l-3.66 9.67zm13.27 -3.11 1.69 0.2q-0.41 1.49 -1.48 2.31 -1.08 0.81 -2.77 0.81 -2.13 0 -3.38 -1.3 -1.23 -1.31 -1.23 -3.67 0 -2.45 1.25 -3.8 1.27 -1.34 3.27 -1.34 1.94 0 3.16 1.33 1.23 1.31 1.23 3.7v0.44h-7.22q0.09 1.59 0.91 2.45 0.81 0.84 2.02 0.84 0.91 0 1.55 -0.47 0.64 -0.48 1.02 -1.52m-5.39 -2.66h5.41q-0.11 -1.22 -0.63 -1.83 -0.78 -0.95 -2.03 -0.95 -1.13 0 -1.91 0.77 -0.77 0.75 -0.84 2.02m14.53 5.77V47.74h4.61q1.55 0 2.37 0.2 1.14 0.25 1.95 0.95 1.06 0.89 1.58 2.28t0.53 3.17q0 1.51 -0.36 2.7 -0.36 1.17 -0.92 1.94 -0.55 0.77 -1.2 1.22 -0.66 0.44 -1.59 0.67 -0.94 0.22 -2.14 0.22zm1.77 -1.58h2.86q1.31 0 2.06 -0.24 0.75 -0.25 1.2 -0.7 0.63 -0.63 0.97 -1.69 0.36 -1.06 0.36 -2.58 0 -2.09 -0.69 -3.22t-1.67 -1.5q-0.7 -0.28 -2.28 -0.28h-2.81zm17.82 0.39q-0.92 0.77 -1.76 1.09 -0.83 0.31 -1.8 0.31 -1.59 0 -2.45 -0.78t-0.86 -1.99q0 -0.72 0.33 -1.3t0.84 -0.94q0.53 -0.36 1.19 -0.55 0.47 -0.13 1.45 -0.25 1.98 -0.24 2.92 -0.56l0.02 -0.42q0 -1 -0.47 -1.42 -0.63 -0.55 -1.88 -0.55 -1.16 0 -1.7 0.41t-0.81 1.42l-1.61 -0.22q0.22 -1.01 0.72 -1.64 0.5 -0.64 1.45 -0.98t2.19 -0.34q1.25 0 2.02 0.3 0.78 0.28 1.14 0.73 0.38 0.44 0.52 1.11 0.08 0.42 0.08 1.51v2.19q0 2.28 0.11 2.89 0.11 0.59 0.41 1.16h-1.7q-0.27 -0.52 -0.33 -1.19m-0.14 -3.67q-0.89 0.38 -2.67 0.63 -1.02 0.14 -1.44 0.33t-0.66 0.53q-0.22 0.34 -0.22 0.78 0 0.66 0.5 1.09 0.5 0.44 1.45 0.44t1.67 -0.41q0.75 -0.42 1.09 -1.14 0.27 -0.56 0.27 -1.64zm7.78 3.39 0.23 1.45q-0.69 0.14 -1.23 0.14 -0.89 0 -1.39 -0.28 -0.49 -0.28 -0.69 -0.73 -0.2 -0.47 -0.2 -1.94v-5.58h-1.2v-1.27h1.2v-2.39l1.63 -0.99v3.38h1.66v1.27h-1.66v5.67q0 0.69 0.08 0.89t0.28 0.33q0.2 0.11 0.58 0.11 0.27 0 0.72 -0.06m7.92 0.28q-0.92 0.77 -1.76 1.09 -0.83 0.31 -1.8 0.31 -1.59 0 -2.45 -0.78t-0.86 -1.99q0 -0.72 0.33 -1.3t0.84 -0.94q0.53 -0.36 1.19 -0.55 0.47 -0.13 1.45 -0.25 1.98 -0.24 2.92 -0.56l0.02 -0.42q0 -1 -0.47 -1.42 -0.63 -0.55 -1.88 -0.55 -1.16 0 -1.7 0.41t-0.81 1.42l-1.61 -0.22q0.22 -1.01 0.72 -1.64 0.5 -0.64 1.45 -0.98t2.19 -0.34q1.25 0 2.02 0.3 0.78 0.28 1.14 0.73 0.38 0.44 0.52 1.11 0.08 0.42 0.08 1.51v2.19q0 2.28 0.11 2.89 0.11 0.59 0.41 1.16h-1.7q-0.27 -0.52 -0.33 -1.19m-0.14 -3.67q-0.89 0.38 -2.67 0.63 -1.02 0.14 -1.44 0.33t-0.66 0.53q-0.22 0.34 -0.22 0.78 0 0.66 0.5 1.09 0.5 0.44 1.45 0.44t1.67 -0.41q0.75 -0.42 1.09 -1.14 0.27 -0.56 0.27 -1.64z" fill-rule="nonzero"/>
    <path fill="#000000" d="M622.98 76.58q0 -3.33 1.78 -5.2 1.78 -1.89 4.61 -1.89 1.84 0 3.33 0.89 1.48 0.88 2.27 2.47 0.78 1.58 0.78 3.58 0 2.03 -0.83 3.64 -0.81 1.59 -2.31 2.42t-3.25 0.83q-1.88 0 -3.36 -0.91 -1.48 -0.92 -2.25 -2.5t-0.77 -3.33m1.81 0.02q0 2.42 1.3 3.81t3.27 1.39q2 0 3.28 -1.41t1.28 -3.98q0 -1.63 -0.55 -2.84t-1.61 -1.88 -2.38 -0.67q-1.89 0 -3.25 1.3 -1.34 1.28 -1.34 4.28m14.81 6.49 -2.97 -9.67h1.7l1.53 5.58 0.58 2.08 0.5 -2 1.55 -5.66h1.69l1.44 5.61 0.49 1.84 0.56 -1.86 1.66 -5.59h1.59l-3.03 9.67h-1.7l-1.53 -5.8 -0.38 -1.64 -1.95 7.44zm11.69 0v-9.68h1.47v1.38q1.06 -1.59 3.08 -1.59 0.88 0 1.61 0.31t1.09 0.83q0.38 0.5 0.52 1.2 0.09 0.45 0.09 1.59v5.95h-1.64v-5.89q0 -1 -0.2 -1.49 -0.19 -0.5 -0.67 -0.8t-1.14 -0.3q-1.05 0 -1.81 0.67 -0.75 0.66 -0.75 2.52v5.28zm17 -3.11 1.69 0.2q-0.41 1.49 -1.49 2.31 -1.08 0.81 -2.77 0.81 -2.13 0 -3.38 -1.3 -1.24 -1.31 -1.24 -3.67 0 -2.45 1.25 -3.8 1.27 -1.34 3.27 -1.34 1.94 0 3.16 1.33 1.24 1.31 1.24 3.7v0.44h-7.22q0.1 1.59 0.91 2.45 0.81 0.84 2.02 0.84 0.91 0 1.55 -0.47 0.64 -0.48 1.01 -1.52m-5.39 -2.66h5.41q-0.11 -1.22 -0.63 -1.83 -0.78 -0.95 -2.03 -0.95 -1.13 0 -1.91 0.77 -0.77 0.75 -0.84 2.02m9.13 5.77v-9.67h1.47v1.47q0.56 -1.03 1.03 -1.36 0.49 -0.33 1.06 -0.33 0.83 0 1.69 0.53l-0.56 1.52q-0.61 -0.36 -1.2 -0.36 -0.55 0 -0.97 0.33t-0.61 0.89q-0.28 0.88 -0.28 1.92v5.06zm5.57 -2.89 1.63 -0.25q0.13 0.97 0.75 1.5 0.63 0.52 1.75 0.52t1.67 -0.45q0.55 -0.47 0.55 -1.09 0 -0.55 -0.48 -0.88 -0.33 -0.22 -1.67 -0.55 -1.81 -0.47 -2.52 -0.8 -0.69 -0.33 -1.05 -0.91 -0.36 -0.59 -0.36 -1.31 0 -0.64 0.3 -1.19 0.3 -0.56 0.81 -0.92 0.38 -0.28 1.03 -0.47 0.67 -0.2 1.42 -0.2 1.14 0 2 0.33t1.27 0.89q0.42 0.56 0.58 1.5l-1.61 0.22q-0.11 -0.75 -0.64 -1.17 -0.52 -0.42 -1.47 -0.42 -1.14 0 -1.63 0.38 -0.47 0.38 -0.47 0.88 0 0.31 0.19 0.58 0.2 0.27 0.64 0.44 0.24 0.09 1.44 0.42 1.75 0.45 2.44 0.75t1.08 0.86 0.39 1.41q0 0.83 -0.48 1.55 -0.47 0.72 -1.38 1.13 -0.91 0.39 -2.05 0.39 -1.88 0 -2.88 -0.78 -0.98 -0.78 -1.25 -2.33m8.75 3.12 3.88 -13.81h1.31l-3.86 13.81zm6.57 -0.23V69.75h2.66l3.16 9.45q0.44 1.33 0.64 1.99l0.7 -2.14 3.2 -9.3h2.38v13.36h-1.7v-11.2l-3.88 11.17h-1.59l-3.86 -11.37v11.37zm21.7 -1.19q-0.92 0.77 -1.76 1.09 -0.83 0.31 -1.8 0.31 -1.59 0 -2.45 -0.78t-0.86 -1.99q0 -0.72 0.33 -1.3t0.84 -0.94q0.53 -0.36 1.19 -0.55 0.47 -0.13 1.45 -0.25 1.98 -0.24 2.92 -0.56l0.02 -0.42q0 -1 -0.47 -1.42 -0.63 -0.55 -1.88 -0.55 -1.16 0 -1.7 0.41t-0.81 1.42l-1.61 -0.22q0.22 -1.01 0.72 -1.64 0.5 -0.64 1.45 -0.98t2.19 -0.34q1.25 0 2.02 0.3 0.78 0.28 1.14 0.73 0.38 0.44 0.52 1.11 0.08 0.42 0.08 1.51v2.19q0 2.28 0.11 2.89 0.11 0.59 0.41 1.16h-1.7q-0.27 -0.52 -0.33 -1.19m-0.14 -3.67q-0.89 0.38 -2.67 0.63 -1.02 0.14 -1.44 0.33t-0.66 0.53q-0.22 0.34 -0.22 0.78 0 0.66 0.5 1.09 0.5 0.44 1.45 0.44t1.67 -0.41q0.75 -0.42 1.09 -1.14 0.27 -0.56 0.27 -1.64zm4.2 4.86v-9.69h1.47v1.38q1.06 -1.59 3.08 -1.59 0.88 0 1.61 0.31t1.09 0.83q0.38 0.5 0.52 1.2 0.09 0.45 0.09 1.59v5.95h-1.64v-5.89q0 -1 -0.2 -1.49 -0.19 -0.5 -0.67 -0.8t-1.14 -0.3q-1.05 0 -1.81 0.67 -0.75 0.66 -0.75 2.52v5.28zm16.69 -1.19q-0.92 0.77 -1.77 1.09 -0.83 0.31 -1.8 0.31 -1.59 0 -2.45 -0.78t-0.86 -1.99q0 -0.72 0.33 -1.3t0.84 -0.94q0.53 -0.36 1.19 -0.55 0.47 -0.13 1.45 -0.25 1.99 -0.24 2.92 -0.56l0.02 -0.42q0 -1 -0.47 -1.42 -0.63 -0.55 -1.88 -0.55 -1.16 0 -1.7 0.41t-0.81 1.42l-1.61 -0.22q0.22 -1.01 0.72 -1.64 0.5 -0.64 1.45 -0.98t2.19 -0.34q1.25 0 2.02 0.3 0.78 0.28 1.14 0.73 0.38 0.44 0.52 1.11 0.08 0.42 0.08 1.51v2.19q0 2.28 0.11 2.89 0.11 0.59 0.41 1.16h-1.7q-0.27 -0.52 -0.33 -1.19m-0.14 -3.67q-0.89 0.38 -2.67 0.63 -1.01 0.14 -1.44 0.33t-0.66 0.53 -0.22 0.78q0 0.66 0.5 1.09 0.5 0.44 1.45 0.44t1.67 -0.41q0.75 -0.42 1.09 -1.14 0.27 -0.56 0.27 -1.64zm3.89 5.66 1.59 0.23q0.11 0.75 0.56 1.08 0.61 0.45 1.67 0.45 1.14 0 1.75 -0.45 0.63 -0.45 0.84 -1.27 0.13 -0.5 0.11 -2.11 -1.06 1.27 -2.67 1.27 -2 0 -3.09 -1.44t-1.09 -3.45q0 -1.39 0.5 -2.56 0.52 -1.17 1.45 -1.8 0.95 -0.64 2.25 -0.64 1.7 0 2.81 1.37v-1.16h1.52v8.36q0 2.27 -0.47 3.2 -0.45 0.94 -1.45 1.49t-2.45 0.55q-1.72 0 -2.8 -0.78 -1.06 -0.77 -1.03 -2.34m1.36 -5.81q0 1.91 0.75 2.78 0.77 0.88 1.91 0.88 1.13 0 1.89 -0.86 0.77 -0.88 0.77 -2.73 0 -1.78 -0.8 -2.67 -0.78 -0.91 -1.89 -0.91 -1.09 0 -1.86 0.89 -0.77 0.88 -0.77 2.63M756.46 80l1.69 0.2q-0.41 1.49 -1.48 2.31 -1.08 0.81 -2.77 0.81 -2.13 0 -3.38 -1.3 -1.23 -1.31 -1.23 -3.67 0 -2.45 1.25 -3.8 1.27 -1.34 3.27 -1.34 1.94 0 3.16 1.33 1.23 1.31 1.23 3.7v0.44h-7.22q0.09 1.59 0.91 2.45 0.81 0.84 2.02 0.84 0.91 0 1.55 -0.47 0.64 -0.48 1.02 -1.52m-5.39 -2.66h5.41q-0.11 -1.22 -0.63 -1.83 -0.78 -0.95 -2.03 -0.95 -1.13 0 -1.91 0.77 -0.77 0.75 -0.84 2.02m9.13 5.77v-9.69h1.47v1.47q0.56 -1.03 1.03 -1.36 0.49 -0.33 1.06 -0.33 0.83 0 1.69 0.53l-0.56 1.52q-0.61 -0.36 -1.2 -0.36 -0.55 0 -0.97 0.33t-0.61 0.89q-0.28 0.88 -0.28 1.92v5.06zm5.57 -2.89 1.63 -0.25q0.13 0.97 0.75 1.5 0.63 0.52 1.75 0.52t1.67 -0.45q0.55 -0.47 0.55 -1.09 0 -0.55 -0.49 -0.88 -0.33 -0.22 -1.67 -0.55 -1.81 -0.47 -2.52 -0.8 -0.69 -0.33 -1.05 -0.91 -0.36 -0.59 -0.36 -1.31 0 -0.64 0.3 -1.19 0.3 -0.56 0.81 -0.92 0.38 -0.28 1.03 -0.47 0.67 -0.2 1.42 -0.2 1.14 0 2 0.33t1.27 0.89q0.42 0.56 0.58 1.5l-1.61 0.22q-0.11 -0.75 -0.64 -1.17 -0.52 -0.42 -1.47 -0.42 -1.14 0 -1.63 0.38 -0.47 0.38 -0.47 0.88 0 0.31 0.19 0.58 0.2 0.27 0.64 0.44 0.24 0.09 1.44 0.42 1.75 0.45 2.44 0.75t1.08 0.86 0.39 1.41q0 0.83 -0.48 1.55 -0.47 0.72 -1.38 1.13 -0.91 0.39 -2.05 0.39 -1.88 0 -2.88 -0.78 -0.98 -0.78 -1.25 -2.33" fill-rule="nonzero"/>
    <path fill="#000000" fill-opacity="0.0" d="m105.66 167.04 65.2 -101.89" fill-rule="evenodd"/>
    <path stroke="#000000" stroke-width="1" stroke-linejoin="round" stroke-linecap="butt" d="m105.66 167.04 61.96 -96.84" fill-rule="evenodd"/>
    <path fill="#000000" stroke="#000000" stroke-width="1" stroke-linecap="butt" d="m169.02 71.09 1.05 -4.71 -3.84 2.93z" fill-rule="evenodd"/>
    <path fill="#000000" fill-opacity="0.0" d="M166.71 178.16 573.86 65.15" fill-rule="evenodd"/>
    <path stroke="#000000" stroke-width="1" stroke-linejoin="round" stroke-linecap="butt" d="m166.71 178.16 401.37 -111.4" fill-rule="evenodd"/>
    <path fill="#000000" stroke="#000000" stroke-width="1" stroke-linecap="butt" d="m568.52 68.35 3.93 -2.81 -4.81 -0.38z" fill-rule="evenodd"/>
    <path fill="#000000" fill-opacity="0.0" d="m105.66 242.98 65.2 101.89" fill-rule="evenodd"/>
    <path stroke="#000000" stroke-width="1" stroke-linejoin="round" stroke-linecap="butt" d="m105.66 242.98 61.96 96.84" fill-rule="evenodd"/>
    <path fill="#000000" stroke="#000000" stroke-width="1" stroke-linecap="butt" d="m166.24 340.7 3.84 2.93 -1.05 -4.71z" fill-rule="evenodd"/>
    <path fill="#000000" fill-opacity="0.0" d="m166.71 231.86 407.15 113.01" fill-rule="evenodd"/>
    <path stroke="#000000" stroke-width="1" stroke-linejoin="round" stroke-linecap="butt" d="m166.71 231.86 401.37 111.4" fill-rule="evenodd"/>
    <path fill="#000000" stroke="#000000" stroke-width="1" stroke-linecap="butt" d="m567.64 344.85 4.81 -0.38 -3.93 -2.81z" fill-rule="evenodd"/>
    <path fill="#000000" fill-opacity="0.0" d="M433.66 38.32h176.66" fill-rule="evenodd"/>
    <path stroke="#000000" stroke-width="1" stroke-linejoin="round" stroke-linecap="butt" d="M433.66 38.32h170.66" fill-rule="evenodd"/>
    <path fill="#000000" stroke="#000000" stroke-width="1" stroke-linecap="butt" d="m604.32 39.97 4.54 -1.65 -4.54 -1.65z" fill-rule="evenodd"/>
    <path fill="#000000" fill-opacity="0.0" d="M433.66 371.7h176.66" fill-rule="evenodd"/>
    <path stroke="#000000" stroke-width="1" stroke-linejoin="round" stroke-linecap="butt" d="M433.66 371.7h170.66" fill-rule="evenodd"/>
    <path fill="#000000" stroke="#000000" stroke-width="1" stroke-linecap="butt" d="m604.32 373.35 4.54 -1.65 -4.54 -1.65z" fill-rule="evenodd"/>
    <path fill="#000000" fill-opacity="0.0" d="M192 205.01h146.33" fill-rule="evenodd"/>
    <path stroke="#000000" stroke-width="1" stroke-linejoin="round" stroke-linecap="butt" d="M192 205.01h140.33" fill-rule="evenodd"/>
    <path fill="#000000" stroke="#000000" stroke-width="1" stroke-linecap="butt" d="m332.33 206.66 4.54 -1.65 -4.54 -1.65z" fill-rule="evenodd"/>
    <path fill="#000000" fill-opacity="0.0" d="M215.96 318V92.02" fill-rule="evenodd"/>
    <path stroke="#000000" stroke-width="1" stroke-linejoin="round" stroke-linecap="butt" d="M215.96 318V98.02" fill-rule="evenodd"/>
    <path fill="#000000" stroke="#000000" stroke-width="1" stroke-linecap="butt" d="m217.61 98.02 -1.65 -4.54 -1.65 4.54z" fill-rule="evenodd"/>
    <path fill="#000000" fill-opacity="0.0" d="m424.66 167.04 -99.84 -63.91" fill-rule="evenodd"/>
    <path stroke="#000000" stroke-width="1" stroke-linejoin="round" stroke-linecap="butt" d="m419.6 163.8 -94.79 -60.67" fill-rule="evenodd"/>
    <path fill="#000000" stroke="#000000" stroke-width="1" stroke-linecap="butt" d="m418.71 165.2 4.71 1.05 -2.93 -3.84z" fill-rule="evenodd"/>
    <path fill="#000000" fill-opacity="0.0" d="m424.66 242.97 -99.84 63.91" fill-rule="evenodd"/>
    <path stroke="#000000" stroke-width="1" stroke-linejoin="round" stroke-linecap="butt" d="m419.6 246.21 -94.79 60.67" fill-rule="evenodd"/>
    <path fill="#000000" stroke="#000000" stroke-width="1" stroke-linecap="butt" d="m420.49 247.6 2.93 -3.84 -4.71 1.05z" fill-rule="evenodd"/>
    <path fill="#000000" fill-opacity="0.0" d="m485.7 178.16 124.6 -86.14" fill-rule="evenodd"/>
    <path stroke="#000000" stroke-width="1" stroke-linejoin="round" stroke-linecap="butt" d="m485.7 178.16 119.66 -82.73" fill-rule="evenodd"/>
    <path fill="#000000" stroke="#000000" stroke-width="1" stroke-linecap="butt" d="m606.3 96.79 2.79 -3.94 -4.67 1.22z" fill-rule="evenodd"/>
    <path fill="#000000" fill-opacity="0.0" d="M485.7 231.85 610.3 318" fill-rule="evenodd"/>
    <path stroke="#000000" stroke-width="1" stroke-linejoin="round" stroke-linecap="butt" d="m485.7 231.85 119.66 82.73" fill-rule="evenodd"/>
    <path fill="#000000" stroke="#000000" stroke-width="1" stroke-linecap="butt" d="m604.42 315.94 4.67 1.22 -2.79 -3.94z" fill-rule="evenodd"/>
    <path fill="#000000" fill-opacity="0.0" d="M786.25 92.01V318" fill-rule="evenodd"/>
    <path stroke="#000000" stroke-width="1" stroke-linejoin="round" stroke-linecap="butt" d="M786.25 92.01V312" fill-rule="evenodd"/>
    <path fill="#000000" stroke="#000000" stroke-width="1" stroke-linecap="butt" d="m784.6 312 1.65 4.54 1.65 -4.54z" fill-rule="evenodd"/>
    <path fill="#000000" fill-opacity="0.0" d="m433.66 318 264.63 -214.87" fill-rule="evenodd"/>
    <path stroke="#000000" stroke-width="1" stroke-linejoin="round" stroke-linecap="butt" d="m433.66 318 259.97 -211.08" fill-rule="evenodd"/>
    <path fill="#000000" stroke="#000000" stroke-width="1" stroke-linecap="butt" d="m694.67 108.2 2.48 -4.14 -4.56 1.58z" fill-rule="evenodd"/>
    <path fill="#000000" fill-opacity="0.0" d="m433.66 92.01 264.63 214.87" fill-rule="evenodd"/>
    <path stroke="#000000" stroke-width="1" stroke-linejoin="round" stroke-linecap="butt" d="M433.66 92.01 693.63 303.1" fill-rule="evenodd"/>
    <path fill="#000000" stroke="#000000" stroke-width="1" stroke-linecap="butt" d="m692.59 304.38 4.56 1.58 -2.48 -4.14z" fill-rule="evenodd"/>
    <path fill="#000000" fill-opacity="0.0" d="M112.9 87.09h32.25v42.02H112.9z" fill-rule="evenodd"/>
    <path fill="#0000ff" d="M129.24 114.01h-2.56v-9.64q-1.41 1.31 -3.31 1.94v-2.33q1.02 -0.33 2.19 -1.23 1.17 -0.92 1.61 -2.14h2.08z" fill-rule="nonzero"/>
    <path fill="#000000" fill-opacity="0.0" d="M112.9 280.91h32.25v42.02H112.9z" fill-rule="evenodd"/>
    <path fill="#0000ff" d="M131.34 305.46v2.38h-8.97q0.14 -1.34 0.86 -2.55 0.73 -1.22 2.89 -3.2 1.74 -1.63 2.13 -2.19 0.53 -0.8 0.53 -1.58 0 -0.84 -0.47 -1.3 -0.45 -0.47 -1.27 -0.47 -0.8 0 -1.28 0.49 -0.47 0.47 -0.55 1.59l-2.55 -0.25q0.24 -2.11 1.42 -3.03 1.2 -0.92 3.02 -0.92 1.97 0 3.09 1.06 1.14 1.06 1.14 2.66 0 0.89 -0.33 1.72 -0.31 0.81 -1.02 1.7 -0.47 0.59 -1.69 1.7 -1.2 1.11 -1.53 1.48 -0.31 0.36 -0.52 0.7z" fill-rule="nonzero"/>
    <path fill="#000000" fill-opacity="0.0" d="M187.84 92.65h32.25v42.02h-32.25z" fill-rule="evenodd"/>
    <path fill="#0000ff" d="m197.55 116.02 2.47 -0.3q0.13 0.95 0.64 1.45 0.53 0.5 1.27 0.5 0.78 0 1.33 -0.59 0.55 -0.61 0.55 -1.64 0 -0.95 -0.53 -1.52 -0.52 -0.58 -1.25 -0.58 -0.5 0 -1.19 0.2l0.28 -2.09q1.05 0.03 1.59 -0.44 0.55 -0.48 0.55 -1.28 0 -0.67 -0.41 -1.08 -0.39 -0.41 -1.06 -0.41 -0.66 0 -1.13 0.47 -0.45 0.45 -0.56 1.33l-2.36 -0.41q0.25 -1.2 0.73 -1.92 0.5 -0.73 1.39 -1.14t2 -0.42q1.88 0 3.02 1.2 0.94 0.99 0.94 2.22 0 1.77 -1.92 2.81 1.16 0.24 1.84 1.09t0.69 2.06q0 1.76 -1.3 3.02 -1.28 1.24 -3.19 1.24 -1.81 0 -3.02 -1.05 -1.19 -1.05 -1.38 -2.74" fill-rule="nonzero"/>
    <path fill="#000000" fill-opacity="0.0" d="M254.26 117.02h32.25v42.02h-32.25z" fill-rule="evenodd"/>
    <path fill="#0000ff" d="M269.07 143.94v-2.69h-5.47v-2.24l5.8 -8.48h2.16v8.47h1.66v2.25h-1.66v2.69zm0 -4.94v-4.56l-3.08 4.56z" fill-rule="nonzero"/>
    <path fill="#000000" fill-opacity="0.0" d="M254.26 174.44h32.25v42.02h-32.25z" fill-rule="evenodd"/>
    <path fill="#0000ff" d="m264.09 197.92 2.55 -0.27q0.11 0.88 0.64 1.38 0.55 0.5 1.25 0.5 0.8 0 1.35 -0.64 0.56 -0.66 0.56 -1.97 0 -1.23 -0.55 -1.84t-1.44 -0.61q-1.09 0 -1.97 0.97l-2.08 -0.3 1.31 -6.95h6.77v2.39h-4.83l-0.41 2.27q0.86 -0.42 1.75 -0.42 1.7 0 2.89 1.25 1.19 1.23 1.19 3.2 0 1.66 -0.95 2.94 -1.31 1.78 -3.63 1.78 -1.84 0 -3.02 -1 -1.16 -1 -1.39 -2.67" fill-rule="nonzero"/>
    <path fill="#000000" fill-opacity="0.0" d="M254.26 226.98h32.25V269h-32.25z" fill-rule="evenodd"/>
    <path fill="#0000ff" d="m272.73 243.82 -2.48 0.27q-0.09 -0.77 -0.49 -1.13 -0.38 -0.38 -0.98 -0.38 -0.81 0 -1.38 0.73 -0.55 0.73 -0.7 3.03 0.97 -1.13 2.39 -1.13 1.59 0 2.74 1.22t1.14 3.16q0 2.05 -1.2 3.3 -1.19 1.23 -3.08 1.23 -2.03 0 -3.33 -1.58t-1.3 -5.16q0 -3.67 1.34 -5.28 1.36 -1.63 3.53 -1.63 1.53 0 2.52 0.86 1 0.84 1.28 2.47m-5.81 5.58q0 1.25 0.58 1.94 0.58 0.67 1.31 0.67 0.72 0 1.19 -0.55 0.47 -0.56 0.47 -1.83 0 -1.31 -0.52 -1.91 -0.5 -0.61 -1.27 -0.61 -0.73 0 -1.25 0.58t-0.52 1.7" fill-rule="nonzero"/>
    <path fill="#000000" fill-opacity="0.0" d="M413.26 129.1h32.25v42.02h-32.25z" fill-rule="evenodd"/>
    <path fill="#0000ff" d="M423.05 145.22v-2.38h8.75v1.86q-1.08 1.06 -2.2 3.06 -1.13 1.98 -1.72 4.23t-0.56 4.02h-2.47q0.06 -2.77 1.14 -5.64 1.08 -2.89 2.88 -5.16z" fill-rule="nonzero"/>
    <path fill="#000000" fill-opacity="0.0" d="M412.77 242.4h32.25v42.02h-32.25z" fill-rule="evenodd"/>
    <path fill="#0000ff" d="M424.76 262.12q-0.98 -0.42 -1.44 -1.16 -0.45 -0.73 -0.45 -1.61 0 -1.48 1.03 -2.45 1.05 -0.98 2.97 -0.98 1.91 0 2.95 0.98 1.06 0.97 1.06 2.45 0 0.94 -0.48 1.66 -0.49 0.72 -1.36 1.11 1.11 0.44 1.69 1.3t0.58 1.98q0 1.84 -1.19 3 -1.17 1.16 -3.13 1.16 -1.83 0 -3.03 -0.95 -1.44 -1.13 -1.44 -3.09 0 -1.09 0.53 -2 0.55 -0.91 1.7 -1.39m0.53 -2.58q0 0.77 0.42 1.2 0.44 0.42 1.16 0.42t1.17 -0.44 0.44 -1.2q0 -0.72 -0.44 -1.14 -0.42 -0.44 -1.14 -0.44t-1.17 0.44q-0.44 0.44 -0.44 1.16m-0.23 5.72q0 1.06 0.53 1.66 0.55 0.58 1.36 0.58 0.8 0 1.31 -0.56t0.52 -1.64q0 -0.94 -0.53 -1.5 -0.52 -0.58 -1.33 -0.58 -0.94 0 -1.41 0.66 -0.45 0.64 -0.45 1.39" fill-rule="nonzero"/>
    <path fill="#000000" fill-opacity="0.0" d="M500.05 337.68h43.87v42.02h-43.88z" fill-rule="evenodd"/>
    <path fill="#0000ff" d="M516.4 364.6h-2.56v-9.64q-1.41 1.31 -3.31 1.94v-2.33q1.02 -0.33 2.19 -1.23 1.17 -0.92 1.61 -2.14h2.08zm8.16 -13.41q1.94 0 3.03 1.38 1.3 1.64 1.3 5.44t-1.31 5.45q-1.08 1.38 -3.02 1.38 -1.95 0 -3.16 -1.5 -1.19 -1.5 -1.19 -5.34 0 -3.78 1.31 -5.44 1.08 -1.36 3.03 -1.36m0 2.13q-0.47 0 -0.84 0.3 -0.36 0.3 -0.56 1.06 -0.25 0.99 -0.25 3.33 0 2.36 0.23 3.24t0.59 1.17 0.83 0.3q0.45 0 0.81 -0.3 0.38 -0.3 0.58 -1.06 0.27 -0.98 0.27 -3.34 0 -2.34 -0.25 -3.22 -0.23 -0.88 -0.59 -1.17t-0.81 -0.3" fill-rule="nonzero"/>
    <path fill="#000000" fill-opacity="0.0" d="M552.04 116.65h43.87v42.02h-43.87z" fill-rule="evenodd"/>
    <path fill="#0000ff" d="M568.38 143.57h-2.56v-9.64q-1.41 1.31 -3.31 1.94v-2.33q1.01 -0.33 2.19 -1.23 1.17 -0.92 1.61 -2.14h2.08zm9.35 0h-2.56v-9.64q-1.41 1.31 -3.31 1.94v-2.33q1.02 -0.33 2.19 -1.23 1.17 -0.92 1.61 -2.14h2.08z" fill-rule="nonzero"/>
    <path fill="#000000" fill-opacity="0.0" d="M553 253.92h43.87v42.02H553z" fill-rule="evenodd"/>
    <path fill="#0000ff" d="M569.34 280.84h-2.56v-9.64q-1.41 1.31 -3.31 1.94v-2.33q1.01 -0.33 2.19 -1.24 1.17 -0.92 1.61 -2.14h2.08zm12.47 -2.38v2.38h-8.97q0.14 -1.34 0.86 -2.55 0.73 -1.22 2.89 -3.2 1.74 -1.63 2.13 -2.19 0.53 -0.8 0.53 -1.58 0 -0.84 -0.47 -1.3 -0.45 -0.47 -1.27 -0.47 -0.8 0 -1.28 0.48 -0.47 0.47 -0.55 1.59l-2.55 -0.25q0.23 -2.11 1.42 -3.03 1.2 -0.92 3.02 -0.92 1.97 0 3.09 1.06 1.14 1.06 1.14 2.66 0 0.89 -0.33 1.72 -0.31 0.81 -1.02 1.7 -0.47 0.59 -1.69 1.7 -1.2 1.11 -1.53 1.49 -0.31 0.36 -0.52 0.7z" fill-rule="nonzero"/>
    <path fill="#000000" fill-opacity="0.0" d="M666.77 114.08h43.87v42.02h-43.87z" fill-rule="evenodd"/>
    <path fill="#0000ff" d="M683.11 141h-2.56v-9.64q-1.41 1.31 -3.31 1.94v-2.33q1.02 -0.33 2.19 -1.23 1.17 -0.92 1.61 -2.14h2.08zm3.73 -3.55 2.47 -0.3q0.13 0.95 0.64 1.45 0.53 0.5 1.27 0.5 0.78 0 1.33 -0.59 0.55 -0.61 0.55 -1.64 0 -0.95 -0.53 -1.52 -0.52 -0.58 -1.25 -0.58 -0.5 0 -1.19 0.2l0.28 -2.09q1.05 0.03 1.6 -0.44 0.55 -0.49 0.55 -1.28 0 -0.67 -0.41 -1.08 -0.39 -0.41 -1.06 -0.41 -0.66 0 -1.13 0.47 -0.45 0.45 -0.56 1.33l-2.36 -0.41q0.25 -1.2 0.73 -1.92 0.5 -0.73 1.39 -1.14t2 -0.42q1.88 0 3.02 1.2 0.94 0.99 0.94 2.22 0 1.77 -1.92 2.81 1.16 0.23 1.84 1.09 0.69 0.86 0.69 2.06 0 1.76 -1.3 3.02 -1.28 1.24 -3.19 1.24 -1.81 0 -3.02 -1.05 -1.19 -1.05 -1.38 -2.73" fill-rule="nonzero"/>
    <path fill="#000000" fill-opacity="0.0" d="M666.77 253.92h43.87v42.02h-43.87z" fill-rule="evenodd"/>
    <path fill="#0000ff" d="M683.11 280.84h-2.56v-9.64q-1.41 1.31 -3.31 1.94v-2.33q1.02 -0.33 2.19 -1.24 1.17 -0.92 1.61 -2.14h2.08zm8.85 0v-2.69h-5.47v-2.23l5.8 -8.48h2.16v8.47h1.66v2.25h-1.66v2.69zm0 -4.94v-4.56l-3.08 4.56z" fill-rule="nonzero"/>
    <path fill="#000000" fill-opacity="0.0" d="M750.92 178.43h43.87v42.02h-43.87z" fill-rule="evenodd"/>
    <path fill="#0000ff" d="M767.27 205.35h-2.56v-9.64q-1.41 1.31 -3.31 1.94v-2.33q1.01 -0.33 2.19 -1.23 1.17 -0.92 1.61 -2.14h2.08zm3.86 -3.44 2.55 -0.27q0.11 0.88 0.64 1.38 0.55 0.5 1.25 0.5 0.8 0 1.34 -0.64 0.56 -0.66 0.56 -1.97 0 -1.23 -0.55 -1.84t-1.44 -0.61q-1.09 0 -1.97 0.97l-2.08 -0.3 1.31 -6.95h6.76v2.39h-4.83l-0.41 2.27q0.86 -0.42 1.75 -0.42 1.7 0 2.89 1.25 1.19 1.23 1.19 3.2 0 1.66 -0.95 2.94 -1.31 1.78 -3.63 1.78 -1.84 0 -3.02 -1 -1.16 -1 -1.39 -2.67" fill-rule="nonzero"/>
    <path fill="#000000" fill-opacity="0.0" d="M502.99 30.32h43.87v42.02h-43.87z" fill-rule="evenodd"/>
    <path fill="#0000ff" d="m512.83 54.15 2.48 -0.27q0.09 0.75 0.47 1.13 0.39 0.36 1.01 0.36 0.8 0 1.34 -0.72 0.56 -0.73 0.72 -3.03 -0.97 1.11 -2.42 1.11 -1.58 0 -2.72 -1.2 -1.14 -1.22 -1.14 -3.17 0 -2.03 1.2 -3.27 1.2 -1.25 3.08 -1.25 2.03 0 3.33 1.58 1.31 1.56 1.31 5.16 0 3.67 -1.36 5.3 -1.36 1.61 -3.53 1.61 -1.58 0 -2.55 -0.83 -0.95 -0.84 -1.23 -2.5m5.8 -5.59q0 -1.23 -0.58 -1.91 -0.56 -0.69 -1.31 -0.69 -0.7 0 -1.17 0.56 -0.47 0.55 -0.47 1.83 0 1.3 0.5 1.91 0.52 0.59 1.28 0.59 0.73 0 1.24 -0.58t0.52 -1.72" fill-rule="nonzero"/>
  </g>
</svg>