<svg xmlns="http://www.w3.org/2000/svg" fill="none" stroke-linecap="square" stroke-miterlimit="10" viewBox="15.57 16.35 525.13 602.18">
  <g clip-path="url(#a)">
    <path fill="#cfe2f3" d="M38.084 224.016a7.585 7.585 0 0 1 7.585-7.586h172.64a7.585 7.585 0 0 1 7.586 7.586v30.34a7.585 7.585 0 0 1-7.585 7.586H45.67a7.585 7.585 0 0 1-7.586-7.585z" fill-rule="evenodd"/>
    <path stroke="#000" stroke-linejoin="round" stroke-linecap="butt" d="M38.084 224.016a7.585 7.585 0 0 1 7.585-7.586h172.64a7.585 7.585 0 0 1 7.586 7.586v30.34a7.585 7.585 0 0 1-7.585 7.586H45.67a7.585 7.585 0 0 1-7.586-7.585z"/>
    <path fill="#000" d="M72.929 246.106v-13.359h1.812l7.016 10.484v-10.484h1.688v13.36h-1.813l-7.016-10.5v10.5zm19.91-3.109 1.688.203q-.406 1.484-1.484 2.313-1.079.812-2.766.812-2.125 0-3.375-1.297-1.234-1.312-1.234-3.672 0-2.453 1.25-3.797 1.265-1.343 3.265-1.343 1.938 0 3.156 1.328 1.235 1.312 1.235 3.703v.437h-7.219q.094 1.594.906 2.454.813.843 2.016.843.906 0 1.547-.468.64-.485 1.015-1.516m-5.39-2.656h5.406q-.11-1.219-.625-1.828-.781-.954-2.031-.954-1.125 0-1.906.766-.766.75-.844 2.016m10.922 5.765-2.968-9.672h1.703l1.531 5.579.578 2.078q.047-.157.5-2l1.547-5.657h1.687l1.438 5.61.484 1.844.563-1.86 1.656-5.594h1.594l-3.031 9.672h-1.704l-1.53-5.797-.376-1.64-1.953 7.437zm19.407 0-3.532-13.359h1.813l2.031 8.766q.328 1.375.563 2.718.5-2.14.593-2.468l2.547-9.016h2.125l1.922 6.766q.719 2.515 1.031 4.718.266-1.265.672-2.89l2.094-8.594h1.781l-3.672 13.36h-1.703l-2.812-10.173q-.36-1.28-.422-1.562-.203.906-.39 1.562l-2.829 10.172zm14.13-4.843q0-2.688 1.485-3.97 1.25-1.077 3.047-1.077 2 0 3.265 1.312 1.266 1.297 1.266 3.61 0 1.859-.563 2.937-.562 1.063-1.64 1.656-1.063.594-2.328.594-2.032 0-3.282-1.297-1.25-1.312-1.25-3.765m1.688 0q0 1.859.797 2.796.812.922 2.047.922 1.218 0 2.03-.922.813-.937.813-2.843 0-1.797-.812-2.719t-2.031-.922q-1.235 0-2.047.922-.797.906-.797 2.766m9.282 4.843v-9.672h1.469v1.47q.562-1.032 1.03-1.36.485-.328 1.063-.328.829 0 1.688.531l-.563 1.516q-.609-.36-1.203-.36-.547 0-.968.328-.422.328-.61.891-.281.875-.281 1.922v5.062zm6.228 0v-13.359h1.64v7.625l3.891-3.938h2.11l-3.688 3.594 4.063 6.078h-2.016l-3.203-4.953-1.156 1.125v3.828zm9.281 0v-13.359h1.641v13.36zm3.583-4.843q0-2.688 1.484-3.97 1.25-1.077 3.047-1.077 2 0 3.266 1.312 1.265 1.297 1.265 3.61 0 1.859-.562 2.937-.563 1.063-1.64 1.656-1.063.594-2.329.594-2.031 0-3.281-1.297-1.25-1.312-1.25-3.765m1.687 0q0 1.859.797 2.796.813.922 2.047.922 1.219 0 2.031-.922.813-.937.813-2.843 0-1.797-.813-2.719t-2.031-.922q-1.234 0-2.047.922-.797.906-.797 2.766m15.61 3.656q-.922.765-1.765 1.094-.828.312-1.797.312-1.594 0-2.453-.781-.86-.781-.86-1.985 0-.718.328-1.296.329-.594.844-.938.531-.36 1.188-.547.468-.125 1.453-.25 1.984-.234 2.922-.562.015-.344.015-.422 0-1-.468-1.422-.625-.547-1.875-.547-1.157 0-1.704.406t-.812 1.422l-1.61-.219q.22-1.015.72-1.64.5-.64 1.452-.985.954-.343 2.188-.343 1.25 0 2.016.297.78.28 1.14.734.375.437.516 1.11.078.421.078 1.515v2.187q0 2.282.11 2.891.109.594.406 1.156h-1.704q-.265-.515-.328-1.187m-.14-3.672q-.89.375-2.672.625-1.016.14-1.438.328t-.656.531q-.219.344-.219.782 0 .656.5 1.093.5.438 1.453.438.938 0 1.672-.406.75-.422 1.094-1.141.266-.563.266-1.64zm10.47 4.86v-1.22q-.907 1.438-2.704 1.438-1.156 0-2.125-.64-.969-.641-1.5-1.782-.531-1.14-.531-2.625 0-1.453.484-2.625.485-1.187 1.438-1.812.968-.625 2.172-.625.875 0 1.546.375.688.36 1.11.953v-4.797h1.64v13.36zm-5.173-4.829q0 1.86.782 2.781.78.922 1.843.922 1.078 0 1.828-.875.75-.89.75-2.687 0-1.985-.765-2.906-.766-.938-1.89-.938-1.079 0-1.813.89-.735.891-.735 2.813"/>
    <path fill="#cfe2f3" d="M81.335 16.85h99.847v60.891c-49.924 0-49.924 23.2-99.847 10.019z" fill-rule="evenodd"/>
    <path stroke="#000" stroke-linejoin="round" stroke-linecap="butt" d="M81.335 16.85h99.847v60.891c-49.924 0-49.924 23.2-99.847 10.019z"/>
    <path fill="#000" d="m119.927 38.528 1.766.453q-.563 2.172-2 3.329-1.438 1.14-3.532 1.14-2.156 0-3.515-.875-1.344-.89-2.063-2.547-.703-1.672-.703-3.593 0-2.079.797-3.625.797-1.563 2.266-2.36 1.484-.812 3.25-.812 2 0 3.36 1.015 1.374 1.016 1.905 2.875l-1.734.407q-.469-1.454-1.36-2.11-.874-.672-2.203-.672-1.546 0-2.578.735-1.03.734-1.453 1.984-.422 1.234-.422 2.563 0 1.703.5 2.968.5 1.266 1.547 1.907 1.047.625 2.266.625 1.484 0 2.515-.86t1.391-2.547m3.13-.156q0-2.687 1.484-3.969 1.25-1.078 3.047-1.078 2 0 3.265 1.313 1.266 1.297 1.266 3.61 0 1.858-.563 2.937-.562 1.062-1.64 1.656-1.063.594-2.328.594-2.032 0-3.282-1.297-1.25-1.313-1.25-3.766m1.687 0q0 1.86.797 2.797.812.922 2.047.922 1.218 0 2.03-.922.813-.938.813-2.844 0-1.797-.812-2.719t-2.031-.921q-1.235 0-2.047.921-.797.907-.797 2.766m15.563 4.844v-1.219q-.906 1.438-2.703 1.438-1.156 0-2.125-.641-.969-.64-1.5-1.781-.531-1.14-.531-2.625 0-1.453.484-2.625.484-1.188 1.438-1.813.968-.625 2.171-.625.875 0 1.547.375.688.36 1.11.953v-4.797h1.64v13.36zm-5.172-4.828q0 1.86.781 2.78.782.923 1.844.923 1.078 0 1.828-.875.75-.89.75-2.688 0-1.984-.765-2.906-.766-.937-1.891-.937-1.078 0-1.812.89-.735.89-.735 2.813m15.907 1.718 1.688.204q-.407 1.484-1.485 2.312-1.078.813-2.765.813-2.125 0-3.375-1.297-1.235-1.313-1.235-3.672 0-2.453 1.25-3.797 1.266-1.344 3.266-1.344 1.937 0 3.156 1.328 1.235 1.313 1.235 3.703v.438h-7.22q.095 1.594.907 2.453.813.844 2.016.844.906 0 1.547-.469.64-.484 1.015-1.516m-5.39-2.656h5.406q-.11-1.219-.625-1.828-.781-.953-2.031-.953-1.125 0-1.907.766-.765.75-.843 2.015m-36.1 23.078 1.766.453q-.562 2.172-2 3.329-1.437 1.14-3.531 1.14-2.156 0-3.516-.875-1.344-.89-2.062-2.547-.703-1.672-.703-3.593 0-2.079.796-3.625.797-1.563 2.266-2.36 1.484-.812 3.25-.812 2 0 3.36 1.015 1.374 1.016 1.906 2.875l-1.735.407q-.468-1.454-1.36-2.11-.874-.672-2.202-.672-1.547 0-2.578.735-1.032.734-1.453 1.984-.422 1.234-.422 2.563 0 1.703.5 2.968.5 1.266 1.547 1.907 1.046.625 2.265.625 1.485 0 2.516-.86t1.39-2.547m3.739 4.688v-13.36h1.64v4.797q1.141-1.328 2.891-1.328 1.078 0 1.86.422.796.422 1.14 1.172t.344 2.172v6.125h-1.64V59.09q0-1.235-.532-1.797-.531-.563-1.516-.563-.718 0-1.359.391-.64.375-.922 1.016-.265.64-.265 1.78v5.298zm16.688-1.188q-.922.766-1.765 1.094-.829.313-1.797.313-1.594 0-2.453-.782-.86-.78-.86-1.984 0-.719.328-1.297.328-.594.844-.937.531-.36 1.188-.547.468-.125 1.453-.25 1.984-.235 2.922-.563.015-.344.015-.422 0-1-.469-1.422-.625-.546-1.875-.546-1.156 0-1.703.406t-.812 1.422l-1.61-.22q.22-1.015.72-1.64.5-.64 1.452-.984.953-.344 2.188-.344 1.25 0 2.015.297.782.281 1.141.734.375.438.516 1.11.078.422.078 1.515v2.188q0 2.281.11 2.89.109.594.405 1.157h-1.703q-.265-.516-.328-1.188m-.14-3.672q-.891.375-2.672.625-1.016.141-1.438.329-.422.187-.656.53-.219.345-.219.782 0 .656.5 1.094.5.437 1.453.437.938 0 1.672-.406.75-.422 1.094-1.14.266-.563.266-1.641zm4.203 4.86v-9.672h1.47v1.375q1.062-1.594 3.077-1.594.875 0 1.61.313.734.312 1.093.828.375.5.516 1.203.094.453.094 1.594v5.953h-1.64v-5.89q0-1-.204-1.485-.187-.5-.672-.797-.484-.297-1.14-.297-1.047 0-1.813.672-.75.656-.75 2.516v5.28zm10.064.797 1.593.234q.11.75.563 1.078.61.453 1.672.453 1.14 0 1.75-.453.625-.453.844-1.265.125-.5.109-2.11-1.063 1.266-2.672 1.266-2 0-3.094-1.438t-1.093-3.453q0-1.39.5-2.562.515-1.172 1.453-1.797.953-.64 2.25-.64 1.703 0 2.812 1.374v-1.156h1.516v8.36q0 2.265-.469 3.202-.453.938-1.453 1.485-.984.547-2.453.547-1.719 0-2.797-.782-1.063-.765-1.031-2.343m1.359-5.813q0 1.906.75 2.781.766.875 1.906.875 1.125 0 1.89-.859.767-.875.767-2.734 0-1.782-.797-2.672-.782-.906-1.891-.906-1.094 0-1.86.89-.765.875-.765 2.625m15.954 1.906 1.687.204q-.406 1.484-1.484 2.312-1.078.813-2.766.813-2.125 0-3.375-1.297-1.234-1.313-1.234-3.672 0-2.453 1.25-3.797 1.266-1.344 3.266-1.344 1.937 0 3.156 1.328 1.234 1.313 1.234 3.703v.438h-7.219q.094 1.594.907 2.453.812.844 2.015.844.907 0 1.547-.469.64-.484 1.016-1.516m-5.39-2.656h5.405q-.109-1.219-.625-1.828-.78-.953-2.03-.953-1.126 0-1.907.766-.766.75-.844 2.015"/>
    <path fill="#cfe2f3" d="M54.465 119.257H208.05c21.206 0 38.396 14.436 38.396 32.243s-17.19 32.243-38.396 32.243H54.465c-21.206 0-38.397-14.436-38.397-32.243s17.19-32.243 38.397-32.243" fill-rule="evenodd"/>
    <path d="M208.05 183.743c-21.206 0-38.396-14.436-38.396-32.243s17.19-32.243 38.396-32.243"/>
    <path d="M54.465 119.257H208.05c21.206 0 38.396 14.436 38.396 32.243s-17.19 32.243-38.396 32.243H54.465c-21.206 0-38.397-14.436-38.397-32.243s17.19-32.243 38.397-32.243"/>
    <path stroke="#000" stroke-linejoin="round" stroke-linecap="butt" d="M208.05 183.743c-21.206 0-38.396-14.436-38.396-32.243s17.19-32.243 38.396-32.243"/>
    <path stroke="#000" stroke-linejoin="round" stroke-linecap="butt" d="M54.465 119.257H208.05c21.206 0 38.396 14.436 38.396 32.243s-17.19 32.243-38.396 32.243H54.465c-21.206 0-38.397-14.436-38.397-32.243s17.19-32.243 38.397-32.243z"/>
    <path fill="#000" d="M71.424 147.42v-13.36h5.015q1.532 0 2.453.407.922.406 1.438 1.25.531.844.531 1.765 0 .86-.469 1.625-.453.75-1.39 1.204 1.203.359 1.86 1.218.655.86.655 2.016 0 .938-.406 1.75-.39.797-.984 1.234-.578.438-1.453.672-.875.219-2.157.219zm1.78-7.75h2.876q1.187 0 1.687-.14.672-.204 1.016-.673.344-.468.344-1.171 0-.657-.328-1.157-.313-.515-.907-.703-.593-.187-2.03-.187h-2.657zm0 6.172h3.313q.86 0 1.204-.063.609-.109 1.015-.359.422-.266.688-.75t.265-1.125q0-.75-.39-1.297-.375-.547-1.063-.766-.672-.234-1.953-.234h-3.078zm16.866 1.578v-1.422q-1.125 1.64-3.062 1.64-.86 0-1.61-.327-.734-.329-1.093-.829-.36-.5-.5-1.218-.11-.469-.11-1.532v-5.984h1.641v5.36q0 1.28.11 1.734.156.64.656 1.015t1.234.375 1.375-.375q.656-.39.922-1.03.265-.657.265-1.891v-5.188h1.641v9.672zm4.048-11.469v-1.89h1.64v1.89zm0 11.469v-9.672h1.64v9.672zm4.098 0v-13.36h1.64v13.36zm10.457 0v-1.219q-.906 1.438-2.703 1.438-1.156 0-2.125-.64-.969-.642-1.5-1.782t-.531-2.625q0-1.453.484-2.625.485-1.188 1.438-1.813.968-.625 2.172-.625.875 0 1.546.375.688.36 1.11.953v-4.796h1.64v13.359zm-5.172-4.828q0 1.86.782 2.781.78.922 1.843.922 1.078 0 1.828-.875.75-.89.75-2.687 0-1.985-.765-2.907-.766-.937-1.89-.937-1.079 0-1.813.89-.735.891-.735 2.813m14.653 4.828v-13.36h1.813l7.015 10.485v-10.484h1.688v13.359h-1.813l-7.015-10.5v10.5zm19.91-3.11 1.688.204q-.406 1.484-1.484 2.312-1.078.813-2.766.813-2.125 0-3.375-1.297-1.234-1.313-1.234-3.672 0-2.453 1.25-3.797 1.265-1.344 3.265-1.344 1.938 0 3.157 1.328 1.234 1.313 1.234 3.704v.437h-7.219q.094 1.594.906 2.453.813.844 2.016.844.906 0 1.547-.469.64-.484 1.016-1.515m-5.39-2.656h5.406q-.11-1.218-.625-1.828-.781-.953-2.031-.953-1.125 0-1.906.766-.766.75-.844 2.015m10.923 5.766-2.97-9.672h1.704l1.531 5.578.578 2.078q.047-.156.5-2l1.547-5.656h1.688l1.437 5.61.485 1.843.562-1.86 1.656-5.593h1.594l-3.031 9.672h-1.703l-1.532-5.797-.375-1.64-1.953 7.437zM76.595 169.42l-3.532-13.36h1.813l2.031 8.766q.328 1.375.563 2.719.5-2.14.593-2.469l2.547-9.015h2.125l1.922 6.765q.719 2.516 1.031 4.719.266-1.266.672-2.89l2.094-8.594h1.781l-3.672 13.359H84.86l-2.812-10.172q-.36-1.281-.422-1.562-.203.906-.39 1.562l-2.829 10.172zm14.13-4.844q0-2.687 1.485-3.969 1.25-1.078 3.047-1.078 2 0 3.265 1.313 1.266 1.297 1.266 3.61 0 1.859-.562 2.937-.563 1.062-1.641 1.656-1.063.594-2.328.594-2.031 0-3.281-1.297-1.25-1.313-1.25-3.766m1.688 0q0 1.86.797 2.797.812.922 2.047.922 1.219 0 2.031-.922.813-.937.813-2.844 0-1.797-.813-2.718-.812-.922-2.031-.922-1.235 0-2.047.922-.797.906-.797 2.765m9.282 4.844v-9.672h1.469v1.469q.562-1.031 1.031-1.36.484-.328 1.062-.328.829 0 1.688.532l-.563 1.515q-.609-.36-1.203-.36-.547 0-.968.329-.422.328-.61.89-.281.876-.281 1.922v5.063zm6.228 0v-13.36h1.64v7.626l3.892-3.938h2.109l-3.688 3.594 4.063 6.078h-2.016l-3.203-4.953-1.156 1.125v3.828zm9.282 0v-13.36h1.64v13.36zm3.582-4.844q0-2.687 1.484-3.969 1.25-1.078 3.047-1.078 2 0 3.266 1.313 1.265 1.297 1.265 3.61 0 1.859-.562 2.937-.563 1.062-1.64 1.656-1.063.594-2.329.594-2.031 0-3.281-1.297-1.25-1.313-1.25-3.766m1.687 0q0 1.86.797 2.797.813.922 2.047.922 1.219 0 2.031-.922.813-.937.813-2.844 0-1.797-.813-2.718-.812-.922-2.03-.922-1.235 0-2.048.922-.797.906-.797 2.765m15.61 3.656q-.921.766-1.765 1.094-.828.313-1.797.313-1.594 0-2.453-.782-.86-.78-.86-1.984 0-.719.329-1.297.328-.594.843-.937.532-.36 1.188-.547.469-.125 1.453-.25 1.984-.235 2.922-.563.015-.343.015-.422 0-1-.468-1.421-.625-.547-1.875-.547-1.157 0-1.703.406-.547.406-.813 1.422l-1.61-.219q.22-1.016.72-1.64.5-.641 1.453-.985t2.187-.344q1.25 0 2.016.297.781.281 1.14.735.375.437.516 1.109.078.422.078 1.516v2.187q0 2.281.11 2.89.109.594.406 1.157h-1.703q-.266-.516-.329-1.187m-.14-3.671q-.89.375-2.672.625-1.016.14-1.438.328-.421.187-.656.531-.219.344-.219.781 0 .656.5 1.094t1.454.438q.937 0 1.671-.407.75-.422 1.094-1.14.266-.563.266-1.641zm10.47 4.859v-1.219q-.907 1.438-2.704 1.438-1.156 0-2.125-.64-.969-.642-1.5-1.782t-.531-2.625q0-1.453.484-2.625.485-1.188 1.438-1.813.969-.625 2.172-.625.875 0 1.547.375.687.36 1.109.953v-4.796h1.64v13.359zm-5.173-4.828q0 1.86.782 2.781.78.922 1.843.922 1.079 0 1.829-.875.75-.89.75-2.687 0-1.985-.766-2.907-.766-.937-1.89-.937-1.079 0-1.813.89-.735.891-.735 2.813"/>
    <path d="M131.258 87.76v31.496"/>
    <path stroke="#000" stroke-linejoin="round" stroke-linecap="butt" d="M131.258 87.76v25.496"/>
    <path fill="#000" stroke="#000" stroke-linecap="butt" d="m129.607 113.256 1.651 4.538 1.652-4.538z" fill-rule="evenodd"/>
    <path d="m131.257 183.743.725 32.693"/>
    <path stroke="#000" stroke-linejoin="round" stroke-linecap="butt" d="m131.257 183.743.592 26.694"/>
    <path fill="#000" stroke="#000" stroke-linecap="butt" d="m130.197 210.474 1.752 4.5 1.551-4.573z" fill-rule="evenodd"/>
    <path fill="#cfe2f3" d="M54.465 299.155H208.05c21.206 0 38.396 14.435 38.396 32.241 0 17.807-17.19 32.242-38.396 32.242H54.465c-21.206 0-38.397-14.435-38.397-32.242s17.19-32.241 38.397-32.241" fill-rule="evenodd"/>
    <path d="M208.05 363.638c-21.206 0-38.396-14.435-38.396-32.242s17.19-32.241 38.396-32.241"/>
    <path d="M54.465 299.155H208.05c21.206 0 38.396 14.435 38.396 32.241 0 17.807-17.19 32.242-38.396 32.242H54.465c-21.206 0-38.397-14.435-38.397-32.242s17.19-32.241 38.397-32.241"/>
    <path stroke="#000" stroke-linejoin="round" stroke-linecap="butt" d="M208.05 363.638c-21.206 0-38.396-14.435-38.396-32.242s17.19-32.241 38.396-32.241"/>
    <path stroke="#000" stroke-linejoin="round" stroke-linecap="butt" d="M54.465 299.155H208.05c21.206 0 38.396 14.435 38.396 32.241 0 17.807-17.19 32.242-38.396 32.242H54.465c-21.206 0-38.397-14.435-38.397-32.242s17.19-32.241 38.397-32.241z"/>
    <path fill="#000" d="M79.832 316.316v-13.36h5.922q1.78 0 2.703.36.937.36 1.484 1.282.563.906.563 2.015 0 1.406-.922 2.39-.922.97-2.844 1.235.703.344 1.078.672.766.703 1.453 1.766l2.328 3.64H89.38l-1.766-2.78q-.781-1.204-1.281-1.83-.5-.64-.906-.89-.391-.265-.797-.36-.297-.077-.985-.077h-2.047v5.937zm1.765-7.453h3.797q1.219 0 1.89-.25.688-.265 1.048-.812t.36-1.188q0-.953-.688-1.562t-2.188-.61h-4.219zm10.864 2.61q0-2.688 1.484-3.97 1.25-1.077 3.047-1.077 2 0 3.266 1.312 1.265 1.297 1.265 3.61 0 1.859-.562 2.937-.563 1.063-1.64 1.656-1.063.594-2.329.594-2.031 0-3.281-1.297-1.25-1.312-1.25-3.765m1.687 0q0 1.859.797 2.796.813.922 2.047.922 1.219 0 2.031-.922.813-.937.813-2.843 0-1.797-.813-2.72-.812-.921-2.03-.921-1.235 0-2.048.922-.797.906-.797 2.766m9.251 4.843v-13.36h1.64v13.36zm4.145 0v-13.36h1.64v13.36zm9.047-6.5q0-3.328 1.781-5.203 1.781-1.89 4.61-1.89 1.843 0 3.328.89 1.484.875 2.265 2.469.782 1.578.782 3.578 0 2.031-.829 3.64-.812 1.594-2.312 2.423-1.5.828-3.25.828-1.875 0-3.36-.907-1.484-.921-2.25-2.5-.765-1.578-.765-3.328m1.812.016q0 2.422 1.297 3.812 1.297 1.391 3.266 1.391 2 0 3.281-1.406t1.281-3.985q0-1.625-.546-2.843-.547-1.22-1.61-1.875-1.062-.672-2.375-.672-1.89 0-3.25 1.297-1.344 1.28-1.344 4.28m19.356 6.484v-1.422q-1.125 1.641-3.063 1.641-.86 0-1.61-.328-.734-.328-1.093-.828-.36-.5-.5-1.219-.11-.469-.11-1.531v-5.985h1.641v5.36q0 1.281.11 1.734.156.64.656 1.016.5.375 1.234.375.735 0 1.375-.375.656-.39.922-1.031.266-.657.266-1.891v-5.188h1.64v9.672zm7.625-1.468.235 1.453q-.688.14-1.235.14-.89 0-1.39-.28-.485-.282-.688-.735-.203-.47-.203-1.938v-5.578H140.9v-1.266h1.203v-2.39l1.625-.985v3.375h1.656v1.266h-1.656v5.672q0 .687.078.89.094.204.281.329.204.11.579.11.265 0 .718-.063M94.82 338.316v-13.36h1.813l7.015 10.485v-10.484h1.688v13.36h-1.813l-7.015-10.5v10.5zm19.91-3.11 1.688.204q-.406 1.484-1.484 2.313-1.078.812-2.766.812-2.125 0-3.375-1.297-1.234-1.312-1.234-3.672 0-2.453 1.25-3.797 1.265-1.343 3.265-1.343 1.938 0 3.157 1.328 1.234 1.312 1.234 3.703v.437h-7.219q.094 1.594.906 2.454.813.843 2.016.843.906 0 1.547-.468.64-.485 1.016-1.516m-5.39-2.655h5.406q-.11-1.22-.625-1.828-.781-.954-2.031-.954-1.125 0-1.906.766-.766.75-.844 2.016m10.923 5.765-2.97-9.672h1.704l1.531 5.579.578 2.078q.047-.157.5-2l1.547-5.657h1.688l1.437 5.61.485 1.844.562-1.86 1.656-5.594h1.594l-3.031 9.672h-1.703l-1.532-5.797-.375-1.64-1.953 7.437zm-43.669 21.999-3.532-13.36h1.813l2.031 8.767q.328 1.375.563 2.718.5-2.14.593-2.468l2.547-9.016h2.125l1.922 6.766q.719 2.515 1.031 4.718.266-1.265.672-2.89l2.094-8.594h1.781l-3.672 13.36H84.86l-2.812-10.173q-.36-1.28-.422-1.562-.203.906-.39 1.562l-2.829 10.172zm14.13-4.843q0-2.688 1.485-3.97 1.25-1.077 3.047-1.077 2 0 3.265 1.312 1.266 1.297 1.266 3.61 0 1.859-.562 2.937-.563 1.063-1.641 1.656-1.063.594-2.328.594-2.031 0-3.281-1.297-1.25-1.312-1.25-3.765m1.688 0q0 1.859.797 2.796.812.922 2.047.922 1.219 0 2.031-.922.813-.937.813-2.843 0-1.797-.813-2.72-.812-.921-2.031-.921-1.235 0-2.047.922-.797.906-.797 2.766m9.282 4.843v-9.672h1.469v1.47q.562-1.032 1.031-1.36.484-.328 1.062-.328.829 0 1.688.53l-.563 1.517q-.609-.36-1.203-.36-.547 0-.968.328-.422.328-.61.89-.281.876-.281 1.923v5.062zm6.228 0v-13.36h1.64v7.626l3.892-3.938h2.109l-3.688 3.594 4.063 6.078h-2.016l-3.203-4.953-1.156 1.125v3.828zm9.282 0v-13.36h1.64v13.36zm3.582-4.843q0-2.688 1.484-3.97 1.25-1.077 3.047-1.077 2 0 3.266 1.312 1.265 1.297 1.265 3.61 0 1.859-.562 2.937-.563 1.063-1.64 1.656-1.063.594-2.329.594-2.031 0-3.281-1.297-1.25-1.312-1.25-3.765m1.687 0q0 1.859.797 2.796.813.922 2.047.922 1.219 0 2.031-.922.813-.937.813-2.843 0-1.797-.813-2.72-.812-.921-2.03-.921-1.235 0-2.048.922-.797.906-.797 2.766m15.61 3.656q-.921.765-1.765 1.094-.828.312-1.797.312-1.594 0-2.453-.781-.86-.781-.86-1.985 0-.718.329-1.296.328-.594.843-.938.532-.36 1.188-.547.469-.125 1.453-.25 1.984-.234 2.922-.562.015-.344.015-.422 0-1-.468-1.422-.625-.547-1.875-.547-1.157 0-1.703.406-.547.407-.813 1.422l-1.61-.219q.22-1.015.72-1.64.5-.64 1.453-.985.953-.343 2.187-.343 1.25 0 2.016.297.781.28 1.14.734.375.437.516 1.11.078.421.078 1.515v2.187q0 2.282.11 2.891.109.594.406 1.156h-1.703q-.266-.515-.329-1.187m-.14-3.672q-.89.375-2.672.625-1.016.14-1.438.328t-.656.531q-.219.344-.219.782 0 .656.5 1.093.5.438 1.454.438.937 0 1.671-.406.75-.422 1.094-1.141.266-.563.266-1.64zm10.47 4.86v-1.22q-.907 1.438-2.704 1.438-1.156 0-2.125-.64-.969-.641-1.5-1.782-.531-1.14-.531-2.625 0-1.453.484-2.625.485-1.187 1.438-1.812.969-.625 2.172-.625.875 0 1.547.375.687.36 1.109.953v-4.797h1.64v13.36zm-5.173-4.829q0 1.86.782 2.781.78.922 1.843.922 1.079 0 1.829-.875.75-.89.75-2.687 0-1.985-.766-2.906-.766-.938-1.89-.938-1.079 0-1.813.89-.735.891-.735 2.813"/>
    <path d="m131.99 261.942-.725 37.229"/>
    <path stroke="#000" stroke-linejoin="round" stroke-linecap="butt" d="m131.99 261.942-.608 31.23"/>
    <path fill="#000" stroke="#000" stroke-linecap="butt" d="m129.73 293.14 1.564 4.569 1.74-4.505z" fill-rule="evenodd"/>
    <path fill="#cfe2f3" d="m27.769 447.933 103.488-48.883 103.488 48.883-103.488 48.883z" fill-rule="evenodd"/>
    <path stroke="#000" stroke-linejoin="round" stroke-linecap="butt" d="m27.769 447.933 103.488-48.883 103.488 48.883-103.488 48.883z"/>
    <path fill="#000" d="m91.66 450.556 1.656-.14q.125 1 .546 1.64.438.64 1.344 1.047.922.39 2.063.39 1 0 1.781-.296.781-.297 1.156-.813.375-.53.375-1.156t-.375-1.094q-.36-.468-1.187-.797-.547-.203-2.39-.64-1.829-.453-2.563-.844-.97-.5-1.438-1.234-.469-.75-.469-1.672 0-1 .578-1.875.579-.89 1.672-1.344 1.11-.453 2.453-.453 1.485 0 2.61.484 1.14.47 1.75 1.407.61.921.656 2.093l-1.687.125q-.141-1.265-.938-1.906-.781-.656-2.312-.656-1.61 0-2.344.594-.735.593-.735 1.421 0 .72.532 1.172.5.47 2.656.97 2.156.483 2.953.843 1.172.531 1.719 1.36.562.827.562 1.905 0 1.063-.609 2.016-.61.938-1.75 1.469-1.14.515-2.578.515-1.813 0-3.047-.53-1.219-.532-1.922-1.595-.687-1.062-.719-2.406m19.162 4.297v-1.422q-1.125 1.64-3.063 1.64-.86 0-1.61-.327-.734-.328-1.093-.828-.36-.5-.5-1.22-.11-.468-.11-1.53v-5.985h1.641v5.36q0 1.28.11 1.734.156.64.656 1.016.5.375 1.234.375.735 0 1.375-.375.657-.391.922-1.032.266-.656.266-1.89v-5.188h1.64v9.672zm10.36-3.547 1.61.219q-.266 1.656-1.36 2.61-1.078.937-2.672.937-1.984 0-3.188-1.297-1.203-1.297-1.203-3.719 0-1.578.516-2.75t1.578-1.75q1.063-.594 2.313-.594 1.578 0 2.578.797t1.28 2.266l-1.593.234q-.234-.968-.812-1.453-.578-.5-1.391-.5-1.234 0-2.016.89-.78.891-.78 2.813 0 1.953.75 2.844.75.875 1.952.875.969 0 1.61-.594.656-.593.828-1.828m9.328 0 1.61.219q-.266 1.656-1.36 2.61-1.078.937-2.672.937-1.984 0-3.187-1.297-1.204-1.297-1.204-3.719 0-1.578.516-2.75t1.578-1.75q1.063-.594 2.313-.594 1.578 0 2.578.797t1.281 2.266l-1.594.234q-.234-.968-.812-1.453-.578-.5-1.39-.5-1.235 0-2.016.89-.782.891-.782 2.813 0 1.953.75 2.844.75.875 1.953.875.97 0 1.61-.594.656-.593.828-1.828m9.64.438 1.688.203q-.406 1.484-1.484 2.312-1.078.813-2.766.813-2.125 0-3.375-1.297-1.234-1.313-1.234-3.672 0-2.453 1.25-3.797 1.265-1.344 3.265-1.344 1.938 0 3.157 1.329 1.234 1.312 1.234 3.703v.437h-7.219q.094 1.594.906 2.453.813.844 2.016.844.906 0 1.547-.469.64-.484 1.016-1.515m-5.39-2.657h5.406q-.11-1.218-.625-1.828-.781-.953-2.031-.953-1.125 0-1.906.766-.766.75-.844 2.015m8.485 2.875 1.625-.25q.125.97.75 1.5.625.516 1.75.516t1.672-.453q.547-.469.547-1.094 0-.547-.485-.875-.328-.219-1.672-.547-1.812-.468-2.515-.797-.688-.328-1.047-.906-.36-.594-.36-1.312 0-.64.297-1.188.297-.562.813-.922.375-.28 1.031-.468.672-.204 1.422-.204 1.14 0 2 .329.86.328 1.266.89.422.563.578 1.5l-1.61.219q-.109-.75-.64-1.172-.516-.422-1.469-.422-1.14 0-1.625.375-.469.375-.469.875 0 .313.188.578.203.266.64.438.235.094 1.438.422 1.75.453 2.437.75.688.297 1.079.86.39.562.39 1.405 0 .828-.484 1.547-.469.719-1.375 1.125-.906.39-2.047.39-1.875 0-2.875-.78-.984-.782-1.25-2.329m9.328 0 1.625-.25q.125.97.75 1.5.625.516 1.75.516t1.672-.453q.547-.469.547-1.094 0-.547-.485-.875-.328-.219-1.671-.547-1.813-.468-2.516-.797-.688-.328-1.047-.906-.36-.594-.36-1.312 0-.64.298-1.188.296-.562.812-.922.375-.28 1.031-.468.672-.204 1.422-.204 1.14 0 2 .329.86.328 1.266.89.422.563.578 1.5l-1.61.219q-.109-.75-.64-1.172-.516-.422-1.469-.422-1.14 0-1.625.375-.469.375-.469.875 0 .313.188.578.203.266.64.438.235.094 1.438.422 1.75.453 2.438.75.687.297 1.078.86.39.562.39 1.405 0 .828-.484 1.547-.469.719-1.375 1.125-.906.39-2.047.39-1.875 0-2.875-.78-.984-.782-1.25-2.329m13.047-.39v-.5q0-.969.266-1.672.203-.516.64-1.063.328-.39 1.172-1.14.86-.75 1.11-1.188.265-.453.265-.984 0-.953-.75-1.672-.734-.734-1.828-.734-1.047 0-1.75.656t-.922 2.047l-1.687-.203q.234-1.86 1.359-2.844 1.125-1 2.969-1 1.968 0 3.125 1.062 1.172 1.063 1.172 2.579 0 .875-.407 1.609t-1.609 1.797q-.797.703-1.047 1.047t-.375.78q-.11.438-.125 1.423zm-.094 3.281v-1.875h1.86v1.875z"/>
    <path d="M131.257 363.638v35.401"/>
    <path stroke="#000" stroke-linejoin="round" stroke-linecap="butt" d="M131.257 363.638v29.401"/>
    <path fill="#000" stroke="#000" stroke-linecap="butt" d="m129.605 393.04 1.652 4.537 1.652-4.538z" fill-rule="evenodd"/>
    <path fill="#cfe2f3" d="M340.51 291.16h199.684v80.473H340.51z" fill-rule="evenodd"/>
    <path stroke="#000" stroke-linejoin="round" stroke-linecap="butt" d="M340.51 291.16h199.684v80.473H340.51z"/>
    <path fill="#000" d="m360.649 316.316 5.125-13.36h1.906l5.469 13.36h-2.016l-1.547-4.047h-5.593l-1.47 4.047zm3.86-5.484h4.53l-1.406-3.703q-.625-1.688-.937-2.766-.266 1.281-.719 2.547zm16.115 5.484v-1.218q-.907 1.437-2.703 1.437-1.157 0-2.125-.64-.97-.641-1.5-1.782-.532-1.14-.532-2.625 0-1.453.485-2.625.484-1.187 1.437-1.812.969-.625 2.172-.625.875 0 1.547.375.687.36 1.11.953v-4.797h1.64v13.36zm-5.172-4.828q0 1.86.781 2.781.781.922 1.844.922 1.078 0 1.828-.875.75-.89.75-2.687 0-1.985-.766-2.906-.765-.938-1.89-.938-1.078 0-1.813.89-.734.891-.734 2.813m15.547 4.828v-1.218q-.906 1.437-2.703 1.437-1.156 0-2.125-.64-.968-.641-1.5-1.782-.53-1.14-.53-2.625 0-1.453.483-2.625.485-1.187 1.438-1.812.969-.625 2.172-.625.875 0 1.547.375.687.36 1.11.953v-4.797h1.64v13.36zm-5.171-4.828q0 1.86.78 2.781.782.922 1.845.922 1.078 0 1.828-.875.75-.89.75-2.687 0-1.985-.766-2.906-.766-.938-1.89-.938-1.079 0-1.813.89-.734.891-.734 2.813m14.652 4.828v-13.36h1.813l7.015 10.485v-10.484h1.688v13.36h-1.813l-7.015-10.5v10.5zm19.91-3.11 1.688.204q-.406 1.484-1.484 2.313-1.078.812-2.766.812-2.125 0-3.375-1.297-1.234-1.312-1.234-3.672 0-2.453 1.25-3.797 1.266-1.343 3.266-1.343 1.937 0 3.156 1.328 1.234 1.312 1.234 3.703v.437h-7.219q.094 1.594.907 2.454.812.843 2.015.843.907 0 1.547-.468.64-.485 1.016-1.516m-5.39-2.655h5.406q-.109-1.22-.625-1.828-.78-.954-2.03-.954-1.126 0-1.907.766-.766.75-.844 2.016m10.923 5.765-2.969-9.672h1.703l1.531 5.579.578 2.078q.047-.157.5-2l1.547-5.657h1.688l1.437 5.61.485 1.844.562-1.86 1.656-5.594h1.594l-3.031 9.672h-1.703l-1.531-5.797-.375-1.64-1.954 7.437zm19.406 0-3.531-13.36h1.812l2.031 8.767q.329 1.375.563 2.718.5-2.14.594-2.468l2.547-9.016h2.125l1.921 6.766q.72 2.515 1.032 4.718.265-1.265.672-2.89l2.093-8.594h1.782l-3.672 13.36h-1.703l-2.813-10.173q-.36-1.28-.422-1.562-.203.906-.39 1.562l-2.829 10.172zm14.13-4.843q0-2.688 1.485-3.97 1.25-1.077 3.047-1.077 2 0 3.266 1.312 1.265 1.297 1.265 3.61 0 1.859-.562 2.937-.563 1.063-1.64 1.656-1.063.594-2.329.594-2.031 0-3.281-1.297-1.25-1.312-1.25-3.765m1.688 0q0 1.859.797 2.796.813.922 2.047.922 1.219 0 2.031-.922.813-.937.813-2.843 0-1.797-.813-2.72-.812-.921-2.031-.921-1.234 0-2.047.922-.797.906-.797 2.766m9.282 4.843v-9.672h1.469v1.47q.563-1.032 1.031-1.36.485-.328 1.063-.328.828 0 1.687.53l-.562 1.517q-.61-.36-1.203-.36-.547 0-.97.328-.421.328-.608.89-.282.876-.282 1.923v5.062zm6.229 0v-13.36h1.64v7.626l3.89-3.938h2.11l-3.687 3.594 4.062 6.078h-2.015l-3.204-4.953-1.156 1.125v3.828zm9.28 0v-13.36h1.641v13.36zm3.583-4.843q0-2.688 1.484-3.97 1.25-1.077 3.047-1.077 2 0 3.266 1.312 1.266 1.297 1.266 3.61 0 1.859-.563 2.937-.562 1.063-1.64 1.656-1.063.594-2.329.594-2.03 0-3.28-1.297-1.25-1.312-1.25-3.765m1.688 0q0 1.859.796 2.796.813.922 2.047.922 1.22 0 2.032-.922.812-.937.812-2.843 0-1.797-.812-2.72-.813-.921-2.032-.921-1.234 0-2.047.922-.796.906-.796 2.766m15.61 3.656q-.922.765-1.766 1.094-.828.312-1.797.312-1.594 0-2.453-.781-.86-.781-.86-1.985 0-.718.329-1.296.328-.594.844-.938.53-.36 1.187-.547.469-.125 1.453-.25 1.985-.234 2.922-.562.016-.344.016-.422 0-1-.469-1.422-.625-.547-1.875-.547-1.156 0-1.703.406t-.813 1.422l-1.609-.219q.219-1.015.719-1.64.5-.64 1.453-.985.953-.343 2.187-.343 1.25 0 2.016.297.781.28 1.14.734.376.437.516 1.11.078.421.078 1.515v2.187q0 2.282.11 2.891.11.594.406 1.156h-1.703q-.266-.515-.328-1.187m-.14-3.672q-.892.375-2.673.625-1.015.14-1.437.328t-.657.531q-.218.344-.218.782 0 .656.5 1.093.5.438 1.453.438.937 0 1.672-.406.75-.422 1.093-1.141.266-.563.266-1.64zm10.469 4.86v-1.22q-.907 1.438-2.704 1.438-1.156 0-2.125-.64-.968-.641-1.5-1.782-.53-1.14-.53-2.625 0-1.453.484-2.625.484-1.187 1.437-1.812.969-.625 2.172-.625.875 0 1.547.375.687.36 1.11.953v-4.797h1.64v13.36zm-5.172-4.829q0 1.86.781 2.781.781.922 1.844.922 1.078 0 1.828-.875.75-.89.75-2.687 0-1.985-.766-2.906-.765-.938-1.89-.938-1.079 0-1.813.89-.734.891-.734 2.813m-142.302 26.827v-13.36h2.656l3.157 9.454q.437 1.328.64 1.984.235-.734.703-2.14l3.203-9.297h2.375v13.36h-1.703v-11.173l-3.875 11.172h-1.593l-3.86-11.375v11.375zm22.01-3.11 1.687.204q-.406 1.484-1.484 2.313-1.078.812-2.766.812-2.125 0-3.375-1.297-1.234-1.312-1.234-3.672 0-2.453 1.25-3.797 1.265-1.343 3.265-1.343 1.938 0 3.157 1.328 1.234 1.312 1.234 3.703v.437h-7.219q.094 1.594.907 2.454.812.843 2.015.843.906 0 1.547-.468.64-.485 1.016-1.516m-5.391-2.655h5.406q-.11-1.22-.625-1.828-.781-.954-2.031-.954-1.125 0-1.906.766-.766.75-.844 2.016m15.454 4.578q-.922.765-1.766 1.094-.828.312-1.797.312-1.593 0-2.453-.781t-.86-1.985q0-.718.329-1.296.328-.594.844-.938.531-.36 1.187-.547.469-.125 1.453-.25 1.985-.234 2.922-.562.016-.344.016-.422 0-1-.469-1.422-.625-.547-1.875-.547-1.156 0-1.703.406t-.812 1.422l-1.61-.219q.219-1.015.719-1.64.5-.64 1.453-.985.953-.343 2.188-.343 1.25 0 2.015.297.781.28 1.14.734.376.437.516 1.11.079.421.079 1.515v2.187q0 2.282.109 2.891.11.594.406 1.156h-1.703q-.266-.515-.328-1.187m-.14-3.672q-.891.375-2.673.625-1.015.14-1.437.328t-.656.531q-.22.344-.22.782 0 .656.5 1.093.5.438 1.454.438.938 0 1.672-.406.75-.422 1.094-1.141.265-.563.265-1.64zm3.547 1.969 1.625-.25q.125.968.75 1.5.625.515 1.75.515t1.672-.453q.547-.469.547-1.094 0-.546-.485-.875-.328-.218-1.672-.546-1.812-.47-2.515-.797-.688-.328-1.047-.907-.36-.593-.36-1.312 0-.64.297-1.188.297-.562.813-.921.375-.282 1.031-.47.672-.202 1.422-.202 1.14 0 2 .328t1.266.89q.421.563.578 1.5l-1.61.22q-.109-.75-.64-1.173-.516-.422-1.469-.422-1.14 0-1.625.375-.469.375-.469.875 0 .313.188.579.203.265.64.437.235.094 1.438.422 1.75.453 2.437.75.688.297 1.078.86t.391 1.406q0 .828-.484 1.546-.469.72-1.375 1.125-.907.391-2.047.391-1.875 0-2.875-.781-.985-.781-1.25-2.328m16.312 2.89v-1.422q-1.125 1.641-3.062 1.641-.86 0-1.61-.328-.734-.328-1.093-.828-.36-.5-.5-1.219-.11-.469-.11-1.531v-5.985h1.641v5.36q0 1.281.11 1.734.156.64.656 1.016.5.375 1.234.375t1.375-.375q.656-.39.922-1.031.265-.657.265-1.891v-5.188h1.641v9.672zm4.032 0v-9.672h1.47v1.47q.562-1.032 1.03-1.36.485-.328 1.063-.328.828 0 1.687.53l-.562 1.517q-.61-.36-1.203-.36-.547 0-.97.328-.42.328-.608.89-.282.876-.282 1.923v5.062zm12.854-3.11 1.687.204q-.406 1.484-1.484 2.313-1.078.812-2.766.812-2.125 0-3.375-1.297-1.234-1.312-1.234-3.672 0-2.453 1.25-3.797 1.265-1.343 3.265-1.343 1.938 0 3.157 1.328 1.234 1.312 1.234 3.703v.437h-7.219q.094 1.594.906 2.454.813.843 2.016.843.906 0 1.547-.468.64-.485 1.016-1.516m-5.391-2.655h5.406q-.11-1.22-.625-1.828-.781-.954-2.031-.954-1.125 0-1.906.766-.766.75-.844 2.016m9.141 5.765v-9.672h1.47v1.36q.452-.719 1.202-1.14.766-.438 1.719-.438 1.078 0 1.766.453.687.437.968 1.234 1.157-1.687 2.985-1.687 1.453 0 2.218.797.782.796.782 2.453v6.64h-1.64v-6.093q0-.985-.157-1.407-.156-.437-.578-.703t-.985-.265q-1.015 0-1.687.687-.672.672-.672 2.156v5.625h-1.64v-6.28q0-1.095-.407-1.642t-1.312-.546q-.688 0-1.282.359-.593.36-.86 1.062-.25.704-.25 2.032v5.015zm22.166-3.11 1.688.204q-.407 1.484-1.485 2.313-1.078.812-2.765.812-2.125 0-3.375-1.297-1.235-1.312-1.235-3.672 0-2.453 1.25-3.797 1.266-1.343 3.266-1.343 1.937 0 3.156 1.328 1.234 1.312 1.234 3.703v.437h-7.218q.093 1.594.906 2.454.812.843 2.016.843.906 0 1.546-.468.641-.485 1.016-1.516m-5.39-2.655h5.406q-.11-1.22-.625-1.828-.782-.954-2.032-.954-1.125 0-1.906.766-.765.75-.844 2.016m9.14 5.765v-9.672h1.47v1.375q1.062-1.593 3.078-1.593.875 0 1.61.312.733.313 1.093.828.375.5.515 1.203.094.454.094 1.594v5.953h-1.64v-5.89q0-1-.204-1.485-.187-.5-.671-.797-.485-.296-1.141-.296-1.047 0-1.813.671-.75.657-.75 2.516v5.281zm13.955-1.468.234 1.453q-.687.14-1.234.14-.89 0-1.39-.28-.485-.282-.688-.735-.204-.47-.204-1.938v-5.578h-1.203v-1.266h1.203v-2.39l1.625-.985v3.375h1.657v1.266h-1.657v5.672q0 .687.079.89.093.204.28.329.204.11.579.11.266 0 .719-.063m.949-1.422 1.625-.25q.125.968.75 1.5.625.515 1.75.515t1.672-.453q.546-.469.546-1.094 0-.546-.484-.875-.328-.218-1.672-.546-1.812-.47-2.515-.797-.688-.328-1.047-.907-.36-.593-.36-1.312 0-.64.297-1.188.297-.562.813-.921.375-.282 1.03-.47.673-.202 1.423-.202 1.14 0 2 .328t1.265.89q.422.563.579 1.5l-1.61.22q-.11-.75-.64-1.173-.516-.422-1.47-.422-1.14 0-1.624.375-.469.375-.469.875 0 .313.188.579.203.265.64.437.235.094 1.438.422 1.75.453 2.437.75.688.297 1.078.86t.39 1.406q0 .828-.483 1.546-.47.72-1.375 1.125-.907.391-2.047.391-1.875 0-2.875-.781-.985-.781-1.25-2.328m18.745 1.422.235 1.453q-.688.14-1.235.14-.89 0-1.39-.28-.485-.282-.688-.735-.203-.47-.203-1.938v-5.578h-1.203v-1.266h1.203v-2.39l1.625-.985v3.375h1.656v1.266h-1.656v5.672q0 .687.078.89.094.204.282.329.203.11.578.11.265 0 .718-.063m.996-3.375q0-2.688 1.485-3.97 1.25-1.077 3.046-1.077 2 0 3.266 1.312 1.266 1.297 1.266 3.61 0 1.859-.563 2.937-.562 1.063-1.64 1.656-1.063.594-2.329.594-2.03 0-3.28-1.297-1.25-1.312-1.25-3.765m1.688 0q0 1.859.797 2.796.812.922 2.046.922 1.22 0 2.032-.922.812-.937.812-2.843 0-1.797-.812-2.72-.813-.921-2.032-.921-1.234 0-2.046.922-.797.906-.797 2.766m-115.258 26.84-5.172-13.36h1.922l3.469 9.704q.421 1.172.703 2.188.312-1.094.718-2.188l3.61-9.703h1.797l-5.235 13.36zm14.023-3.11 1.687.204q-.406 1.484-1.484 2.313-1.078.812-2.766.812-2.125 0-3.375-1.297-1.234-1.312-1.234-3.672 0-2.453 1.25-3.797 1.266-1.343 3.266-1.343 1.937 0 3.156 1.328 1.234 1.312 1.234 3.703v.437h-7.219q.094 1.594.907 2.454.812.843 2.015.843.907 0 1.547-.468.64-.485 1.016-1.516m-5.39-2.655h5.405q-.109-1.22-.625-1.828-.78-.954-2.03-.954-1.126 0-1.907.766-.766.75-.844 2.016m9.125 5.765v-9.672h1.469v1.47q.562-1.032 1.03-1.36.485-.328 1.063-.328.829 0 1.688.53l-.563 1.517q-.609-.36-1.203-.36-.547 0-.968.328-.422.328-.61.89-.281.876-.281 1.923v5.062zm6.228-11.468v-1.891h1.64v1.89zm0 11.468v-9.672h1.64v9.672zm4.536 0v-8.406h-1.454v-1.266h1.454v-1.03q0-.97.171-1.454.235-.64.829-1.031.593-.39 1.671-.39.688 0 1.532.155l-.25 1.438q-.5-.094-.953-.094-.75 0-1.063.328-.312.313-.312 1.188v.89h1.89v1.266h-1.89v8.406zm4.792-11.468v-1.891h1.64v1.89zm0 11.468v-9.672h1.64v9.672zm10.77-3.11 1.688.204q-.407 1.484-1.485 2.313-1.078.812-2.765.812-2.125 0-3.375-1.297-1.235-1.312-1.235-3.672 0-2.453 1.25-3.797 1.266-1.343 3.266-1.343 1.937 0 3.156 1.328 1.234 1.312 1.234 3.703v.437h-7.218q.093 1.594.906 2.454.812.843 2.016.843.906 0 1.546-.468.641-.485 1.016-1.516m-5.39-2.655h5.406q-.11-1.22-.625-1.828-.782-.954-2.032-.954-1.125 0-1.906.766-.765.75-.844 2.016m9.125 5.765v-9.672h1.469v1.47q.562-1.032 1.031-1.36.485-.328 1.063-.328.828 0 1.687.53l-.562 1.517q-.61-.36-1.203-.36-.547 0-.97.328-.421.328-.609.89-.28.876-.28 1.923v5.062zm11.615 0v-13.36h5.047q1.328 0 2.031.126.969.172 1.64.64.673.454 1.079 1.282t.406 1.828q0 1.703-1.094 2.89-1.078 1.172-3.922 1.172h-3.421v5.422zm1.766-7h3.453q1.718 0 2.437-.64t.719-1.797q0-.844-.422-1.438-.422-.593-1.125-.78-.437-.126-1.64-.126h-3.422zm9.865 2.157q0-2.688 1.484-3.97 1.25-1.077 3.047-1.077 2 0 3.266 1.312 1.266 1.297 1.266 3.61 0 1.859-.563 2.937-.562 1.063-1.64 1.656-1.063.594-2.329.594-2.031 0-3.281-1.297-1.25-1.312-1.25-3.765m1.688 0q0 1.859.796 2.796.813.922 2.047.922 1.219 0 2.032-.922.812-.937.812-2.843 0-1.797-.812-2.72-.813-.921-2.032-.921-1.234 0-2.047.922-.796.906-.796 2.766m9.25 4.843v-13.36h1.64v13.36zm4.192-11.468v-1.891h1.64v1.89zm0 11.468v-9.672h1.64v9.672zm10.457-3.547 1.61.22q-.266 1.655-1.36 2.609-1.078.937-2.672.937-1.984 0-3.187-1.297t-1.203-3.719q0-1.578.515-2.75.516-1.171 1.579-1.75 1.062-.593 2.312-.593 1.578 0 2.578.797 1 .796 1.281 2.265l-1.593.235q-.235-.97-.813-1.454-.578-.5-1.39-.5-1.235 0-2.016.891-.781.89-.781 2.813 0 1.953.75 2.843.75.875 1.953.875.969 0 1.61-.593.655-.594.827-1.829m2.938 7.266-.188-1.531q.547.14.938.14.547 0 .875-.187.328-.172.547-.5.156-.25.5-1.219.047-.14.14-.406l-3.672-9.688h1.766l2.016 5.594q.39 1.078.703 2.25.281-1.125.672-2.203l2.078-5.64h1.64l-3.687 9.828q-.594 1.609-.922 2.203-.437.812-1 1.187t-1.344.375q-.484 0-1.062-.203"/>
    <path d="M246.446 331.396h94.079"/>
    <path stroke="#000" stroke-linejoin="round" stroke-linecap="butt" d="M246.446 331.396h88.079"/>
    <path fill="#000" stroke="#000" stroke-linecap="butt" d="m334.525 333.048 4.538-1.652-4.538-1.651z" fill-rule="evenodd"/>
    <path fill="#cfe2f3" d="M340.51 398.404h199.684v97.764H340.51z" fill-rule="evenodd"/>
    <path stroke="#000" stroke-linejoin="round" stroke-linecap="butt" d="M340.51 398.404h199.684v97.764H340.51z"/>
    <path fill="#000" d="M389.978 421.206v-13.36h5.922q1.781 0 2.703.36.938.36 1.485 1.281.562.907.562 2.016 0 1.406-.922 2.39-.922.97-2.843 1.235.703.344 1.078.672.765.703 1.453 1.765l2.328 3.641h-2.219l-1.765-2.781q-.782-1.203-1.282-1.828-.5-.64-.906-.89-.39-.267-.797-.36-.297-.078-.984-.078h-2.047v5.937zm1.766-7.453h3.797q1.219 0 1.89-.25.688-.266 1.047-.813.36-.546.36-1.187 0-.953-.688-1.563-.687-.609-2.187-.609h-4.22zm18.098 4.344 1.687.203q-.406 1.484-1.484 2.312-1.078.813-2.766.813-2.125 0-3.375-1.297-1.234-1.313-1.234-3.672 0-2.453 1.25-3.797 1.266-1.344 3.266-1.344 1.937 0 3.156 1.329 1.234 1.312 1.234 3.703v.437h-7.218q.093 1.594.906 2.453.812.844 2.015.844.907 0 1.547-.469.64-.484 1.016-1.515m-5.39-2.657h5.406q-.11-1.218-.625-1.828-.782-.953-2.032-.953-1.125 0-1.906.766-.766.75-.844 2.015m9.14 5.766v-9.672h1.47v1.36q.452-.72 1.202-1.141.766-.438 1.72-.438 1.077 0 1.765.454.687.437.969 1.234 1.156-1.688 2.984-1.688 1.453 0 2.219.797.781.797.781 2.453v6.641h-1.64v-6.094q0-.984-.157-1.406-.156-.437-.578-.703t-.984-.266q-1.016 0-1.688.688-.672.672-.672 2.156v5.625h-1.64v-6.281q0-1.094-.407-1.64-.406-.548-1.312-.548-.688 0-1.281.36-.594.36-.86 1.062-.25.703-.25 2.031v5.016zm14.932-4.844q0-2.687 1.484-3.968 1.25-1.079 3.047-1.079 2 0 3.266 1.313 1.266 1.297 1.266 3.61 0 1.859-.563 2.937-.562 1.062-1.64 1.656-1.063.594-2.329.594-2.031 0-3.281-1.297-1.25-1.313-1.25-3.766m1.688 0q0 1.86.796 2.797.813.922 2.047.922 1.219 0 2.032-.922.812-.937.812-2.844 0-1.796-.812-2.718t-2.032-.922q-1.234 0-2.047.922-.796.906-.796 2.765m11.985 4.844-3.688-9.672h1.734l2.079 5.797q.328.938.625 1.938.203-.766.609-1.829l2.14-5.906h1.688l-3.656 9.672zm13.265-3.11 1.688.204q-.407 1.484-1.485 2.312-1.078.813-2.765.813-2.125 0-3.375-1.297-1.235-1.313-1.235-3.672 0-2.453 1.25-3.797 1.266-1.344 3.266-1.344 1.937 0 3.156 1.329 1.235 1.312 1.235 3.703v.437h-7.22q.095 1.594.907 2.453.813.844 2.016.844.906 0 1.547-.469.64-.484 1.015-1.515m-5.39-2.656h5.406q-.11-1.218-.625-1.828-.781-.953-2.031-.953-1.125 0-1.907.766-.765.75-.843 2.015m13.996-.734q0-3.328 1.781-5.203 1.782-1.89 4.61-1.89 1.844 0 3.328.89 1.484.875 2.266 2.469.78 1.578.78 3.578 0 2.031-.827 3.64-.813 1.594-2.313 2.422t-3.25.828q-1.875 0-3.36-.906-1.484-.922-2.25-2.5-.765-1.578-.765-3.328m1.813.016q0 2.422 1.297 3.812t3.265 1.39q2 0 3.281-1.405 1.282-1.407 1.282-3.985 0-1.625-.547-2.844t-1.61-1.875q-1.062-.671-2.375-.671-1.89 0-3.25 1.296-1.343 1.282-1.343 4.282m12.98 6.484v-13.36h1.64v13.36zm10.457 0v-1.219q-.906 1.438-2.703 1.438-1.156 0-2.125-.64-.969-.641-1.5-1.782-.531-1.14-.531-2.625 0-1.453.484-2.625.485-1.188 1.438-1.813.968-.625 2.172-.625.875 0 1.546.375.688.36 1.11.954v-4.797h1.64v13.36zm-5.172-4.828q0 1.86.782 2.781.78.922 1.843.922 1.078 0 1.828-.875.75-.89.75-2.687 0-1.985-.765-2.907-.766-.937-1.89-.937-1.079 0-1.813.89-.735.891-.735 2.813m-79.258 26.827-3.53-13.36h1.812l2.03 8.766q.329 1.375.563 2.72.5-2.142.594-2.47l2.547-9.015h2.125l1.922 6.765q.719 2.516 1.031 4.72.266-1.267.672-2.892l2.094-8.593h1.781l-3.672 13.36h-1.703l-2.812-10.173q-.36-1.281-.422-1.562-.203.906-.391 1.562l-2.828 10.172zm14.131-4.844q0-2.687 1.485-3.968 1.25-1.079 3.046-1.079 2 0 3.266 1.313 1.266 1.297 1.266 3.61 0 1.859-.563 2.937-.562 1.062-1.64 1.656-1.063.594-2.329.594-2.03 0-3.28-1.297-1.25-1.313-1.25-3.766m1.688 0q0 1.86.797 2.797.812.922 2.046.922 1.22 0 2.032-.922.812-.937.812-2.844 0-1.796-.812-2.718t-2.032-.922q-1.234 0-2.046.922-.797.906-.797 2.765m9.282 4.844v-9.672h1.468v1.469q.563-1.031 1.032-1.36.484-.328 1.062-.328.828 0 1.688.532l-.563 1.515q-.61-.359-1.203-.359-.547 0-.969.328t-.61.89q-.28.876-.28 1.923v5.062zm6.228 0v-13.36h1.64v7.626l3.891-3.938h2.11l-3.688 3.594 4.063 6.078h-2.016l-3.203-4.953-1.156 1.125v3.828zm9.281 0v-13.36h1.64v13.36zm3.583-4.844q0-2.687 1.484-3.968 1.25-1.079 3.047-1.079 2 0 3.265 1.313 1.266 1.297 1.266 3.61 0 1.859-.562 2.937-.563 1.062-1.641 1.656-1.063.594-2.328.594-2.031 0-3.281-1.297-1.25-1.313-1.25-3.766m1.687 0q0 1.86.797 2.797.812.922 2.047.922 1.219 0 2.031-.922.813-.937.813-2.844 0-1.796-.813-2.718t-2.031-.922q-1.235 0-2.047.922-.797.906-.797 2.765m15.61 3.657q-.922.765-1.766 1.093-.828.313-1.796.313-1.594 0-2.454-.781-.859-.782-.859-1.985 0-.719.328-1.297.328-.593.844-.937.531-.36 1.187-.547.47-.125 1.454-.25 1.984-.234 2.921-.563.016-.343.016-.421 0-1-.469-1.422-.625-.547-1.875-.547-1.156 0-1.703.406t-.812 1.422l-1.61-.219q.22-1.015.72-1.64.5-.641 1.452-.985.953-.344 2.188-.344 1.25 0 2.015.297.782.282 1.141.735.375.437.516 1.11.078.421.078 1.515v2.187q0 2.281.11 2.89.108.595.405 1.157h-1.703q-.265-.516-.328-1.187m-.14-3.672q-.891.375-2.672.625-1.016.14-1.438.328-.422.187-.656.531-.219.344-.219.781 0 .657.5 1.094t1.453.438q.938 0 1.672-.407.75-.422 1.094-1.14.265-.563.265-1.64zm10.469 4.86v-1.22q-.906 1.438-2.703 1.438-1.156 0-2.125-.64-.969-.641-1.5-1.782-.531-1.14-.531-2.625 0-1.453.484-2.625.484-1.188 1.437-1.813.97-.625 2.172-.625.875 0 1.547.375.688.36 1.11.954v-4.797h1.64v13.36zm-5.172-4.829q0 1.86.781 2.781.782.922 1.844.922 1.078 0 1.828-.875.75-.89.75-2.687 0-1.985-.765-2.907-.766-.937-1.891-.937-1.078 0-1.813.89-.734.891-.734 2.813M358.8 465.206v-13.36h2.657l3.156 9.454q.437 1.328.64 1.984.235-.734.704-2.14l3.203-9.297h2.375v13.36h-1.703v-11.173l-3.875 11.172h-1.594l-3.86-11.375v11.375zm22.01-3.11 1.687.204q-.406 1.484-1.484 2.312-1.078.813-2.766.813-2.125 0-3.375-1.297-1.234-1.313-1.234-3.672 0-2.453 1.25-3.797 1.266-1.344 3.266-1.344 1.937 0 3.156 1.329 1.234 1.312 1.234 3.703v.437h-7.218q.093 1.594.906 2.453.812.844 2.015.844.907 0 1.547-.469.64-.484 1.016-1.515m-5.39-2.656h5.406q-.11-1.218-.625-1.828-.782-.953-2.032-.953-1.125 0-1.906.766-.766.75-.844 2.015m15.453 4.579q-.922.765-1.765 1.093-.829.313-1.797.313-1.594 0-2.453-.781-.86-.782-.86-1.985 0-.719.328-1.297.328-.593.844-.937.531-.36 1.188-.547.468-.125 1.453-.25 1.984-.234 2.922-.563.015-.343.015-.421 0-1-.469-1.422-.625-.547-1.875-.547-1.156 0-1.703.406t-.812 1.422l-1.61-.219q.22-1.015.72-1.64.5-.641 1.452-.985.953-.344 2.188-.344 1.25 0 2.015.297.782.282 1.141.735.375.437.516 1.11.078.421.078 1.515v2.187q0 2.281.11 2.89.109.595.405 1.157H391.2q-.265-.516-.328-1.187m-.14-3.672q-.891.375-2.672.625-1.016.14-1.438.328-.422.187-.656.531-.219.344-.219.781 0 .657.5 1.094t1.453.438q.938 0 1.672-.407.75-.422 1.094-1.14.266-.563.266-1.64zm3.547 1.968 1.625-.25q.125.97.75 1.5.625.516 1.75.516t1.672-.453q.547-.469.547-1.094 0-.547-.485-.875-.328-.219-1.671-.547-1.813-.468-2.516-.797-.688-.328-1.047-.906-.36-.594-.36-1.312 0-.64.298-1.188.296-.562.812-.922.375-.28 1.031-.468.672-.204 1.422-.204 1.14 0 2 .329.86.328 1.266.89.422.563.578 1.5l-1.61.219q-.109-.75-.64-1.172-.516-.422-1.469-.422-1.14 0-1.625.375-.469.375-.469.875 0 .313.188.578.203.266.64.438.235.094 1.438.422 1.75.453 2.438.75.687.297 1.078.86.39.562.39 1.405 0 .828-.484 1.547-.469.719-1.375 1.125-.906.39-2.047.39-1.875 0-2.875-.78-.984-.782-1.25-2.329m16.313 2.891v-1.422q-1.125 1.64-3.063 1.64-.86 0-1.61-.327-.734-.328-1.093-.828-.36-.5-.5-1.22-.11-.468-.11-1.53v-5.985h1.641v5.36q0 1.28.11 1.734.156.64.656 1.016.5.375 1.234.375.735 0 1.375-.375.656-.391.922-1.032.266-.656.266-1.89v-5.188h1.64v9.672zm4.032 0v-9.672h1.468v1.469q.563-1.031 1.032-1.36.484-.328 1.062-.328.828 0 1.688.532l-.563 1.515q-.61-.359-1.203-.359-.547 0-.969.328t-.61.89q-.28.876-.28 1.923v5.062zm12.853-3.11 1.687.204q-.406 1.484-1.484 2.312-1.078.813-2.766.813-2.125 0-3.375-1.297-1.234-1.313-1.234-3.672 0-2.453 1.25-3.797 1.266-1.344 3.266-1.344 1.937 0 3.156 1.329 1.234 1.312 1.234 3.703v.437h-7.219q.094 1.594.907 2.453.812.844 2.015.844.907 0 1.547-.469.64-.484 1.016-1.515m-5.39-2.656h5.405q-.109-1.218-.625-1.828-.78-.953-2.03-.953-1.126 0-1.907.766-.766.75-.844 2.015m9.14 5.766v-9.672h1.47v1.36q.452-.72 1.202-1.141.766-.438 1.72-.438 1.077 0 1.765.454.687.437.969 1.234 1.156-1.688 2.984-1.688 1.453 0 2.219.797.78.797.78 2.453v6.641h-1.64v-6.094q0-.984-.156-1.406-.156-.437-.578-.703t-.984-.266q-1.016 0-1.688.688-.672.672-.672 2.156v5.625h-1.64v-6.281q0-1.094-.407-1.64-.406-.548-1.312-.548-.688 0-1.281.36-.594.36-.86 1.062-.25.703-.25 2.031v5.016zm22.166-3.11 1.688.204q-.406 1.484-1.485 2.312-1.078.813-2.765.813-2.125 0-3.375-1.297-1.235-1.313-1.235-3.672 0-2.453 1.25-3.797 1.266-1.344 3.266-1.344 1.938 0 3.156 1.329 1.235 1.312 1.235 3.703v.437h-7.219q.094 1.594.906 2.453.813.844 2.016.844.906 0 1.547-.469.64-.484 1.015-1.515m-5.39-2.656h5.406q-.11-1.218-.625-1.828-.781-.953-2.031-.953-1.125 0-1.907.766-.765.75-.843 2.015m9.141 5.766v-9.672h1.469v1.375q1.062-1.594 3.078-1.594.875 0 1.61.313.734.312 1.093.828.375.5.516 1.203.093.453.093 1.594v5.953h-1.64v-5.89q0-1-.203-1.485-.188-.5-.672-.797t-1.14-.297q-1.048 0-1.813.672-.75.656-.75 2.516v5.281zm13.954-1.469.234 1.453q-.687.141-1.234.141-.89 0-1.39-.281-.485-.281-.688-.735-.203-.468-.203-1.937V456.8h-1.203v-1.266h1.203v-2.39l1.625-.985v3.375h1.656v1.266h-1.656v5.672q0 .687.078.89.094.203.281.328.203.11.578.11.266 0 .719-.063m.949-1.422 1.625-.25q.125.97.75 1.5.625.516 1.75.516t1.672-.453q.547-.469.547-1.094 0-.547-.485-.875-.328-.219-1.672-.547-1.812-.468-2.515-.797-.688-.328-1.047-.906-.36-.594-.36-1.312 0-.64.297-1.188.297-.562.813-.922.375-.28 1.031-.468.672-.204 1.422-.204 1.14 0 2 .329.86.328 1.266.89.422.563.578 1.5l-1.61.219q-.109-.75-.64-1.172-.516-.422-1.469-.422-1.14 0-1.625.375-.469.375-.469.875 0 .313.188.578.203.266.64.438.235.094 1.438.422 1.75.453 2.437.75.688.297 1.079.86.39.562.39 1.405 0 .828-.484 1.547-.469.719-1.375 1.125-.906.39-2.047.39-1.875 0-2.875-.78-.984-.782-1.25-2.329m15.558 2.891V456.8h-1.453v-1.266h1.453v-1.031q0-.969.172-1.453.234-.64.828-1.031t1.672-.391q.688 0 1.531.156l-.25 1.438q-.5-.094-.953-.094-.75 0-1.062.328-.313.313-.313 1.188v.89h1.89v1.266h-1.89v8.406zm4.777 0v-9.672h1.469v1.469q.562-1.031 1.031-1.36.485-.328 1.063-.328.828 0 1.687.532l-.562 1.515q-.61-.359-1.203-.359-.547 0-.97.328-.421.328-.609.89-.28.876-.28 1.923v5.062zm5.62-4.844q0-2.687 1.484-3.968 1.25-1.079 3.046-1.079 2 0 3.266 1.313 1.266 1.297 1.266 3.61 0 1.859-.563 2.937-.562 1.062-1.64 1.656-1.063.594-2.329.594-2.03 0-3.28-1.297-1.25-1.313-1.25-3.766m1.687 0q0 1.86.797 2.797.812.922 2.046.922 1.22 0 2.032-.922.812-.937.812-2.844 0-1.796-.812-2.718t-2.032-.922q-1.234 0-2.046.922-.797.906-.797 2.765m9.297 4.844v-9.672h1.469v1.36q.453-.72 1.203-1.141.766-.438 1.719-.438 1.078 0 1.765.454.688.437.97 1.234 1.155-1.688 2.984-1.688 1.453 0 2.218.797.782.797.782 2.453v6.641h-1.641v-6.094q0-.984-.156-1.406-.157-.437-.578-.703-.422-.266-.985-.266-1.015 0-1.687.688-.672.672-.672 2.156v5.625h-1.64v-6.281q0-1.094-.407-1.64-.406-.548-1.313-.548-.687 0-1.28.36-.595.36-.86 1.062-.25.703-.25 2.031v5.016zm-119.889 22-5.172-13.36h1.922l3.469 9.704q.421 1.172.703 2.187.312-1.093.718-2.187l3.61-9.703h1.797l-5.235 13.36zm14.023-3.11 1.687.204q-.406 1.484-1.484 2.312-1.078.813-2.766.813-2.125 0-3.375-1.297-1.234-1.313-1.234-3.672 0-2.453 1.25-3.797 1.266-1.344 3.266-1.344 1.937 0 3.156 1.329 1.234 1.312 1.234 3.703v.437h-7.219q.094 1.594.907 2.453.812.844 2.015.844.907 0 1.547-.469.64-.484 1.016-1.515m-5.39-2.656h5.405q-.109-1.218-.625-1.828-.78-.953-2.03-.953-1.126 0-1.907.766-.766.75-.844 2.015m9.125 5.766v-9.672h1.469v1.469q.562-1.031 1.03-1.36.485-.328 1.063-.328.829 0 1.688.532l-.563 1.515q-.609-.359-1.203-.359-.547 0-.968.328-.422.328-.61.89-.281.876-.281 1.923v5.062zm6.228-11.469v-1.89h1.64v1.89zm0 11.47v-9.673h1.64v9.672zm4.536 0V478.8h-1.454v-1.266h1.454v-1.031q0-.969.171-1.453.235-.64.829-1.031.593-.391 1.671-.391.688 0 1.532.156l-.25 1.438q-.5-.094-.953-.094-.75 0-1.063.328-.312.313-.312 1.188v.89h1.89v1.266h-1.89v8.406zm4.792-11.47v-1.89h1.64v1.89zm0 11.47v-9.673h1.64v9.672zm10.77-3.11 1.688.203q-.407 1.484-1.485 2.312-1.078.813-2.765.813-2.125 0-3.375-1.297-1.235-1.313-1.235-3.672 0-2.453 1.25-3.797 1.266-1.344 3.266-1.344 1.937 0 3.156 1.329 1.234 1.312 1.234 3.703v.437h-7.218q.093 1.594.906 2.453.812.844 2.016.844.906 0 1.546-.469.641-.484 1.016-1.515m-5.39-2.657h5.406q-.11-1.218-.625-1.828-.782-.953-2.032-.953-1.125 0-1.906.766-.765.75-.844 2.015m9.125 5.766v-9.672h1.469v1.469q.562-1.031 1.031-1.36.485-.328 1.063-.328.828 0 1.687.532l-.562 1.515q-.61-.359-1.203-.359-.547 0-.97.328-.421.328-.609.89-.28.876-.28 1.923v5.062zm11.615 0v-13.36h5.047q1.328 0 2.031.126.969.172 1.64.64.673.453 1.079 1.282.406.828.406 1.828 0 1.703-1.094 2.89-1.078 1.172-3.922 1.172h-3.421v5.422zm1.766-7h3.453q1.718 0 2.437-.64.719-.641.719-1.797 0-.844-.422-1.438t-1.125-.781q-.437-.125-1.64-.125h-3.422zm9.865 2.156q0-2.687 1.484-3.968 1.25-1.079 3.047-1.079 2 0 3.266 1.313 1.266 1.297 1.266 3.61 0 1.859-.563 2.937-.562 1.062-1.64 1.656-1.063.594-2.329.594-2.031 0-3.281-1.297-1.25-1.313-1.25-3.766m1.688 0q0 1.86.796 2.797.813.922 2.047.922 1.219 0 2.032-.922.812-.937.812-2.844 0-1.796-.812-2.718t-2.032-.922q-1.234 0-2.047.922-.796.906-.796 2.765m9.25 4.844v-13.36h1.64v13.36zm4.192-11.469v-1.89h1.64v1.89zm0 11.47v-9.673h1.64v9.672zm10.457-3.548 1.61.219q-.266 1.656-1.36 2.61-1.078.937-2.672.937-1.984 0-3.187-1.297t-1.203-3.719q0-1.578.515-2.75.516-1.172 1.579-1.75 1.062-.594 2.312-.594 1.578 0 2.578.797t1.281 2.266l-1.593.234q-.235-.968-.813-1.453-.578-.5-1.39-.5-1.235 0-2.016.89-.781.891-.781 2.813 0 1.953.75 2.844.75.875 1.953.875.969 0 1.61-.594.655-.593.827-1.828m2.938 7.266-.188-1.531q.547.14.938.14.547 0 .875-.187.328-.172.547-.5.156-.25.5-1.219.047-.14.14-.406l-3.672-9.688h1.766l2.016 5.594q.39 1.078.703 2.25.281-1.125.672-2.203l2.078-5.64h1.64l-3.687 9.827q-.594 1.61-.922 2.203-.437.813-1 1.188t-1.344.375q-.484 0-1.062-.203"/>
    <path d="m234.745 447.933 105.764-.661"/>
    <path stroke="#000" stroke-linejoin="round" stroke-linecap="butt" d="m234.745 447.933 99.764-.624"/>
    <path fill="#000" stroke="#000" stroke-linecap="butt" d="m334.52 448.96 4.527-1.68-4.548-1.623z" fill-rule="evenodd"/>
    <path d="M251.189 414.17h57.197v42.016h-57.197z"/>
    <path fill="#000" d="M269.774 441.09v-5.656l-5.157-7.703h2.157l2.64 4.031q.719 1.125 1.344 2.266.61-1.047 1.469-2.36l2.578-3.937h2.062l-5.328 7.703v5.657zm13.386-3.109 1.687.203q-.406 1.485-1.484 2.313-1.078.812-2.766.812-2.125 0-3.375-1.297-1.234-1.312-1.234-3.671 0-2.454 1.25-3.797 1.266-1.344 3.266-1.344 1.937 0 3.156 1.328 1.234 1.313 1.234 3.703v.438h-7.218q.093 1.593.906 2.453.812.844 2.015.844.907 0 1.547-.47.64-.484 1.016-1.515m-5.39-2.656h5.406q-.11-1.219-.625-1.828-.782-.953-2.032-.953-1.125 0-1.906.765-.766.75-.844 2.016m8.484 2.875 1.625-.25q.125.969.75 1.5.625.516 1.75.516t1.672-.454q.547-.468.547-1.093 0-.547-.484-.875-.328-.219-1.672-.547-1.813-.469-2.516-.797-.687-.328-1.047-.906-.359-.594-.359-1.313 0-.64.297-1.187.297-.563.812-.922.375-.281 1.032-.469.671-.203 1.421-.203 1.141 0 2 .328.86.328 1.266.89.422.563.578 1.5l-1.61.22q-.109-.75-.64-1.172-.515-.422-1.469-.422-1.14 0-1.625.375-.468.375-.468.875 0 .312.187.578.203.265.64.437.235.094 1.438.422 1.75.453 2.438.75.687.297 1.078.86.39.562.39 1.406 0 .828-.484 1.547-.469.718-1.375 1.125-.906.39-2.047.39-1.875 0-2.875-.78-.984-.782-1.25-2.329"/>
    <path fill="#cfe2f3" d="M339.276 520.27H538.96v97.764H339.276z" fill-rule="evenodd"/>
    <path stroke="#000" stroke-linejoin="round" stroke-linecap="butt" d="M339.276 520.27H538.96v97.764H339.276z"/>
    <path fill="#000" d="M384.6 543.072v-13.36h5.922q1.781 0 2.703.36.937.36 1.484 1.281.563.907.563 2.016 0 1.406-.922 2.39-.922.97-2.844 1.235.703.344 1.078.672.766.703 1.453 1.766l2.329 3.64h-2.22l-1.765-2.781q-.781-1.203-1.281-1.828-.5-.64-.906-.89-.391-.266-.797-.36-.297-.078-.985-.078h-2.046v5.937zm1.766-7.453h3.796q1.22 0 1.891-.25.688-.266 1.047-.812.36-.547.36-1.188 0-.953-.688-1.562t-2.188-.61h-4.218zm18.097 4.344 1.688.203q-.406 1.484-1.484 2.312-1.079.813-2.766.813-2.125 0-3.375-1.297-1.234-1.312-1.234-3.672 0-2.453 1.25-3.797 1.265-1.343 3.265-1.343 1.938 0 3.156 1.328 1.235 1.312 1.235 3.703v.437h-7.219q.094 1.594.906 2.453.813.844 2.016.844.906 0 1.547-.469.64-.484 1.015-1.515m-5.39-2.656h5.406q-.11-1.22-.625-1.829-.781-.953-2.031-.953-1.125 0-1.906.766-.766.75-.844 2.016m9.141 5.765V533.4h1.469v1.36q.453-.72 1.203-1.14.766-.438 1.719-.438 1.078 0 1.765.453.688.437.97 1.234 1.155-1.687 2.984-1.687 1.453 0 2.218.796.782.797.782 2.454v6.64h-1.641v-6.094q0-.984-.156-1.406-.157-.437-.578-.703-.422-.266-.985-.266-1.015 0-1.687.688-.672.672-.672 2.156v5.625h-1.64v-6.281q0-1.094-.407-1.64-.406-.548-1.313-.548-.687 0-1.28.36-.595.36-.86 1.062-.25.703-.25 2.032v5.015zm14.932-4.844q0-2.687 1.484-3.968 1.25-1.078 3.047-1.078 2 0 3.265 1.312 1.266 1.297 1.266 3.61 0 1.859-.562 2.937-.563 1.062-1.641 1.656-1.063.594-2.328.594-2.031 0-3.281-1.297-1.25-1.312-1.25-3.766m1.687 0q0 1.86.797 2.797.812.922 2.047.922 1.219 0 2.031-.922.813-.937.813-2.843 0-1.797-.813-2.72-.812-.921-2.031-.921-1.235 0-2.047.922-.797.906-.797 2.765m11.985 4.844-3.687-9.672h1.734l2.078 5.797q.328.938.625 1.938.203-.766.61-1.828l2.14-5.907h1.688l-3.657 9.672zm13.266-3.11 1.687.204q-.406 1.484-1.484 2.312-1.078.813-2.766.813-2.125 0-3.375-1.297-1.234-1.312-1.234-3.672 0-2.453 1.25-3.797 1.266-1.343 3.266-1.343 1.937 0 3.156 1.328 1.234 1.312 1.234 3.703v.437H444.6q.094 1.594.907 2.453.812.844 2.015.844.907 0 1.547-.469.64-.484 1.016-1.515m-5.39-2.655h5.405q-.109-1.22-.625-1.829-.78-.953-2.03-.953-1.126 0-1.907.766-.766.75-.844 2.016m14.511 5.765v-13.36h1.813l7.015 10.485v-10.484h1.688v13.36h-1.813l-7.015-10.5v10.5zm19.91-3.11 1.688.204q-.406 1.484-1.484 2.312-1.078.813-2.766.813-2.125 0-3.375-1.297-1.234-1.312-1.234-3.672 0-2.453 1.25-3.797 1.266-1.343 3.266-1.343 1.937 0 3.156 1.328 1.234 1.312 1.234 3.703v.437h-7.219q.094 1.594.907 2.453.812.844 2.015.844.907 0 1.547-.469.64-.484 1.016-1.515m-5.39-2.655h5.406q-.109-1.22-.625-1.829-.78-.953-2.03-.953-1.126 0-1.907.766-.766.75-.844 2.016m10.923 5.765-2.969-9.672h1.703l1.531 5.578.579 2.079q.046-.157.5-2l1.546-5.657h1.688l1.437 5.61.485 1.843.562-1.859 1.657-5.594h1.593l-3.031 9.672h-1.703l-1.531-5.797-.375-1.64-1.953 7.437zm-80.995 21.998-3.531-13.36h1.812l2.031 8.766q.328 1.375.563 2.72.5-2.141.594-2.47l2.546-9.015h2.125l1.922 6.765q.719 2.516 1.032 4.72.265-1.266.671-2.891l2.094-8.594h1.781l-3.671 13.36h-1.704l-2.812-10.173q-.36-1.28-.422-1.562-.203.906-.39 1.562l-2.829 10.172zm14.13-4.844q0-2.687 1.485-3.968 1.25-1.078 3.047-1.078 2 0 3.265 1.312 1.266 1.297 1.266 3.61 0 1.859-.562 2.937-.563 1.062-1.641 1.656-1.063.594-2.328.594-2.031 0-3.281-1.297-1.25-1.312-1.25-3.766m1.688 0q0 1.86.797 2.797.812.922 2.047.922 1.219 0 2.031-.922.813-.937.813-2.843 0-1.797-.813-2.72-.812-.921-2.031-.921-1.235 0-2.047.922-.797.906-.797 2.765m9.282 4.844V555.4h1.469v1.47q.562-1.032 1.031-1.36.484-.328 1.063-.328.828 0 1.687.53l-.562 1.516q-.61-.359-1.204-.359-.546 0-.968.328t-.61.89q-.28.876-.28 1.923v5.062zm6.228 0v-13.36h1.641v7.626l3.89-3.938h2.11l-3.688 3.594 4.063 6.078h-2.016l-3.203-4.953-1.156 1.125v3.828zm9.282 0v-13.36h1.64v13.36zm3.582-4.844q0-2.687 1.484-3.968 1.25-1.078 3.047-1.078 2 0 3.266 1.312 1.265 1.297 1.265 3.61 0 1.859-.562 2.937-.563 1.062-1.64 1.656-1.063.594-2.329.594-2.031 0-3.281-1.297-1.25-1.312-1.25-3.766m1.687 0q0 1.86.797 2.797.813.922 2.047.922 1.219 0 2.031-.922.813-.937.813-2.843 0-1.797-.813-2.72-.812-.921-2.03-.921-1.235 0-2.048.922-.797.906-.797 2.765m15.61 3.657q-.921.765-1.765 1.093-.828.313-1.797.313-1.594 0-2.453-.781-.86-.782-.86-1.985 0-.718.329-1.297.328-.593.843-.937.532-.36 1.188-.547.469-.125 1.453-.25 1.984-.234 2.922-.562.016-.344.016-.422 0-1-.47-1.422-.624-.547-1.874-.547-1.156 0-1.703.406t-.813 1.422l-1.61-.219q.22-1.015.72-1.64.5-.64 1.453-.985.953-.343 2.187-.343 1.25 0 2.016.296.781.282 1.14.735.375.437.516 1.11.078.421.078 1.515v2.187q0 2.282.11 2.89.109.595.406 1.157h-1.703q-.266-.515-.328-1.187m-.14-3.672q-.89.375-2.672.625-1.016.14-1.437.328-.422.187-.657.531-.218.344-.218.781 0 .657.5 1.094t1.453.438q.937 0 1.672-.407.75-.421 1.093-1.14.266-.563.266-1.64zm10.47 4.86v-1.22q-.907 1.438-2.704 1.438-1.156 0-2.125-.64-.969-.641-1.5-1.782-.531-1.14-.531-2.625 0-1.453.484-2.625.485-1.187 1.438-1.812.969-.625 2.172-.625.875 0 1.547.375.687.359 1.109.953v-4.797h1.64v13.36zm-5.173-4.829q0 1.86.782 2.781.781.922 1.843.922 1.079 0 1.829-.875.75-.89.75-2.687 0-1.985-.766-2.907-.766-.937-1.89-.937-1.079 0-1.813.89-.735.891-.735 2.813m-112.735 26.828v-13.36h2.656l3.156 9.454q.438 1.328.64 1.984.235-.734.704-2.14l3.203-9.297h2.375v13.36h-1.703V575.9l-3.875 11.172h-1.594l-3.86-11.375v11.375zm22.01-3.11 1.687.204q-.406 1.484-1.485 2.312-1.078.813-2.765.813-2.125 0-3.375-1.297-1.235-1.312-1.235-3.672 0-2.453 1.25-3.797 1.266-1.343 3.266-1.343 1.938 0 3.156 1.328 1.235 1.312 1.235 3.703v.437h-7.22q.095 1.594.907 2.453.813.844 2.016.844.906 0 1.547-.469.64-.484 1.015-1.515m-5.391-2.655h5.406q-.11-1.22-.625-1.829-.781-.953-2.031-.953-1.125 0-1.907.766-.765.75-.843 2.016m15.454 4.578q-.922.765-1.766 1.093-.828.313-1.797.313-1.594 0-2.453-.781-.86-.782-.86-1.985 0-.718.329-1.297.328-.593.843-.937.532-.36 1.188-.547.469-.125 1.453-.25 1.984-.234 2.922-.562.016-.344.016-.422 0-1-.47-1.422-.624-.547-1.874-.547-1.156 0-1.703.406t-.813 1.422l-1.61-.219q.22-1.015.72-1.64.5-.64 1.453-.985.953-.343 2.187-.343 1.25 0 2.016.296.781.282 1.14.735.375.437.516 1.11.078.421.078 1.515v2.187q0 2.282.11 2.89.109.595.406 1.157h-1.703q-.266-.515-.328-1.187m-.141-3.672q-.89.375-2.672.625-1.016.14-1.437.328-.422.187-.657.531-.218.344-.218.781 0 .657.5 1.094t1.453.438q.937 0 1.672-.407.75-.421 1.093-1.14.266-.563.266-1.64zm3.548 1.969 1.625-.25q.125.968.75 1.5.625.515 1.75.515t1.671-.453q.547-.469.547-1.094 0-.547-.484-.875-.328-.218-1.672-.547-1.812-.468-2.516-.796-.687-.329-1.046-.907-.36-.593-.36-1.312 0-.64.297-1.188.297-.562.813-.922.375-.28 1.03-.468.673-.203 1.423-.203 1.14 0 2 .328.859.328 1.265.89.422.563.578 1.5l-1.609.22q-.11-.75-.64-1.173-.516-.422-1.47-.422-1.14 0-1.624.375-.47.375-.47.875 0 .313.188.578.204.266.641.438.234.094 1.438.422 1.75.453 2.437.75.688.297 1.078.86t.39 1.405q0 .829-.484 1.547-.468.72-1.375 1.125-.906.39-2.046.39-1.875 0-2.875-.78-.985-.782-1.25-2.328m16.312 2.89v-1.422q-1.125 1.64-3.062 1.64-.86 0-1.61-.327-.734-.328-1.094-.828-.359-.5-.5-1.22-.109-.468-.109-1.53V577.4h1.64v5.36q0 1.28.11 1.734.156.64.656 1.016.5.375 1.235.375.734 0 1.375-.375.656-.39.922-1.032.265-.656.265-1.89V577.4h1.64v9.672zm4.032 0V577.4h1.469v1.47q.562-1.032 1.031-1.36.484-.328 1.062-.328.829 0 1.688.53l-.563 1.516q-.609-.359-1.203-.359-.547 0-.968.328-.422.328-.61.89-.281.876-.281 1.923v5.062zm12.853-3.11 1.688.204q-.406 1.484-1.485 2.312-1.078.813-2.765.813-2.125 0-3.375-1.297-1.235-1.312-1.235-3.672 0-2.453 1.25-3.797 1.266-1.343 3.266-1.343 1.938 0 3.156 1.328 1.235 1.312 1.235 3.703v.437h-7.22q.095 1.594.907 2.453.813.844 2.016.844.906 0 1.547-.469.64-.484 1.015-1.515m-5.39-2.655h5.406q-.11-1.22-.625-1.829-.781-.953-2.031-.953-1.125 0-1.907.766-.765.75-.843 2.016m9.141 5.765V577.4h1.469v1.36q.453-.72 1.203-1.14.765-.438 1.719-.438 1.078 0 1.765.453.688.437.969 1.234 1.156-1.687 2.984-1.687 1.453 0 2.22.796.78.797.78 2.454v6.64h-1.64v-6.094q0-.984-.157-1.406-.156-.437-.578-.703t-.984-.266q-1.016 0-1.688.688-.671.672-.671 2.156v5.625h-1.641v-6.281q0-1.094-.406-1.64-.407-.548-1.313-.548-.687 0-1.281.36t-.86 1.062q-.25.703-.25 2.032v5.015zm22.166-3.11 1.687.204q-.406 1.484-1.484 2.312-1.078.813-2.766.813-2.125 0-3.375-1.297-1.234-1.312-1.234-3.672 0-2.453 1.25-3.797 1.266-1.343 3.266-1.343 1.937 0 3.156 1.328 1.234 1.312 1.234 3.703v.437h-7.219q.094 1.594.907 2.453.812.844 2.015.844.907 0 1.547-.469.64-.484 1.016-1.515m-5.39-2.655h5.405q-.109-1.22-.625-1.829-.78-.953-2.03-.953-1.126 0-1.907.766-.766.75-.844 2.016m9.14 5.765V577.4h1.47v1.375q1.062-1.593 3.077-1.593.875 0 1.61.312.734.313 1.093.828.375.5.516 1.203.094.453.094 1.594v5.953h-1.64v-5.89q0-1-.204-1.485-.187-.5-.672-.797-.484-.297-1.14-.297-1.047 0-1.813.672-.75.657-.75 2.516v5.281zm13.954-1.469.235 1.454q-.688.14-1.235.14-.89 0-1.39-.281-.485-.281-.688-.734-.203-.47-.203-1.938v-5.578h-1.203V577.4h1.203v-2.39l1.625-.985v3.375h1.656v1.266h-1.656v5.672q0 .687.078.89.094.204.281.329.204.109.579.109.265 0 .718-.063m.95-1.421 1.624-.25q.125.968.75 1.5.625.515 1.75.515t1.672-.453q.547-.469.547-1.094 0-.547-.484-.875-.328-.218-1.672-.547-1.813-.468-2.516-.796-.687-.329-1.047-.907-.36-.593-.36-1.312 0-.64.298-1.188.297-.562.812-.922.375-.28 1.032-.468.671-.203 1.421-.203 1.141 0 2 .328.86.328 1.266.89.422.563.578 1.5l-1.61.22q-.109-.75-.64-1.173-.515-.422-1.469-.422-1.14 0-1.625.375-.468.375-.468.875 0 .313.187.578.203.266.64.438.235.094 1.438.422 1.75.453 2.438.75.687.297 1.078.86.39.562.39 1.405 0 .829-.484 1.547-.469.72-1.375 1.125-.906.39-2.047.39-1.875 0-2.875-.78-.984-.782-1.25-2.328m15.558 2.89v-8.406h-1.454V577.4h1.454v-1.03q0-.97.171-1.454.235-.64.829-1.031.593-.39 1.671-.39.688 0 1.532.155l-.25 1.438q-.5-.094-.953-.094-.75 0-1.063.328-.312.313-.312 1.188v.89h1.89v1.266h-1.89v8.406zm4.777 0V577.4h1.468v1.47q.563-1.032 1.032-1.36.484-.328 1.062-.328.828 0 1.688.53l-.563 1.516q-.61-.359-1.203-.359-.547 0-.969.328t-.61.89q-.28.876-.28 1.923v5.062zm5.619-4.844q0-2.687 1.484-3.968 1.25-1.078 3.047-1.078 2 0 3.265 1.312 1.266 1.297 1.266 3.61 0 1.859-.562 2.937-.563 1.062-1.641 1.656-1.063.594-2.328.594-2.031 0-3.281-1.297-1.25-1.312-1.25-3.766m1.687 0q0 1.86.797 2.797.812.922 2.047.922 1.219 0 2.031-.922.813-.937.813-2.843 0-1.797-.813-2.72-.812-.921-2.031-.921-1.235 0-2.047.922-.797.906-.797 2.765m9.298 4.844V577.4h1.468v1.36q.454-.72 1.204-1.14.765-.438 1.718-.438 1.078 0 1.766.453.687.437.969 1.234 1.156-1.687 2.984-1.687 1.453 0 2.219.796.781.797.781 2.454v6.64h-1.64v-6.094q0-.984-.157-1.406-.156-.437-.578-.703t-.984-.266q-1.016 0-1.688.688-.672.672-.672 2.156v5.625h-1.64v-6.281q0-1.094-.407-1.64-.406-.548-1.312-.548-.688 0-1.281.36-.594.36-.86 1.062-.25.703-.25 2.032v5.015zm-119.889 22-5.172-13.36h1.922l3.469 9.704q.422 1.172.703 2.187.313-1.093.719-2.187l3.61-9.703h1.796l-5.234 13.36zm14.023-3.11 1.688.204q-.407 1.484-1.485 2.312-1.078.813-2.765.813-2.125 0-3.375-1.297-1.235-1.312-1.235-3.672 0-2.453 1.25-3.797 1.266-1.343 3.266-1.343 1.937 0 3.156 1.328 1.235 1.312 1.235 3.703v.437h-7.22q.095 1.594.907 2.453.813.844 2.016.844.906 0 1.547-.469.64-.484 1.015-1.515m-5.39-2.655h5.406q-.11-1.22-.625-1.829-.781-.953-2.031-.953-1.125 0-1.907.766-.765.75-.843 2.016m9.125 5.765V599.4h1.469v1.47q.563-1.032 1.031-1.36.485-.328 1.063-.328.828 0 1.687.53l-.562 1.516q-.61-.359-1.203-.359-.547 0-.97.328-.421.328-.608.89-.282.876-.282 1.923v5.062zm6.229-11.469v-1.89h1.64v1.89zm0 11.47V599.4h1.64v9.672zm4.535 0v-8.407h-1.453V599.4h1.453v-1.03q0-.97.172-1.454.234-.64.828-1.031t1.672-.39q.687 0 1.531.155l-.25 1.438q-.5-.094-.953-.094-.75 0-1.062.328-.313.313-.313 1.188v.89h1.89v1.266h-1.89v8.406zm4.793-11.47v-1.89h1.64v1.89zm0 11.47V599.4h1.64v9.672zm10.77-3.11 1.687.203q-.406 1.484-1.484 2.312-1.078.813-2.766.813-2.125 0-3.375-1.297-1.234-1.312-1.234-3.672 0-2.453 1.25-3.797 1.265-1.343 3.265-1.343 1.938 0 3.157 1.328 1.234 1.312 1.234 3.703v.437h-7.219q.094 1.594.906 2.453.813.844 2.016.844.906 0 1.547-.469.64-.484 1.016-1.515m-5.391-2.656h5.406q-.11-1.22-.625-1.829-.781-.953-2.031-.953-1.125 0-1.906.766-.766.75-.844 2.016m9.126 5.765V599.4h1.468v1.47q.563-1.032 1.032-1.36.484-.328 1.062-.328.828 0 1.688.53l-.563 1.516q-.61-.359-1.203-.359-.547 0-.969.328t-.61.89q-.28.876-.28 1.923v5.062zm11.614 0v-13.36h5.047q1.328 0 2.031.126.97.172 1.641.64.672.454 1.078 1.282t.406 1.828q0 1.703-1.093 2.89-1.078 1.172-3.922 1.172h-3.422v5.422zm1.766-7h3.453q1.719 0 2.438-.64.718-.641.718-1.797 0-.844-.422-1.438-.421-.594-1.125-.781-.437-.125-1.64-.125h-3.422zm9.865 2.156q0-2.687 1.485-3.968 1.25-1.078 3.047-1.078 2 0 3.265 1.312 1.266 1.297 1.266 3.61 0 1.859-.563 2.937-.562 1.062-1.64 1.656-1.063.594-2.328.594-2.032 0-3.282-1.297-1.25-1.312-1.25-3.766m1.688 0q0 1.86.797 2.797.812.922 2.047.922 1.218 0 2.03-.922.813-.937.813-2.843 0-1.797-.812-2.72-.813-.921-2.031-.921-1.235 0-2.047.922-.797.906-.797 2.765m9.25 4.844v-13.36h1.641v13.36zm4.192-11.469v-1.89h1.641v1.89zm0 11.47V599.4h1.641v9.672zm10.458-3.548 1.61.22q-.267 1.655-1.36 2.608-1.078.938-2.672.938-1.985 0-3.188-1.297t-1.203-3.719q0-1.578.516-2.75.515-1.172 1.578-1.75 1.062-.593 2.312-.593 1.579 0 2.579.796 1 .797 1.28 2.266l-1.593.234q-.234-.968-.812-1.453-.579-.5-1.391-.5-1.234 0-2.016.89-.78.892-.78 2.813 0 1.954.75 2.844.75.875 1.952.875.969 0 1.61-.594.656-.593.828-1.828m2.937 7.266-.187-1.531q.547.14.937.14.547 0 .875-.187.328-.172.547-.5.156-.25.5-1.219.047-.14.14-.406l-3.671-9.688h1.765l2.016 5.594q.39 1.078.703 2.25.281-1.125.672-2.203l2.078-5.64h1.64l-3.687 9.827q-.593 1.61-.922 2.204-.437.812-1 1.187t-1.343.375q-.485 0-1.063-.203"/>
    <path fill="#cfe2f3" d="M54.465 536.268H208.05c21.206 0 38.396 14.435 38.396 32.241 0 17.807-17.19 32.242-38.396 32.242H54.465c-21.206 0-38.397-14.435-38.397-32.242s17.19-32.241 38.397-32.241" fill-rule="evenodd"/>
    <path d="M208.05 600.75c-21.206 0-38.396-14.434-38.396-32.24s17.19-32.242 38.396-32.242"/>
    <path d="M54.465 536.268H208.05c21.206 0 38.396 14.435 38.396 32.241 0 17.807-17.19 32.242-38.396 32.242H54.465c-21.206 0-38.397-14.435-38.397-32.242s17.19-32.241 38.397-32.241"/>
    <path stroke="#000" stroke-linejoin="round" stroke-linecap="butt" d="M208.05 600.75c-21.206 0-38.396-14.434-38.396-32.24s17.19-32.242 38.396-32.242"/>
    <path stroke="#000" stroke-linejoin="round" stroke-linecap="butt" d="M54.465 536.268H208.05c21.206 0 38.396 14.435 38.396 32.241 0 17.807-17.19 32.242-38.396 32.242H54.465c-21.206 0-38.397-14.435-38.397-32.242s17.19-32.241 38.397-32.241z"/>
    <path fill="#000" d="M74.13 553.43v-13.36h5.921q1.781 0 2.703.36.938.359 1.485 1.28.562.907.562 2.016 0 1.406-.922 2.39-.922.97-2.844 1.235.704.344 1.079.672.765.703 1.453 1.766l2.328 3.64h-2.219l-1.766-2.781q-.78-1.203-1.28-1.828-.5-.64-.907-.89-.39-.266-.797-.36-.297-.078-.984-.078h-2.047v5.937zm1.765-7.454h3.797q1.218 0 1.89-.25.688-.266 1.047-.812.36-.547.36-1.188 0-.953-.688-1.562t-2.187-.61h-4.22zm10.863 2.61q0-2.688 1.485-3.97 1.25-1.077 3.047-1.077 2 0 3.265 1.312 1.266 1.297 1.266 3.61 0 1.859-.563 2.937-.562 1.062-1.64 1.656-1.063.594-2.328.594-2.032 0-3.282-1.297-1.25-1.312-1.25-3.766m1.688 0q0 1.859.797 2.796.812.922 2.047.922 1.218 0 2.03-.922.813-.937.813-2.843 0-1.797-.812-2.72-.813-.921-2.031-.921-1.235 0-2.047.922-.797.906-.797 2.765m9.25 4.843v-13.36h1.641v13.36zm4.145 0v-13.36h1.641v13.36zm9.5 0v-13.36h5.016q1.531 0 2.453.407t1.438 1.25q.531.844.531 1.766 0 .86-.469 1.625-.453.75-1.39 1.203 1.203.36 1.859 1.219t.656 2.015q0 .938-.406 1.75-.39.797-.984 1.235-.579.437-1.454.671-.875.22-2.156.22zm1.782-7.75h2.875q1.187 0 1.687-.14.672-.204 1.016-.672t.344-1.172q0-.656-.329-1.156-.312-.516-.906-.704t-2.031-.187h-2.656zm0 6.172h3.312q.86 0 1.203-.062.61-.11 1.016-.36.422-.265.687-.75.266-.484.266-1.125 0-.75-.39-1.297-.376-.547-1.063-.765-.672-.235-1.953-.235h-3.078zm16.85.39q-.922.766-1.766 1.094-.828.313-1.797.313-1.594 0-2.453-.781-.86-.782-.86-1.985 0-.718.329-1.297.328-.593.843-.937.532-.36 1.188-.547.469-.125 1.453-.25 1.984-.234 2.922-.562.016-.344.016-.422 0-1-.47-1.422-.624-.547-1.874-.547-1.156 0-1.703.406t-.813 1.422l-1.61-.219q.22-1.015.72-1.64.5-.64 1.453-.985.953-.343 2.187-.343 1.25 0 2.016.296.781.282 1.14.735.375.437.516 1.11.078.421.078 1.515v2.187q0 2.282.11 2.891.109.594.406 1.156H130.3q-.266-.515-.328-1.187m-.141-3.671q-.89.375-2.672.625-1.016.14-1.437.328-.422.187-.657.531-.218.344-.218.781 0 .657.5 1.094t1.453.438q.937 0 1.672-.407.75-.421 1.093-1.14.266-.563.266-1.64zm10.516 1.312 1.61.22q-.266 1.655-1.36 2.608-1.078.938-2.672.938-1.984 0-3.187-1.297t-1.203-3.719q0-1.578.515-2.75.516-1.172 1.579-1.75 1.062-.593 2.312-.593 1.578 0 2.578.796 1 .797 1.281 2.266l-1.593.234q-.235-.968-.813-1.453-.578-.5-1.39-.5-1.235 0-2.016.891-.781.89-.781 2.812 0 1.954.75 2.844.75.875 1.953.875.969 0 1.61-.594.655-.593.827-1.828m3.016 3.547v-13.36h1.64v7.626l3.891-3.938h2.11l-3.688 3.594 4.063 6.078h-2.016l-3.203-4.953-1.156 1.125v3.828zM94.82 575.43v-13.36h1.813l7.015 10.484V562.07h1.688v13.36h-1.813l-7.015-10.5v10.5zm19.91-3.11 1.688.203q-.406 1.484-1.484 2.312-1.078.813-2.766.813-2.125 0-3.375-1.297-1.234-1.312-1.234-3.672 0-2.453 1.25-3.797 1.265-1.343 3.265-1.343 1.938 0 3.157 1.328 1.234 1.312 1.234 3.703v.437h-7.219q.094 1.594.906 2.453.813.844 2.016.844.906 0 1.547-.469.64-.484 1.016-1.515m-5.39-2.656h5.406q-.11-1.22-.625-1.829-.781-.953-2.031-.953-1.125 0-1.906.766-.766.75-.844 2.016m10.923 5.765-2.97-9.672h1.704l1.531 5.578.578 2.079q.047-.157.5-2l1.547-5.657h1.688l1.437 5.61.485 1.843.562-1.859 1.656-5.594h1.594l-3.031 9.672h-1.703l-1.532-5.797-.375-1.64-1.953 7.437zM76.595 597.43l-3.532-13.36h1.813l2.031 8.765q.328 1.375.563 2.72.5-2.141.593-2.47l2.547-9.015h2.125l1.922 6.765q.719 2.516 1.031 4.72.266-1.266.672-2.891l2.094-8.594h1.781l-3.672 13.36H84.86l-2.812-10.173q-.36-1.28-.422-1.562-.203.906-.39 1.562l-2.829 10.172zm14.13-4.845q0-2.687 1.485-3.968 1.25-1.078 3.047-1.078 2 0 3.265 1.312 1.266 1.297 1.266 3.61 0 1.859-.562 2.937-.563 1.062-1.641 1.656-1.063.594-2.328.594-2.031 0-3.281-1.297-1.25-1.312-1.25-3.766m1.688 0q0 1.86.797 2.797.812.922 2.047.922 1.219 0 2.031-.922.813-.937.813-2.843 0-1.797-.813-2.72-.812-.921-2.031-.921-1.235 0-2.047.922-.797.906-.797 2.765m9.282 4.844v-9.672h1.469v1.47q.562-1.032 1.031-1.36.484-.328 1.062-.328.829 0 1.688.53l-.563 1.516q-.609-.359-1.203-.359-.547 0-.968.328-.422.328-.61.89-.281.876-.281 1.923v5.062zm6.228 0v-13.36h1.64v7.626l3.892-3.938h2.109l-3.688 3.594 4.063 6.078h-2.016l-3.203-4.953-1.156 1.125v3.828zm9.282 0v-13.36h1.64v13.36zm3.582-4.844q0-2.687 1.484-3.968 1.25-1.078 3.047-1.078 2 0 3.266 1.312 1.265 1.297 1.265 3.61 0 1.859-.562 2.937-.563 1.062-1.64 1.656-1.063.594-2.329.594-2.031 0-3.281-1.297-1.25-1.312-1.25-3.766m1.687 0q0 1.86.797 2.797.813.922 2.047.922 1.219 0 2.031-.922.813-.937.813-2.843 0-1.797-.813-2.72-.812-.921-2.03-.921-1.235 0-2.048.922-.797.906-.797 2.765m15.61 3.657q-.921.765-1.765 1.093-.828.313-1.797.313-1.594 0-2.453-.781-.86-.782-.86-1.985 0-.718.329-1.297.328-.593.843-.937.532-.36 1.188-.547.469-.125 1.453-.25 1.984-.234 2.922-.562.015-.344.015-.422 0-1-.468-1.422-.625-.547-1.875-.547-1.157 0-1.703.406-.547.406-.813 1.422l-1.61-.219q.22-1.015.72-1.64.5-.64 1.453-.985.953-.343 2.187-.343 1.25 0 2.016.296.781.282 1.14.735.375.437.516 1.11.078.421.078 1.515v2.187q0 2.282.11 2.891.109.594.406 1.156h-1.703q-.266-.515-.329-1.187m-.14-3.672q-.89.375-2.672.625-1.016.14-1.438.328-.421.187-.656.531-.219.344-.219.781 0 .657.5 1.094t1.454.438q.937 0 1.671-.407.75-.421 1.094-1.14.266-.563.266-1.64zm10.47 4.86v-1.22q-.907 1.438-2.704 1.438-1.156 0-2.125-.64-.969-.641-1.5-1.782-.531-1.14-.531-2.625 0-1.453.484-2.625.485-1.187 1.438-1.812.969-.625 2.172-.625.875 0 1.547.375.687.359 1.109.953v-4.797h1.64v13.36zm-5.173-4.829q0 1.86.782 2.781.78.922 1.843.922 1.079 0 1.829-.875.75-.89.75-2.687 0-1.985-.766-2.907-.766-.937-1.89-.937-1.079 0-1.813.89-.735.891-.735 2.813"/>
    <path d="M131.257 496.816v39.465"/>
    <path stroke="#000" stroke-linejoin="round" stroke-linecap="butt" d="M131.257 496.816v33.465"/>
    <path fill="#000" stroke="#000" stroke-linecap="butt" d="m129.605 530.28 1.652 4.539 1.652-4.538z" fill-rule="evenodd"/>
    <path d="m246.446 568.51 92.82.63"/>
    <path stroke="#000" stroke-linejoin="round" stroke-linecap="butt" d="m246.446 568.51 86.82.588"/>
    <path fill="#000" stroke="#000" stroke-linecap="butt" d="m333.254 570.75 4.55-1.62-4.528-1.683z" fill-rule="evenodd"/>
    <path d="M131.26 496.816h57.197v42.016H131.26z"/>
    <path fill="#000" d="M141.682 523.736v-13.36h1.812l7.016 10.485v-10.484h1.687v13.36h-1.812l-7.016-10.5v10.5zm12.676-4.843q0-2.688 1.484-3.97 1.25-1.077 3.047-1.077 2 0 3.266 1.312 1.265 1.297 1.265 3.61 0 1.859-.562 2.937-.563 1.063-1.64 1.656-1.063.594-2.329.594-2.031 0-3.281-1.297-1.25-1.312-1.25-3.765m1.687 0q0 1.859.797 2.796.813.922 2.047.922 1.219 0 2.031-.922.813-.937.813-2.843 0-1.797-.813-2.72-.812-.921-2.031-.921-1.234 0-2.047.922-.797.906-.797 2.766"/>
  </g>
</svg>